<?xml version="1.0" encoding="utf-8"?>
<!DOCTYPE score-partwise  PUBLIC "-//Recordare//DTD MusicXML 3.0 Partwise//EN" "http://www.musicxml.org/dtds/partwise.dtd">
<score-partwise version="3.0">
  <work>
    <work-title>father-in-heaven.musicxml</work-title>
  </work>
  <movement-title>father-in-heaven.musicxml</movement-title>
  <identification>
    <creator type="composer">Music21</creator>
    <encoding>
      <encoding-date>2020-07-30</encoding-date>
      <software>music21 v.5.7.2</software>
      <software>MuseScore 3.4.2</software>
    </encoding>
  </identification>
  <defaults>
    <scaling>
      <millimeters>7.4223</millimeters>
      <tenths>40</tenths>
    </scaling>
    <page-layout>
      <page-height>1600.58</page-height>
      <page-width>1131.72</page-width>
      <page-margins>
        <left-margin>53.8917</left-margin>
        <right-margin>53.8917</right-margin>
        <top-margin>53.8917</top-margin>
        <bottom-margin>107.783</bottom-margin>
      </page-margins>
    </page-layout>
    <word-font font-family="FreeSerif" font-size="10" />
    <lyric-font font-family="Palatino ldsLat Condensed" font-size="10.69" />
  </defaults>
  <part-list>
    <score-part id="P3">
      <part-name print-object="no">Soprano</part-name>
      <score-instrument id="Iee613b075a901b15d3425e61a666cd38">
        <instrument-name>Acoustic Grand Piano</instrument-name>
      </score-instrument>
      <midi-instrument id="Iee613b075a901b15d3425e61a666cd38">
        <midi-channel>1</midi-channel>
        <midi-program>1</midi-program>
      </midi-instrument>
    </score-part>
    <score-part id="P4">
      <part-name print-object="no">Alto</part-name>
      <score-instrument id="I7ccf496d9bafc65eb1f3d03cfd6e1d19">
        <instrument-name>Acoustic Grand Piano</instrument-name>
      </score-instrument>
      <midi-instrument id="I7ccf496d9bafc65eb1f3d03cfd6e1d19">
        <midi-channel>2</midi-channel>
        <midi-program>1</midi-program>
      </midi-instrument>
    </score-part>
    <score-part id="P5">
      <part-name print-object="no">Tenor</part-name>
      <score-instrument id="I76df14a61479979f4ce31ab92207d5cf">
        <instrument-name>Acoustic Grand Piano</instrument-name>
      </score-instrument>
      <midi-instrument id="I76df14a61479979f4ce31ab92207d5cf">
        <midi-channel>3</midi-channel>
        <midi-program>1</midi-program>
      </midi-instrument>
    </score-part>
    <score-part id="P6">
      <part-name print-object="no">Bass</part-name>
      <score-instrument id="I13e718be53b14cb1c68d219f434a7e39">
        <instrument-name>Acoustic Grand Piano</instrument-name>
      </score-instrument>
      <midi-instrument id="I13e718be53b14cb1c68d219f434a7e39">
        <midi-channel>4</midi-channel>
        <midi-program>1</midi-program>
      </midi-instrument>
    </score-part>
  </part-list>
  <!--=========================== Part 1 ===========================-->
  <part id="P3">
    <!--========================= Measure 0 ==========================-->
    <measure number="0" width="317.09">
      <attributes>
        <divisions>10080</divisions>
        <key>
          <fifths>1</fifths>
          <mode>major</mode>
        </key>
        <time>
          <beats>4</beats>
          <beat-type>4</beat-type>
        </time>
        <clef>
          <sign>G</sign>
          <line>2</line>
        </clef>
      </attributes>
      <note default-x="103.48" default-y="-430">
        <pitch>
          <step>G</step>
          <octave>4</octave>
        </pitch>
        <duration>20160</duration>
        <voice>2</voice>
        <type>half</type>
        <stem>down</stem>
      </note>
      <note default-x="197.91" default-y="-430">
        <pitch>
          <step>G</step>
          <octave>4</octave>
        </pitch>
        <duration>10080</duration>
        <voice>2</voice>
        <type>quarter</type>
        <stem>down</stem>
      </note>
      <note default-x="256.7" default-y="-430">
        <pitch>
          <step>G</step>
          <octave>4</octave>
        </pitch>
        <duration>10080</duration>
        <voice>2</voice>
        <type>quarter</type>
        <stem>down</stem>
      </note>
    </measure>
    <!--========================= Measure 0 ==========================-->
    <measure number="0" width="203.18">
      <note default-x="33.39" default-y="-425">
        <pitch>
          <step>A</step>
          <octave>4</octave>
        </pitch>
        <duration>20160</duration>
        <voice>2</voice>
        <type>half</type>
        <stem>down</stem>
      </note>
      <note default-x="117.31" default-y="-425">
        <pitch>
          <step>A</step>
          <octave>4</octave>
        </pitch>
        <duration>20160</duration>
        <voice>2</voice>
        <type>half</type>
        <stem>down</stem>
      </note>
    </measure>
    <!--========================= Measure 0 ==========================-->
    <measure number="0" width="321.02">
      <note default-x="45.16" default-y="-420">
        <pitch>
          <step>B</step>
          <octave>4</octave>
        </pitch>
        <duration>10080</duration>
        <voice>2</voice>
        <type>quarter</type>
        <stem>down</stem>
      </note>
      <note default-x="113.72" default-y="-430">
        <pitch>
          <step>G</step>
          <octave>4</octave>
        </pitch>
        <duration>10080</duration>
        <voice>2</voice>
        <type>quarter</type>
        <stem>down</stem>
      </note>
      <note default-x="182.29" default-y="-430">
        <pitch>
          <step>G</step>
          <octave>4</octave>
        </pitch>
        <duration>10080</duration>
        <voice>2</voice>
        <type>quarter</type>
        <stem>down</stem>
      </note>
      <note default-x="250.86" default-y="-425">
        <pitch>
          <step>A</step>
          <octave>4</octave>
        </pitch>
        <duration>10080</duration>
        <voice>2</voice>
        <type>quarter</type>
        <stem>down</stem>
      </note>
    </measure>
    <!--========================= Measure 0 ==========================-->
    <measure number="0" width="182.64">
      <note default-x="27.16" default-y="-430">
        <pitch>
          <step>G</step>
          <octave>4</octave>
        </pitch>
        <duration>20160</duration>
        <voice>2</voice>
        <type>half</type>
        <stem>down</stem>
      </note>
      <note default-x="103.92" default-y="-435">
        <pitch>
          <step>F</step>
          <alter>1</alter>
          <octave>4</octave>
        </pitch>
        <duration>20160</duration>
        <voice>2</voice>
        <type>half</type>
        <stem>down</stem>
      </note>
    </measure>
    <!--========================= Measure 0 ==========================-->
    <measure number="0" width="1023.94">
      <note default-x="82.39" default-y="-420">
        <pitch>
          <step>B</step>
          <octave>4</octave>
        </pitch>
        <duration>20160</duration>
        <voice>2</voice>
        <type>half</type>
        <stem>down</stem>
      </note>
      <note default-x="500.35" default-y="-420">
        <pitch>
          <step>B</step>
          <octave>4</octave>
        </pitch>
        <duration>10080</duration>
        <voice>2</voice>
        <type>quarter</type>
        <stem>down</stem>
      </note>
      <note default-x="761.34" default-y="-420">
        <pitch>
          <step>B</step>
          <octave>4</octave>
        </pitch>
        <duration>10080</duration>
        <voice>2</voice>
        <type>quarter</type>
        <stem>down</stem>
      </note>
    </measure>
    <!--========================= Measure 0 ==========================-->
    <measure number="0" width="252.14">
      <note default-x="95.96" default-y="-431.01">
        <pitch>
          <step>B</step>
          <octave>4</octave>
        </pitch>
        <duration>15120</duration>
        <voice>2</voice>
        <type>quarter</type>
        <dot />
        <stem>up</stem>
        <notations>
          <slur number="1" placement="above" type="start" />
        </notations>
      </note>
      <note default-x="153.1" default-y="-436.01">
        <pitch>
          <step>A</step>
          <octave>4</octave>
        </pitch>
        <duration>5040</duration>
        <voice>2</voice>
        <type>eighth</type>
        <stem>up</stem>
        <notations>
          <slur number="1" type="stop" />
        </notations>
      </note>
      <note default-x="185.76" default-y="-436.01">
        <pitch>
          <step>A</step>
          <octave>4</octave>
        </pitch>
        <duration>20160</duration>
        <voice>2</voice>
        <type>half</type>
        <stem>down</stem>
      </note>
    </measure>
    <!--========================= Measure 0 ==========================-->
    <measure number="0" width="251.33">
      <note default-x="23.58" default-y="-441.01">
        <pitch>
          <step>G</step>
          <octave>4</octave>
        </pitch>
        <duration>15120</duration>
        <voice>2</voice>
        <type>quarter</type>
        <dot />
        <stem>down</stem>
      </note>
      <note default-x="88.93" default-y="-441.01">
        <pitch>
          <step>G</step>
          <octave>4</octave>
        </pitch>
        <duration>5040</duration>
        <voice>2</voice>
        <type>eighth</type>
        <stem>down</stem>
      </note>
      <note default-x="142.54" default-y="-436.01">
        <pitch>
          <step>A</step>
          <octave>4</octave>
        </pitch>
        <duration>10080</duration>
        <voice>2</voice>
        <type>quarter</type>
        <stem>down</stem>
      </note>
      <note default-x="196.13" default-y="-441.01">
        <pitch>
          <step>G</step>
          <octave>4</octave>
        </pitch>
        <duration>10080</duration>
        <voice>2</voice>
        <type>quarter</type>
        <stem>down</stem>
      </note>
    </measure>
    <!--========================= Measure 0 ==========================-->
    <measure number="0" width="173.95">
      <note default-x="33.09" default-y="-441.01">
        <pitch>
          <step>G</step>
          <octave>4</octave>
        </pitch>
        <duration>20160</duration>
        <voice>2</voice>
        <type>half</type>
        <stem>down</stem>
      </note>
      <note default-x="102.54" default-y="-446.01">
        <pitch>
          <step>F</step>
          <alter>1</alter>
          <octave>4</octave>
        </pitch>
        <duration>20160</duration>
        <voice>2</voice>
        <type>half</type>
        <stem>down</stem>
      </note>
    </measure>
    <!--========================= Measure 0 ==========================-->
    <measure number="0" width="186.37">
      <note default-x="19.56" default-y="-431.01">
        <pitch>
          <step>B</step>
          <octave>4</octave>
        </pitch>
        <duration>20160</duration>
        <voice>2</voice>
        <type>half</type>
        <stem>down</stem>
      </note>
      <note default-x="93.19" default-y="-441.01">
        <pitch>
          <step>G</step>
          <octave>4</octave>
        </pitch>
        <duration>10080</duration>
        <voice>2</voice>
        <type>quarter</type>
        <stem>down</stem>
      </note>
      <note default-x="138.98" default-y="-441.01">
        <pitch>
          <step>G</step>
          <octave>4</octave>
        </pitch>
        <duration>10080</duration>
        <voice>2</voice>
        <type>quarter</type>
        <stem>down</stem>
      </note>
    </measure>
    <!--========================= Measure 0 ==========================-->
    <measure number="0" width="160.15">
      <note default-x="31.2" default-y="-426.01">
        <pitch>
          <step>C</step>
          <octave>5</octave>
        </pitch>
        <duration>15120</duration>
        <voice>2</voice>
        <type>quarter</type>
        <dot />
        <stem>up</stem>
        <notations>
          <slur number="2" placement="above" type="start" />
        </notations>
      </note>
      <note default-x="77.53" default-y="-431.01">
        <pitch>
          <step>B</step>
          <octave>4</octave>
        </pitch>
        <duration>5040</duration>
        <voice>2</voice>
        <type>eighth</type>
        <stem>up</stem>
        <notations>
          <slur number="2" type="stop" />
        </notations>
      </note>
      <note default-x="105.94" default-y="-436.01">
        <pitch>
          <step>A</step>
          <octave>4</octave>
        </pitch>
        <duration>20160</duration>
        <voice>2</voice>
        <type>half</type>
        <stem>up</stem>
      </note>
    </measure>
    <!--========================= Measure 0 ==========================-->
    <measure number="0" width="374.12">
      <note default-x="82.39" default-y="-425.13">
        <pitch>
          <step>B</step>
          <octave>4</octave>
        </pitch>
        <duration>15120</duration>
        <voice>2</voice>
        <type>quarter</type>
        <dot />
        <stem>down</stem>
      </note>
      <note default-x="167.01" default-y="-425.13">
        <pitch>
          <step>B</step>
          <octave>4</octave>
        </pitch>
        <duration>5040</duration>
        <voice>2</voice>
        <type>eighth</type>
        <stem>down</stem>
      </note>
      <note default-x="233.73" default-y="-430.13">
        <pitch>
          <step>A</step>
          <octave>4</octave>
        </pitch>
        <duration>10080</duration>
        <voice>2</voice>
        <type>quarter</type>
        <stem>down</stem>
      </note>
      <note default-x="303.13" default-y="-435.13">
        <pitch>
          <step>G</step>
          <octave>4</octave>
        </pitch>
        <duration>10080</duration>
        <voice>2</voice>
        <type>quarter</type>
        <stem>down</stem>
      </note>
    </measure>
    <!--========================= Measure 0 ==========================-->
    <measure number="0" width="197.23">
      <note default-x="22.99" default-y="-440.13">
        <pitch>
          <step>F</step>
          <alter>1</alter>
          <octave>4</octave>
        </pitch>
        <duration>10080</duration>
        <voice>2</voice>
        <type>quarter</type>
        <stem>down</stem>
      </note>
      <note default-x="70.95" default-y="-445.13">
        <pitch>
          <step>E</step>
          <octave>4</octave>
        </pitch>
        <duration>10080</duration>
        <voice>2</voice>
        <type>quarter</type>
        <stem>down</stem>
      </note>
      <note default-x="118.54" default-y="-450.13">
        <pitch>
          <step>D</step>
          <octave>4</octave>
        </pitch>
        <duration>20160</duration>
        <voice>2</voice>
        <type>half</type>
        <stem>up</stem>
      </note>
    </measure>
    <!--========================= Measure 0 ==========================-->
    <measure number="0" width="191.01">
      <note default-x="27.52" default-y="-425.13">
        <pitch>
          <step>B</step>
          <octave>4</octave>
        </pitch>
        <duration>20160</duration>
        <voice>2</voice>
        <type>half</type>
        <stem>down</stem>
      </note>
      <note default-x="99.67" default-y="-435.13">
        <pitch>
          <step>G</step>
          <octave>4</octave>
        </pitch>
        <duration>10080</duration>
        <voice>2</voice>
        <type>quarter</type>
        <stem>down</stem>
      </note>
      <note default-x="144.54" default-y="-430.13">
        <pitch>
          <step>A</step>
          <octave>4</octave>
        </pitch>
        <duration>10080</duration>
        <voice>2</voice>
        <type>quarter</type>
        <stem>down</stem>
      </note>
    </measure>
    <!--========================= Measure 0 ==========================-->
    <measure number="0" width="128.04">
      <note default-x="28.22" default-y="-435.13">
        <pitch>
          <step>G</step>
          <octave>4</octave>
        </pitch>
        <duration>20160</duration>
        <voice>2</voice>
        <type>half</type>
        <stem>up</stem>
        <notations>
          <slur number="5" placement="above" type="start" />
        </notations>
      </note>
      <note default-x="75.67" default-y="-440.13">
        <pitch>
          <step>F</step>
          <alter>1</alter>
          <octave>4</octave>
        </pitch>
        <duration>20160</duration>
        <voice>2</voice>
        <type>half</type>
        <stem>up</stem>
        <notations>
          <slur number="5" type="stop" />
        </notations>
      </note>
    </measure>
    <!--========================= Measure 0 ==========================-->
    <measure number="0" width="133.54">
      <note default-x="21.83" default-y="-435.13">
        <pitch>
          <step>G</step>
          <octave>4</octave>
        </pitch>
        <duration>40320</duration>
        <voice>2</voice>
        <type>whole</type>
      </note>
      <barline location="right">
        <bar-style>light-heavy</bar-style>
      </barline>
    </measure>
  </part>
  <!--=========================== Part 2 ===========================-->
  <part id="P4">
    <!--========================= Measure 0 ==========================-->
    <measure number="0" width="317.09">
      <attributes>
        <divisions>10080</divisions>
        <key>
          <fifths>1</fifths>
          <mode>major</mode>
        </key>
        <time>
          <beats>4</beats>
          <beat-type>4</beat-type>
        </time>
        <clef>
          <sign>G</sign>
          <line>2</line>
        </clef>
      </attributes>
      <note default-x="103.48" default-y="-645">
        <pitch>
          <step>D</step>
          <octave>4</octave>
        </pitch>
        <duration>20160</duration>
        <voice>2</voice>
        <type>half</type>
        <stem>up</stem>
      </note>
      <note default-x="197.91" default-y="-645">
        <pitch>
          <step>D</step>
          <octave>4</octave>
        </pitch>
        <duration>10080</duration>
        <voice>2</voice>
        <type>quarter</type>
        <stem>up</stem>
      </note>
      <note default-x="256.7" default-y="-645">
        <pitch>
          <step>D</step>
          <octave>4</octave>
        </pitch>
        <duration>10080</duration>
        <voice>2</voice>
        <type>quarter</type>
        <stem>up</stem>
      </note>
    </measure>
    <!--========================= Measure 0 ==========================-->
    <measure number="0" width="203.18">
      <note default-x="33.39" default-y="-645">
        <pitch>
          <step>D</step>
          <octave>4</octave>
        </pitch>
        <duration>20160</duration>
        <voice>2</voice>
        <type>half</type>
        <stem>up</stem>
      </note>
      <note default-x="117.31" default-y="-645">
        <pitch>
          <step>D</step>
          <octave>4</octave>
        </pitch>
        <duration>20160</duration>
        <voice>2</voice>
        <type>half</type>
        <stem>up</stem>
      </note>
    </measure>
    <!--========================= Measure 0 ==========================-->
    <measure number="0" width="321.02">
      <note default-x="45.16" default-y="-645">
        <pitch>
          <step>D</step>
          <octave>4</octave>
        </pitch>
        <duration>10080</duration>
        <voice>2</voice>
        <type>quarter</type>
        <stem>up</stem>
      </note>
      <note default-x="113.72" default-y="-645">
        <pitch>
          <step>D</step>
          <alter>1</alter>
          <octave>4</octave>
        </pitch>
        <duration>10080</duration>
        <voice>2</voice>
        <type>quarter</type>
        <accidental>sharp</accidental>
        <stem>up</stem>
      </note>
      <note default-x="182.29" default-y="-640">
        <pitch>
          <step>E</step>
          <octave>4</octave>
        </pitch>
        <duration>10080</duration>
        <voice>2</voice>
        <type>quarter</type>
        <stem>up</stem>
      </note>
      <note default-x="250.86" default-y="-640">
        <pitch>
          <step>E</step>
          <octave>4</octave>
        </pitch>
        <duration>10080</duration>
        <voice>2</voice>
        <type>quarter</type>
        <stem>up</stem>
      </note>
    </measure>
    <!--========================= Measure 0 ==========================-->
    <measure number="0" width="182.64">
      <note default-x="27.16" default-y="-645">
        <pitch>
          <step>D</step>
          <alter>0</alter>
          <octave>4</octave>
        </pitch>
        <duration>20160</duration>
        <voice>2</voice>
        <type>half</type>
        <accidental>natural</accidental>
        <stem>up</stem>
      </note>
      <note default-x="103.92" default-y="-645">
        <pitch>
          <step>D</step>
          <octave>4</octave>
        </pitch>
        <duration>20160</duration>
        <voice>2</voice>
        <type>half</type>
        <stem>up</stem>
      </note>
    </measure>
    <!--========================= Measure 0 ==========================-->
    <measure number="0" width="1023.94">
      <note default-x="82.39" default-y="-645">
        <pitch>
          <step>D</step>
          <octave>4</octave>
        </pitch>
        <duration>20160</duration>
        <voice>2</voice>
        <type>half</type>
        <stem>up</stem>
      </note>
      <note default-x="500.35" default-y="-645">
        <pitch>
          <step>D</step>
          <octave>4</octave>
        </pitch>
        <duration>10080</duration>
        <voice>2</voice>
        <type>quarter</type>
        <stem>up</stem>
      </note>
      <note default-x="761.34" default-y="-645">
        <pitch>
          <step>D</step>
          <octave>4</octave>
        </pitch>
        <duration>10080</duration>
        <voice>2</voice>
        <type>quarter</type>
        <stem>up</stem>
      </note>
    </measure>
    <!--========================= Measure 0 ==========================-->
    <measure number="0" width="252.14">
      <note default-x="95.6" default-y="-656.01">
        <pitch>
          <step>D</step>
          <alter>1</alter>
          <octave>4</octave>
        </pitch>
        <duration>20160</duration>
        <voice>2</voice>
        <type>half</type>
        <accidental>sharp</accidental>
        <stem>down</stem>
      </note>
      <note default-x="185.76" default-y="-656.01">
        <pitch>
          <step>D</step>
          <alter>1</alter>
          <octave>4</octave>
        </pitch>
        <duration>20160</duration>
        <voice>2</voice>
        <type>half</type>
        <stem>up</stem>
      </note>
    </measure>
    <!--========================= Measure 0 ==========================-->
    <measure number="0" width="251.33">
      <note default-x="23.58" default-y="-651.01">
        <pitch>
          <step>E</step>
          <octave>4</octave>
        </pitch>
        <duration>15120</duration>
        <voice>2</voice>
        <type>quarter</type>
        <dot />
        <stem>up</stem>
      </note>
      <note default-x="88.93" default-y="-651.01">
        <pitch>
          <step>E</step>
          <octave>4</octave>
        </pitch>
        <duration>5040</duration>
        <voice>2</voice>
        <type>eighth</type>
        <stem>up</stem>
      </note>
      <note default-x="142.54" default-y="-651.01">
        <pitch>
          <step>E</step>
          <octave>4</octave>
        </pitch>
        <duration>10080</duration>
        <voice>2</voice>
        <type>quarter</type>
        <stem>up</stem>
      </note>
      <note default-x="196.13" default-y="-651.01">
        <pitch>
          <step>E</step>
          <octave>4</octave>
        </pitch>
        <duration>10080</duration>
        <voice>2</voice>
        <type>quarter</type>
        <stem>up</stem>
      </note>
    </measure>
    <!--========================= Measure 0 ==========================-->
    <measure number="0" width="173.95">
      <note default-x="33.09" default-y="-651.01">
        <pitch>
          <step>E</step>
          <octave>4</octave>
        </pitch>
        <duration>20160</duration>
        <voice>2</voice>
        <type>half</type>
        <stem>up</stem>
      </note>
      <note default-x="102.54" default-y="-656.01">
        <pitch>
          <step>D</step>
          <alter>1</alter>
          <octave>4</octave>
        </pitch>
        <duration>20160</duration>
        <voice>2</voice>
        <type>half</type>
        <accidental>sharp</accidental>
        <stem>up</stem>
      </note>
    </measure>
    <!--========================= Measure 0 ==========================-->
    <measure number="0" width="186.37">
      <note default-x="19.56" default-y="-656.01">
        <pitch>
          <step>D</step>
          <alter>0</alter>
          <octave>4</octave>
        </pitch>
        <duration>20160</duration>
        <voice>2</voice>
        <type>half</type>
        <accidental>natural</accidental>
        <stem>up</stem>
      </note>
      <note default-x="93.19" default-y="-656.01">
        <pitch>
          <step>D</step>
          <octave>4</octave>
        </pitch>
        <duration>10080</duration>
        <voice>2</voice>
        <type>quarter</type>
        <stem>up</stem>
      </note>
      <note default-x="138.98" default-y="-656.01">
        <pitch>
          <step>D</step>
          <octave>4</octave>
        </pitch>
        <duration>10080</duration>
        <voice>2</voice>
        <type>quarter</type>
        <stem>up</stem>
      </note>
    </measure>
    <!--========================= Measure 0 ==========================-->
    <measure number="0" width="160.15">
      <note default-x="30.84" default-y="-656.01">
        <pitch>
          <step>D</step>
          <octave>4</octave>
        </pitch>
        <duration>20160</duration>
        <voice>2</voice>
        <type>half</type>
        <stem>down</stem>
      </note>
      <note default-x="105.94" default-y="-656.01">
        <pitch>
          <step>D</step>
          <octave>4</octave>
        </pitch>
        <duration>20160</duration>
        <voice>2</voice>
        <type>half</type>
        <stem>down</stem>
      </note>
    </measure>
    <!--========================= Measure 0 ==========================-->
    <measure number="0" width="374.12">
      <note default-x="82.39" default-y="-650.13">
        <pitch>
          <step>D</step>
          <octave>4</octave>
        </pitch>
        <duration>15120</duration>
        <voice>2</voice>
        <type>quarter</type>
        <dot />
        <stem>up</stem>
      </note>
      <note default-x="167.01" default-y="-650.13">
        <pitch>
          <step>D</step>
          <octave>4</octave>
        </pitch>
        <duration>5040</duration>
        <voice>2</voice>
        <type>eighth</type>
        <stem>up</stem>
      </note>
      <note default-x="233.73" default-y="-655.13">
        <pitch>
          <step>C</step>
          <alter>1</alter>
          <octave>4</octave>
        </pitch>
        <duration>10080</duration>
        <voice>2</voice>
        <type>quarter</type>
        <accidental>sharp</accidental>
        <stem>up</stem>
      </note>
      <note default-x="303.13" default-y="-655.13">
        <pitch>
          <step>C</step>
          <alter>1</alter>
          <octave>4</octave>
        </pitch>
        <duration>10080</duration>
        <voice>2</voice>
        <type>quarter</type>
        <stem>up</stem>
      </note>
    </measure>
    <!--========================= Measure 0 ==========================-->
    <measure number="0" width="197.23">
      <note default-x="22.99" default-y="-650.13">
        <pitch>
          <step>D</step>
          <octave>4</octave>
        </pitch>
        <duration>10080</duration>
        <voice>2</voice>
        <type>quarter</type>
        <stem>up</stem>
        <notations>
          <slur number="2" placement="above" type="start" />
          <slur number="3" placement="above" type="start" />
        </notations>
      </note>
      <note default-x="70.95" default-y="-655.13">
        <pitch>
          <step>C</step>
          <alter>1</alter>
          <octave>4</octave>
        </pitch>
        <duration>10080</duration>
        <voice>2</voice>
        <type>quarter</type>
        <accidental>sharp</accidental>
        <stem>up</stem>
        <notations>
          <slur number="2" type="stop" />
          <slur number="3" type="stop" />
        </notations>
      </note>
      <note default-x="118.54" default-y="-650.13">
        <pitch>
          <step>D</step>
          <octave>4</octave>
        </pitch>
        <duration>20160</duration>
        <voice>2</voice>
        <type>half</type>
        <stem>down</stem>
      </note>
    </measure>
    <!--========================= Measure 0 ==========================-->
    <measure number="0" width="191.01">
      <note default-x="27.52" default-y="-650.13">
        <pitch>
          <step>D</step>
          <octave>4</octave>
        </pitch>
        <duration>20160</duration>
        <voice>2</voice>
        <type>half</type>
        <stem>up</stem>
      </note>
      <note default-x="99.67" default-y="-645.13">
        <pitch>
          <step>E</step>
          <octave>4</octave>
        </pitch>
        <duration>10080</duration>
        <voice>2</voice>
        <type>quarter</type>
        <stem>up</stem>
      </note>
      <note default-x="144.54" default-y="-645.13">
        <pitch>
          <step>E</step>
          <octave>4</octave>
        </pitch>
        <duration>10080</duration>
        <voice>2</voice>
        <type>quarter</type>
        <stem>up</stem>
      </note>
    </measure>
    <!--========================= Measure 0 ==========================-->
    <measure number="0" width="128.04">
      <note default-x="22.3" default-y="-650.13">
        <pitch>
          <step>D</step>
          <octave>4</octave>
        </pitch>
        <duration>40320</duration>
        <voice>2</voice>
        <type>whole</type>
      </note>
    </measure>
    <!--========================= Measure 0 ==========================-->
    <measure number="0" width="133.54">
      <note default-x="21.83" default-y="-650.13">
        <pitch>
          <step>D</step>
          <octave>4</octave>
        </pitch>
        <duration>40320</duration>
        <voice>2</voice>
        <type>whole</type>
      </note>
      <barline location="right">
        <bar-style>light-heavy</bar-style>
      </barline>
    </measure>
  </part>
  <!--=========================== Part 3 ===========================-->
  <part id="P5">
    <!--========================= Measure 0 ==========================-->
    <measure number="0" width="317.09">
      <attributes>
        <divisions>10080</divisions>
        <key>
          <fifths>1</fifths>
          <mode>major</mode>
        </key>
        <time>
          <beats>4</beats>
          <beat-type>4</beat-type>
        </time>
        <clef>
          <sign>F</sign>
          <line>4</line>
        </clef>
      </attributes>
      <note default-x="103.48" default-y="-795">
        <pitch>
          <step>B</step>
          <octave>3</octave>
        </pitch>
        <duration>20160</duration>
        <voice>2</voice>
        <type>half</type>
        <stem>down</stem>
      </note>
      <note default-x="197.91" default-y="-795">
        <pitch>
          <step>B</step>
          <octave>3</octave>
        </pitch>
        <duration>10080</duration>
        <voice>2</voice>
        <type>quarter</type>
        <stem>down</stem>
      </note>
      <note default-x="256.7" default-y="-795">
        <pitch>
          <step>B</step>
          <octave>3</octave>
        </pitch>
        <duration>10080</duration>
        <voice>2</voice>
        <type>quarter</type>
        <stem>down</stem>
      </note>
    </measure>
    <!--========================= Measure 0 ==========================-->
    <measure number="0" width="203.18">
      <note default-x="33.39" default-y="-790">
        <pitch>
          <step>C</step>
          <octave>4</octave>
        </pitch>
        <duration>20160</duration>
        <voice>2</voice>
        <type>half</type>
        <stem>down</stem>
      </note>
      <note default-x="117.31" default-y="-790">
        <pitch>
          <step>C</step>
          <octave>4</octave>
        </pitch>
        <duration>20160</duration>
        <voice>2</voice>
        <type>half</type>
        <stem>down</stem>
      </note>
    </measure>
    <!--========================= Measure 0 ==========================-->
    <measure number="0" width="321.02">
      <note default-x="45.16" default-y="-795">
        <pitch>
          <step>B</step>
          <octave>3</octave>
        </pitch>
        <duration>10080</duration>
        <voice>2</voice>
        <type>quarter</type>
        <stem>down</stem>
      </note>
      <note default-x="113.72" default-y="-795">
        <pitch>
          <step>B</step>
          <octave>3</octave>
        </pitch>
        <duration>10080</duration>
        <voice>2</voice>
        <type>quarter</type>
        <stem>down</stem>
      </note>
      <note default-x="182.29" default-y="-790">
        <pitch>
          <step>C</step>
          <octave>4</octave>
        </pitch>
        <duration>10080</duration>
        <voice>2</voice>
        <type>quarter</type>
        <stem>down</stem>
      </note>
      <note default-x="250.86" default-y="-790">
        <pitch>
          <step>C</step>
          <octave>4</octave>
        </pitch>
        <duration>10080</duration>
        <voice>2</voice>
        <type>quarter</type>
        <stem>down</stem>
      </note>
    </measure>
    <!--========================= Measure 0 ==========================-->
    <measure number="0" width="182.64">
      <note default-x="27.16" default-y="-795">
        <pitch>
          <step>B</step>
          <octave>3</octave>
        </pitch>
        <duration>20160</duration>
        <voice>2</voice>
        <type>half</type>
        <stem>down</stem>
      </note>
      <note default-x="103.92" default-y="-800">
        <pitch>
          <step>A</step>
          <octave>3</octave>
        </pitch>
        <duration>20160</duration>
        <voice>2</voice>
        <type>half</type>
        <stem>down</stem>
      </note>
    </measure>
    <!--========================= Measure 0 ==========================-->
    <measure number="0" width="1023.94">
      <note default-x="82.39" default-y="-805">
        <pitch>
          <step>G</step>
          <octave>3</octave>
        </pitch>
        <duration>20160</duration>
        <voice>2</voice>
        <type>half</type>
        <stem>up</stem>
      </note>
      <note default-x="500.35" default-y="-805">
        <pitch>
          <step>G</step>
          <octave>3</octave>
        </pitch>
        <duration>10080</duration>
        <voice>2</voice>
        <type>quarter</type>
        <stem>up</stem>
      </note>
      <note default-x="761.34" default-y="-805">
        <pitch>
          <step>G</step>
          <octave>3</octave>
        </pitch>
        <duration>10080</duration>
        <voice>2</voice>
        <type>quarter</type>
        <stem>up</stem>
      </note>
    </measure>
    <!--========================= Measure 0 ==========================-->
    <measure number="0" width="252.14">
      <note default-x="95.6" default-y="-806.01">
        <pitch>
          <step>B</step>
          <octave>3</octave>
        </pitch>
        <duration>20160</duration>
        <voice>2</voice>
        <type>half</type>
        <stem>down</stem>
      </note>
      <note default-x="185.76" default-y="-806.01">
        <pitch>
          <step>B</step>
          <octave>3</octave>
        </pitch>
        <duration>20160</duration>
        <voice>2</voice>
        <type>half</type>
        <stem>down</stem>
      </note>
    </measure>
    <!--========================= Measure 0 ==========================-->
    <measure number="0" width="251.33">
      <note default-x="23.58" default-y="-806.01">
        <pitch>
          <step>B</step>
          <octave>3</octave>
        </pitch>
        <duration>15120</duration>
        <voice>2</voice>
        <type>quarter</type>
        <dot />
        <stem>down</stem>
      </note>
      <note default-x="88.93" default-y="-806.01">
        <pitch>
          <step>B</step>
          <octave>3</octave>
        </pitch>
        <duration>5040</duration>
        <voice>2</voice>
        <type>eighth</type>
        <stem>down</stem>
      </note>
      <note default-x="142.54" default-y="-801.01">
        <pitch>
          <step>C</step>
          <octave>4</octave>
        </pitch>
        <duration>10080</duration>
        <voice>2</voice>
        <type>quarter</type>
        <stem>down</stem>
      </note>
      <note default-x="196.13" default-y="-806.01">
        <pitch>
          <step>B</step>
          <octave>3</octave>
        </pitch>
        <duration>10080</duration>
        <voice>2</voice>
        <type>quarter</type>
        <stem>down</stem>
      </note>
    </measure>
    <!--========================= Measure 0 ==========================-->
    <measure number="0" width="173.95">
      <note default-x="33.09" default-y="-806.01">
        <pitch>
          <step>B</step>
          <octave>3</octave>
        </pitch>
        <duration>20160</duration>
        <voice>2</voice>
        <type>half</type>
        <stem>down</stem>
      </note>
      <note default-x="102.54" default-y="-806.01">
        <pitch>
          <step>B</step>
          <octave>3</octave>
        </pitch>
        <duration>20160</duration>
        <voice>2</voice>
        <type>half</type>
        <stem>down</stem>
      </note>
    </measure>
    <!--========================= Measure 0 ==========================-->
    <measure number="0" width="186.37">
      <note default-x="19.56" default-y="-816.01">
        <pitch>
          <step>G</step>
          <octave>3</octave>
        </pitch>
        <duration>20160</duration>
        <voice>2</voice>
        <type>half</type>
        <stem>up</stem>
      </note>
      <note default-x="93.19" default-y="-806.01">
        <pitch>
          <step>B</step>
          <octave>3</octave>
        </pitch>
        <duration>10080</duration>
        <voice>2</voice>
        <type>quarter</type>
        <stem>down</stem>
      </note>
      <note default-x="138.98" default-y="-806.01">
        <pitch>
          <step>B</step>
          <octave>3</octave>
        </pitch>
        <duration>10080</duration>
        <voice>2</voice>
        <type>quarter</type>
        <stem>down</stem>
      </note>
    </measure>
    <!--========================= Measure 0 ==========================-->
    <measure number="0" width="160.15">
      <note default-x="30.84" default-y="-811.01">
        <pitch>
          <step>A</step>
          <octave>3</octave>
        </pitch>
        <duration>20160</duration>
        <voice>2</voice>
        <type>half</type>
        <stem>down</stem>
      </note>
      <note default-x="105.94" default-y="-811.01">
        <pitch>
          <step>A</step>
          <octave>3</octave>
        </pitch>
        <duration>20160</duration>
        <voice>2</voice>
        <type>half</type>
        <stem>down</stem>
      </note>
    </measure>
    <!--========================= Measure 0 ==========================-->
    <measure number="0" width="374.12">
      <note default-x="82.39" default-y="-810.13">
        <pitch>
          <step>G</step>
          <octave>3</octave>
        </pitch>
        <duration>15120</duration>
        <voice>2</voice>
        <type>quarter</type>
        <dot />
        <stem>up</stem>
      </note>
      <note default-x="167.01" default-y="-810.13">
        <pitch>
          <step>G</step>
          <octave>3</octave>
        </pitch>
        <duration>5040</duration>
        <voice>2</voice>
        <type>eighth</type>
        <stem>up</stem>
      </note>
      <note default-x="233.73" default-y="-805.13">
        <pitch>
          <step>A</step>
          <octave>3</octave>
        </pitch>
        <duration>10080</duration>
        <voice>2</voice>
        <type>quarter</type>
        <stem>down</stem>
      </note>
      <note default-x="303.13" default-y="-805.13">
        <pitch>
          <step>A</step>
          <octave>3</octave>
        </pitch>
        <duration>10080</duration>
        <voice>2</voice>
        <type>quarter</type>
        <stem>down</stem>
      </note>
    </measure>
    <!--========================= Measure 0 ==========================-->
    <measure number="0" width="197.23">
      <note default-x="22.99" default-y="-805.13">
        <pitch>
          <step>A</step>
          <octave>3</octave>
        </pitch>
        <duration>10080</duration>
        <voice>2</voice>
        <type>quarter</type>
        <stem>up</stem>
        <notations>
          <slur number="5" placement="above" type="start" />
        </notations>
      </note>
      <note default-x="70.95" default-y="-810.13">
        <pitch>
          <step>G</step>
          <octave>3</octave>
        </pitch>
        <duration>10080</duration>
        <voice>2</voice>
        <type>quarter</type>
        <stem>up</stem>
        <notations>
          <slur number="5" type="stop" />
        </notations>
      </note>
      <note default-x="118.54" default-y="-815.13">
        <pitch>
          <step>F</step>
          <alter>1</alter>
          <octave>3</octave>
        </pitch>
        <duration>20160</duration>
        <voice>2</voice>
        <type>half</type>
        <stem>down</stem>
      </note>
    </measure>
    <!--========================= Measure 0 ==========================-->
    <measure number="0" width="191.01">
      <note default-x="27.52" default-y="-810.13">
        <pitch>
          <step>G</step>
          <octave>3</octave>
        </pitch>
        <duration>20160</duration>
        <voice>2</voice>
        <type>half</type>
        <stem>up</stem>
      </note>
      <note default-x="99.67" default-y="-800.13">
        <pitch>
          <step>B</step>
          <octave>3</octave>
        </pitch>
        <duration>10080</duration>
        <voice>2</voice>
        <type>quarter</type>
        <stem>down</stem>
      </note>
      <note default-x="144.54" default-y="-795.13">
        <pitch>
          <step>C</step>
          <octave>4</octave>
        </pitch>
        <duration>10080</duration>
        <voice>2</voice>
        <type>quarter</type>
        <stem>down</stem>
      </note>
    </measure>
    <!--========================= Measure 0 ==========================-->
    <measure number="0" width="128.04">
      <note default-x="28.22" default-y="-800.13">
        <pitch>
          <step>B</step>
          <octave>3</octave>
        </pitch>
        <duration>20160</duration>
        <voice>2</voice>
        <type>half</type>
        <stem>up</stem>
        <notations>
          <slur number="6" placement="above" type="start" />
        </notations>
      </note>
      <note default-x="75.67" default-y="-805.13">
        <pitch>
          <step>A</step>
          <octave>3</octave>
        </pitch>
        <duration>20160</duration>
        <voice>2</voice>
        <type>half</type>
        <stem>up</stem>
        <notations>
          <slur number="6" type="stop" />
        </notations>
      </note>
    </measure>
    <!--========================= Measure 0 ==========================-->
    <measure number="0" width="133.54">
      <note default-x="21.83" default-y="-800.13">
        <pitch>
          <step>B</step>
          <octave>3</octave>
        </pitch>
        <duration>40320</duration>
        <voice>2</voice>
        <type>whole</type>
      </note>
      <barline location="right">
        <bar-style>light-heavy</bar-style>
      </barline>
    </measure>
  </part>
  <!--=========================== Part 4 ===========================-->
  <part id="P6">
    <!--========================= Measure 0 ==========================-->
    <measure number="0" width="317.09">
      <attributes>
        <divisions>10080</divisions>
        <key>
          <fifths>1</fifths>
          <mode>major</mode>
        </key>
        <time>
          <beats>4</beats>
          <beat-type>4</beat-type>
        </time>
        <clef>
          <sign>F</sign>
          <line>4</line>
        </clef>
      </attributes>
      <note default-x="103.48" default-y="-1005">
        <pitch>
          <step>G</step>
          <octave>3</octave>
        </pitch>
        <duration>20160</duration>
        <voice>2</voice>
        <type>half</type>
        <stem>down</stem>
      </note>
      <note default-x="197.91" default-y="-1005">
        <pitch>
          <step>G</step>
          <octave>3</octave>
        </pitch>
        <duration>10080</duration>
        <voice>2</voice>
        <type>quarter</type>
        <stem>down</stem>
      </note>
      <note default-x="256.7" default-y="-1005">
        <pitch>
          <step>G</step>
          <octave>3</octave>
        </pitch>
        <duration>10080</duration>
        <voice>2</voice>
        <type>quarter</type>
        <stem>down</stem>
      </note>
    </measure>
    <!--========================= Measure 0 ==========================-->
    <measure number="0" width="203.18">
      <note default-x="33.39" default-y="-1010">
        <pitch>
          <step>F</step>
          <alter>1</alter>
          <octave>3</octave>
        </pitch>
        <duration>20160</duration>
        <voice>2</voice>
        <type>half</type>
        <stem>down</stem>
      </note>
      <note default-x="117.31" default-y="-1010">
        <pitch>
          <step>F</step>
          <alter>1</alter>
          <octave>3</octave>
        </pitch>
        <duration>20160</duration>
        <voice>2</voice>
        <type>half</type>
        <stem>down</stem>
      </note>
    </measure>
    <!--========================= Measure 0 ==========================-->
    <measure number="0" width="321.02">
      <note default-x="45.16" default-y="-1005">
        <pitch>
          <step>G</step>
          <octave>3</octave>
        </pitch>
        <duration>10080</duration>
        <voice>2</voice>
        <type>quarter</type>
        <stem>down</stem>
      </note>
      <note default-x="113.72" default-y="-1005">
        <pitch>
          <step>G</step>
          <octave>3</octave>
        </pitch>
        <duration>10080</duration>
        <voice>2</voice>
        <type>quarter</type>
        <stem>down</stem>
      </note>
      <note default-x="182.29" default-y="-1025">
        <pitch>
          <step>C</step>
          <octave>3</octave>
        </pitch>
        <duration>10080</duration>
        <voice>2</voice>
        <type>quarter</type>
        <stem>down</stem>
      </note>
      <note default-x="250.86" default-y="-1025">
        <pitch>
          <step>C</step>
          <octave>3</octave>
        </pitch>
        <duration>10080</duration>
        <voice>2</voice>
        <type>quarter</type>
        <stem>down</stem>
      </note>
    </measure>
    <!--========================= Measure 0 ==========================-->
    <measure number="0" width="182.64">
      <note default-x="27.16" default-y="-1020">
        <pitch>
          <step>D</step>
          <octave>3</octave>
        </pitch>
        <duration>20160</duration>
        <voice>2</voice>
        <type>half</type>
        <stem>down</stem>
      </note>
      <note default-x="103.92" default-y="-1020">
        <pitch>
          <step>D</step>
          <octave>3</octave>
        </pitch>
        <duration>20160</duration>
        <voice>2</voice>
        <type>half</type>
        <stem>down</stem>
      </note>
    </measure>
    <!--========================= Measure 0 ==========================-->
    <measure number="0" width="1023.94">
      <note default-x="82.39" default-y="-1005">
        <pitch>
          <step>G</step>
          <octave>3</octave>
        </pitch>
        <duration>20160</duration>
        <voice>2</voice>
        <type>half</type>
        <stem>down</stem>
      </note>
      <note default-x="500.35" default-y="-1005">
        <pitch>
          <step>G</step>
          <octave>3</octave>
        </pitch>
        <duration>10080</duration>
        <voice>2</voice>
        <type>quarter</type>
        <stem>down</stem>
      </note>
      <note default-x="761.34" default-y="-1005">
        <pitch>
          <step>G</step>
          <octave>3</octave>
        </pitch>
        <duration>10080</duration>
        <voice>2</voice>
        <type>quarter</type>
        <stem>down</stem>
      </note>
    </measure>
    <!--========================= Measure 0 ==========================-->
    <measure number="0" width="252.14">
      <note default-x="95.6" default-y="-1021.01">
        <pitch>
          <step>F</step>
          <alter>1</alter>
          <octave>3</octave>
        </pitch>
        <duration>20160</duration>
        <voice>2</voice>
        <type>half</type>
        <stem>down</stem>
      </note>
      <note default-x="185.76" default-y="-1021.01">
        <pitch>
          <step>F</step>
          <alter>1</alter>
          <octave>3</octave>
        </pitch>
        <duration>20160</duration>
        <voice>2</voice>
        <type>half</type>
        <stem>down</stem>
      </note>
    </measure>
    <!--========================= Measure 0 ==========================-->
    <measure number="0" width="251.33">
      <note default-x="23.58" default-y="-1026.01">
        <pitch>
          <step>E</step>
          <octave>3</octave>
        </pitch>
        <duration>15120</duration>
        <voice>2</voice>
        <type>quarter</type>
        <dot />
        <stem>down</stem>
      </note>
      <note default-x="88.93" default-y="-1026.01">
        <pitch>
          <step>E</step>
          <octave>3</octave>
        </pitch>
        <duration>5040</duration>
        <voice>2</voice>
        <type>eighth</type>
        <stem>down</stem>
      </note>
      <note default-x="142.54" default-y="-1026.01">
        <pitch>
          <step>E</step>
          <octave>3</octave>
        </pitch>
        <duration>10080</duration>
        <voice>2</voice>
        <type>quarter</type>
        <stem>down</stem>
      </note>
      <note default-x="196.13" default-y="-1026.01">
        <pitch>
          <step>E</step>
          <octave>3</octave>
        </pitch>
        <duration>10080</duration>
        <voice>2</voice>
        <type>quarter</type>
        <stem>down</stem>
      </note>
    </measure>
    <!--========================= Measure 0 ==========================-->
    <measure number="0" width="173.95">
      <note default-x="33.09" default-y="-1041.01">
        <pitch>
          <step>B</step>
          <octave>2</octave>
        </pitch>
        <duration>20160</duration>
        <voice>2</voice>
        <type>half</type>
        <stem>down</stem>
      </note>
      <note default-x="102.54" default-y="-1041.01">
        <pitch>
          <step>B</step>
          <octave>2</octave>
        </pitch>
        <duration>20160</duration>
        <voice>2</voice>
        <type>half</type>
        <stem>down</stem>
      </note>
    </measure>
    <!--========================= Measure 0 ==========================-->
    <measure number="0" width="186.37">
      <note default-x="19.56" default-y="-1016.01">
        <pitch>
          <step>G</step>
          <octave>3</octave>
        </pitch>
        <duration>20160</duration>
        <voice>2</voice>
        <type>half</type>
        <stem>down</stem>
      </note>
      <note default-x="93.19" default-y="-1016.01">
        <pitch>
          <step>G</step>
          <octave>3</octave>
        </pitch>
        <duration>10080</duration>
        <voice>2</voice>
        <type>quarter</type>
        <stem>down</stem>
      </note>
      <note default-x="138.98" default-y="-1016.01">
        <pitch>
          <step>G</step>
          <octave>3</octave>
        </pitch>
        <duration>10080</duration>
        <voice>2</voice>
        <type>quarter</type>
        <stem>down</stem>
      </note>
    </measure>
    <!--========================= Measure 0 ==========================-->
    <measure number="0" width="160.15">
      <note default-x="30.84" default-y="-1021.01">
        <pitch>
          <step>F</step>
          <alter>1</alter>
          <octave>3</octave>
        </pitch>
        <duration>20160</duration>
        <voice>2</voice>
        <type>half</type>
        <stem>down</stem>
      </note>
      <note default-x="105.94" default-y="-1021.01">
        <pitch>
          <step>F</step>
          <alter>1</alter>
          <octave>3</octave>
        </pitch>
        <duration>20160</duration>
        <voice>2</voice>
        <type>half</type>
        <stem>down</stem>
      </note>
    </measure>
    <!--========================= Measure 0 ==========================-->
    <measure number="0" width="374.12">
      <note default-x="82.39" default-y="-1010.13">
        <pitch>
          <step>G</step>
          <octave>3</octave>
        </pitch>
        <duration>15120</duration>
        <voice>2</voice>
        <type>quarter</type>
        <dot />
        <stem>down</stem>
      </note>
      <note default-x="167.01" default-y="-1010.13">
        <pitch>
          <step>G</step>
          <octave>3</octave>
        </pitch>
        <duration>5040</duration>
        <voice>2</voice>
        <type>eighth</type>
        <stem>down</stem>
      </note>
      <note default-x="233.73" default-y="-1020.13">
        <pitch>
          <step>E</step>
          <octave>3</octave>
        </pitch>
        <duration>10080</duration>
        <voice>2</voice>
        <type>quarter</type>
        <stem>down</stem>
      </note>
      <note default-x="303.13" default-y="-1020.13">
        <pitch>
          <step>E</step>
          <octave>3</octave>
        </pitch>
        <duration>10080</duration>
        <voice>2</voice>
        <type>quarter</type>
        <stem>down</stem>
      </note>
    </measure>
    <!--========================= Measure 0 ==========================-->
    <measure number="0" width="197.23">
      <note default-x="22.63" default-y="-1025.13">
        <pitch>
          <step>D</step>
          <octave>3</octave>
        </pitch>
        <duration>20160</duration>
        <voice>2</voice>
        <type>half</type>
        <stem>down</stem>
      </note>
      <note default-x="118.54" default-y="-1025.13">
        <pitch>
          <step>D</step>
          <octave>3</octave>
        </pitch>
        <duration>20160</duration>
        <voice>2</voice>
        <type>half</type>
        <stem>down</stem>
      </note>
    </measure>
    <!--========================= Measure 0 ==========================-->
    <measure number="0" width="191.01">
      <note default-x="27.52" default-y="-1010.13">
        <pitch>
          <step>G</step>
          <octave>3</octave>
        </pitch>
        <duration>20160</duration>
        <voice>2</voice>
        <type>half</type>
        <stem>down</stem>
      </note>
      <note default-x="99.67" default-y="-1020.13">
        <pitch>
          <step>E</step>
          <octave>3</octave>
        </pitch>
        <duration>10080</duration>
        <voice>2</voice>
        <type>quarter</type>
        <stem>down</stem>
      </note>
      <note default-x="144.54" default-y="-1030.13">
        <pitch>
          <step>C</step>
          <octave>3</octave>
        </pitch>
        <duration>10080</duration>
        <voice>2</voice>
        <type>quarter</type>
        <stem>down</stem>
      </note>
    </measure>
    <!--========================= Measure 0 ==========================-->
    <measure number="0" width="128.04">
      <note default-x="22.3" default-y="-1025.13">
        <pitch>
          <step>D</step>
          <octave>3</octave>
        </pitch>
        <duration>40320</duration>
        <voice>2</voice>
        <type>whole</type>
      </note>
    </measure>
    <!--========================= Measure 0 ==========================-->
    <measure number="0" width="133.54">
      <note>
        <pitch>
          <step>G</step>
          <octave>2</octave>
        </pitch>
        <duration>40320</duration>
        <voice>2</voice>
        <type size="cue">whole</type>
      </note>
      <note>
        <chord />
        <pitch>
          <step>G</step>
          <octave>3</octave>
        </pitch>
        <duration>40320</duration>
        <voice>2</voice>
        <type>whole</type>
      </note>
      <barline location="right">
        <bar-style>light-heavy</bar-style>
      </barline>
    </measure>
  </part>
</score-partwise>
