<?xml version="1.0" encoding="utf-8"?>
<!DOCTYPE score-partwise  PUBLIC "-//Recordare//DTD MusicXML 3.0 Partwise//EN" "http://www.musicxml.org/dtds/partwise.dtd">
<score-partwise version="3.0">
  <work>
    <work-title>truth-eternal.musicxml</work-title>
  </work>
  <movement-title>truth-eternal.musicxml</movement-title>
  <identification>
    <creator type="composer">Music21</creator>
    <encoding>
      <encoding-date>2020-07-30</encoding-date>
      <software>music21 v.5.7.2</software>
      <software>MuseScore 3.4.2</software>
    </encoding>
  </identification>
  <defaults>
    <scaling>
      <millimeters>7.4223</millimeters>
      <tenths>40</tenths>
    </scaling>
    <page-layout>
      <page-height>1600.58</page-height>
      <page-width>1131.72</page-width>
      <page-margins>
        <left-margin>53.8917</left-margin>
        <right-margin>53.8917</right-margin>
        <top-margin>53.8917</top-margin>
        <bottom-margin>107.783</bottom-margin>
      </page-margins>
    </page-layout>
    <word-font font-family="FreeSerif" font-size="10" />
    <lyric-font font-family="Palatino ldsLat Condensed" font-size="10.69" />
  </defaults>
  <part-list>
    <score-part id="P3">
      <part-name print-object="no">Soprano</part-name>
      <score-instrument id="I7281c2f7a3cc1f323cbf2c14c46f9db9">
        <instrument-name>Acoustic Grand Piano</instrument-name>
      </score-instrument>
      <midi-instrument id="I7281c2f7a3cc1f323cbf2c14c46f9db9">
        <midi-channel>1</midi-channel>
        <midi-program>1</midi-program>
      </midi-instrument>
    </score-part>
    <score-part id="P4">
      <part-name print-object="no">Alto</part-name>
      <score-instrument id="Iabf680ae72d44fefd4ef76d257c23f86">
        <instrument-name>Acoustic Grand Piano</instrument-name>
      </score-instrument>
      <midi-instrument id="Iabf680ae72d44fefd4ef76d257c23f86">
        <midi-channel>2</midi-channel>
        <midi-program>1</midi-program>
      </midi-instrument>
    </score-part>
    <score-part id="P5">
      <part-name print-object="no">Tenor</part-name>
      <score-instrument id="I45d35561c3fee6d4d98a470e23bfed63">
        <instrument-name>Acoustic Grand Piano</instrument-name>
      </score-instrument>
      <midi-instrument id="I45d35561c3fee6d4d98a470e23bfed63">
        <midi-channel>3</midi-channel>
        <midi-program>1</midi-program>
      </midi-instrument>
    </score-part>
    <score-part id="P6">
      <part-name print-object="no">Bass</part-name>
      <score-instrument id="I86396c906b124dd118875cf3b0c4c779">
        <instrument-name>Acoustic Grand Piano</instrument-name>
      </score-instrument>
      <midi-instrument id="I86396c906b124dd118875cf3b0c4c779">
        <midi-channel>4</midi-channel>
        <midi-program>1</midi-program>
      </midi-instrument>
    </score-part>
  </part-list>
  <!--=========================== Part 1 ===========================-->
  <part id="P3">
    <!--========================= Measure 0 ==========================-->
    <measure number="0" width="437.87">
      <attributes>
        <divisions>10080</divisions>
        <key>
          <fifths>2</fifths>
          <mode>major</mode>
        </key>
        <time>
          <beats>4</beats>
          <beat-type>4</beat-type>
        </time>
        <clef>
          <sign>G</sign>
          <line>2</line>
        </clef>
      </attributes>
      <note default-x="113.48" default-y="-445.77">
        <pitch>
          <step>F</step>
          <alter>1</alter>
          <octave>4</octave>
        </pitch>
        <duration>15120</duration>
        <voice>2</voice>
        <type>quarter</type>
        <dot />
        <stem>down</stem>
      </note>
      <note default-x="215.44" default-y="-440.77">
        <pitch>
          <step>G</step>
          <octave>4</octave>
        </pitch>
        <duration>5040</duration>
        <voice>2</voice>
        <type>eighth</type>
        <stem>down</stem>
      </note>
      <note default-x="269.04" default-y="-435.77">
        <pitch>
          <step>A</step>
          <octave>4</octave>
        </pitch>
        <duration>10080</duration>
        <voice>2</voice>
        <type>quarter</type>
        <stem>down</stem>
      </note>
      <note default-x="352.66" default-y="-435.77">
        <pitch>
          <step>A</step>
          <octave>4</octave>
        </pitch>
        <duration>10080</duration>
        <voice>2</voice>
        <type>quarter</type>
        <stem>down</stem>
      </note>
    </measure>
    <!--========================= Measure 0 ==========================-->
    <measure number="0" width="261.16">
      <note default-x="34.51" default-y="-455.77">
        <pitch>
          <step>D</step>
          <octave>4</octave>
        </pitch>
        <duration>15120</duration>
        <voice>2</voice>
        <type>quarter</type>
        <dot />
        <stem>up</stem>
      </note>
      <note default-x="119.75" default-y="-450.77">
        <pitch>
          <step>E</step>
          <octave>4</octave>
        </pitch>
        <duration>5040</duration>
        <voice>2</voice>
        <type>eighth</type>
        <stem>up</stem>
      </note>
      <note default-x="163.08" default-y="-445.77">
        <pitch>
          <step>F</step>
          <alter>1</alter>
          <octave>4</octave>
        </pitch>
        <duration>20160</duration>
        <voice>2</voice>
        <type>half</type>
        <stem>down</stem>
      </note>
    </measure>
    <!--========================= Measure 0 ==========================-->
    <measure number="0" width="324.91">
      <note default-x="27.33" default-y="-435.77">
        <pitch>
          <step>A</step>
          <octave>4</octave>
        </pitch>
        <duration>10080</duration>
        <voice>2</voice>
        <type>quarter</type>
        <stem>down</stem>
      </note>
      <note default-x="96.97" default-y="-430.77">
        <pitch>
          <step>B</step>
          <octave>4</octave>
        </pitch>
        <duration>10080</duration>
        <voice>2</voice>
        <type>quarter</type>
        <stem>down</stem>
      </note>
      <note default-x="166.61" default-y="-425.77">
        <pitch>
          <step>C</step>
          <alter>1</alter>
          <octave>5</octave>
        </pitch>
        <duration>10080</duration>
        <voice>2</voice>
        <type>quarter</type>
        <stem>down</stem>
      </note>
      <note default-x="236.26" default-y="-420.77">
        <pitch>
          <step>D</step>
          <octave>5</octave>
        </pitch>
        <duration>5040</duration>
        <voice>2</voice>
        <type>eighth</type>
        <stem>up</stem>
        <beam number="1">begin</beam>
      </note>
      <note default-x="279.78" default-y="-425.77">
        <pitch>
          <step>C</step>
          <alter>1</alter>
          <octave>5</octave>
        </pitch>
        <duration>5040</duration>
        <voice>2</voice>
        <type>eighth</type>
        <stem>up</stem>
        <beam number="1">end</beam>
      </note>
    </measure>
    <!--========================= Measure 0 ==========================-->
    <measure number="0" width="1023.94">
      <note default-x="96.19" default-y="-423.1">
        <pitch>
          <step>B</step>
          <octave>4</octave>
        </pitch>
        <duration>10080</duration>
        <voice>2</voice>
        <type>quarter</type>
        <stem>down</stem>
      </note>
      <note default-x="351.68" default-y="-423.1">
        <pitch>
          <step>B</step>
          <octave>4</octave>
        </pitch>
        <duration>10080</duration>
        <voice>2</voice>
        <type>quarter</type>
        <stem>up</stem>
      </note>
      <note default-x="670.68" default-y="-428.1">
        <pitch>
          <step>A</step>
          <octave>4</octave>
        </pitch>
        <duration>20160</duration>
        <voice>2</voice>
        <type>half</type>
        <stem>down</stem>
      </note>
    </measure>
    <!--========================= Measure 0 ==========================-->
    <measure number="0" width="329.62">
      <note default-x="92.39" default-y="-426.03">
        <pitch>
          <step>A</step>
          <octave>4</octave>
        </pitch>
        <duration>10080</duration>
        <voice>2</voice>
        <type>quarter</type>
        <stem>down</stem>
      </note>
      <note default-x="151.29" default-y="-426.03">
        <pitch>
          <step>A</step>
          <octave>4</octave>
        </pitch>
        <duration>10080</duration>
        <voice>2</voice>
        <type>quarter</type>
        <stem>down</stem>
      </note>
      <note default-x="210.2" default-y="-411.03">
        <pitch>
          <step>D</step>
          <octave>5</octave>
        </pitch>
        <duration>10080</duration>
        <voice>2</voice>
        <type>quarter</type>
        <stem>down</stem>
      </note>
      <note default-x="269.11" default-y="-416.03">
        <pitch>
          <step>C</step>
          <alter>1</alter>
          <octave>5</octave>
        </pitch>
        <duration>10080</duration>
        <voice>2</voice>
        <type>quarter</type>
        <stem>down</stem>
      </note>
    </measure>
    <!--========================= Measure 0 ==========================-->
    <measure number="0" width="200.6">
      <note default-x="23.22" default-y="-421.03">
        <pitch>
          <step>B</step>
          <octave>4</octave>
        </pitch>
        <duration>10080</duration>
        <voice>2</voice>
        <type>quarter</type>
        <stem>down</stem>
      </note>
      <note default-x="71.71" default-y="-421.03">
        <pitch>
          <step>B</step>
          <octave>4</octave>
        </pitch>
        <duration>10080</duration>
        <voice>2</voice>
        <type>quarter</type>
        <stem>up</stem>
      </note>
      <note default-x="131.96" default-y="-426.03">
        <pitch>
          <step>A</step>
          <octave>4</octave>
        </pitch>
        <duration>20160</duration>
        <voice>2</voice>
        <type>half</type>
        <stem>down</stem>
      </note>
    </measure>
    <!--========================= Measure 0 ==========================-->
    <measure number="0" width="265.61">
      <note default-x="28" default-y="-436.03">
        <pitch>
          <step>F</step>
          <alter>1</alter>
          <octave>4</octave>
        </pitch>
        <duration>15120</duration>
        <voice>2</voice>
        <type>quarter</type>
        <dot />
        <stem>down</stem>
      </note>
      <note default-x="97.08" default-y="-431.03">
        <pitch>
          <step>G</step>
          <octave>4</octave>
        </pitch>
        <duration>5040</duration>
        <voice>2</voice>
        <type>eighth</type>
        <stem>down</stem>
      </note>
      <note default-x="150.69" default-y="-426.03">
        <pitch>
          <step>A</step>
          <octave>4</octave>
        </pitch>
        <duration>10080</duration>
        <voice>2</voice>
        <type>quarter</type>
        <stem>down</stem>
      </note>
      <note default-x="207.35" default-y="-426.03">
        <pitch>
          <step>A</step>
          <octave>4</octave>
        </pitch>
        <duration>10080</duration>
        <voice>2</voice>
        <type>quarter</type>
        <stem>down</stem>
      </note>
    </measure>
    <!--========================= Measure 0 ==========================-->
    <measure number="0" width="228.12">
      <note default-x="27.62" default-y="-446.03">
        <pitch>
          <step>D</step>
          <octave>4</octave>
        </pitch>
        <duration>10080</duration>
        <voice>2</voice>
        <type>quarter</type>
        <stem>up</stem>
      </note>
      <note default-x="80.01" default-y="-436.03">
        <pitch>
          <step>F</step>
          <alter>1</alter>
          <octave>4</octave>
        </pitch>
        <duration>5040</duration>
        <voice>2</voice>
        <type>eighth</type>
        <stem>up</stem>
        <beam number="1">begin</beam>
      </note>
      <note default-x="112.75" default-y="-441.03">
        <pitch>
          <step>E</step>
          <octave>4</octave>
        </pitch>
        <duration>5040</duration>
        <voice>2</voice>
        <type>eighth</type>
        <stem>up</stem>
        <beam number="1">end</beam>
      </note>
      <note default-x="145.13" default-y="-446.03">
        <pitch>
          <step>D</step>
          <octave>4</octave>
        </pitch>
        <duration>20160</duration>
        <voice>2</voice>
        <type>half</type>
        <stem>up</stem>
      </note>
      <barline location="right">
        <bar-style>light-heavy</bar-style>
      </barline>
    </measure>
  </part>
  <!--=========================== Part 2 ===========================-->
  <part id="P4">
    <!--========================= Measure 0 ==========================-->
    <measure number="0" width="437.87">
      <attributes>
        <divisions>10080</divisions>
        <key>
          <fifths>2</fifths>
          <mode>major</mode>
        </key>
        <time>
          <beats>4</beats>
          <beat-type>4</beat-type>
        </time>
        <clef>
          <sign>G</sign>
          <line>2</line>
        </clef>
      </attributes>
      <note default-x="113.48" default-y="-646.77">
        <pitch>
          <step>D</step>
          <octave>4</octave>
        </pitch>
        <duration>15120</duration>
        <voice>2</voice>
        <type>quarter</type>
        <dot />
        <stem>up</stem>
      </note>
      <note default-x="215.44" default-y="-651.77">
        <pitch>
          <step>C</step>
          <alter>1</alter>
          <octave>4</octave>
        </pitch>
        <duration>5040</duration>
        <voice>2</voice>
        <type>eighth</type>
        <stem>up</stem>
      </note>
      <note default-x="269.04" default-y="-646.77">
        <pitch>
          <step>D</step>
          <octave>4</octave>
        </pitch>
        <duration>10080</duration>
        <voice>2</voice>
        <type>quarter</type>
        <stem>up</stem>
      </note>
      <note default-x="352.66" default-y="-646.77">
        <pitch>
          <step>D</step>
          <octave>4</octave>
        </pitch>
        <duration>10080</duration>
        <voice>2</voice>
        <type>quarter</type>
        <stem>up</stem>
      </note>
    </measure>
    <!--========================= Measure 0 ==========================-->
    <measure number="0" width="261.16">
      <note default-x="34.51" default-y="-646.77">
        <pitch>
          <step>D</step>
          <octave>4</octave>
        </pitch>
        <duration>15120</duration>
        <voice>2</voice>
        <type>quarter</type>
        <dot />
        <stem>down</stem>
      </note>
      <note default-x="131.61" default-y="-646.77">
        <pitch>
          <step>D</step>
          <octave>4</octave>
        </pitch>
        <duration>5040</duration>
        <voice>2</voice>
        <type>eighth</type>
        <stem>down</stem>
      </note>
      <note default-x="163.08" default-y="-646.77">
        <pitch>
          <step>D</step>
          <octave>4</octave>
        </pitch>
        <duration>20160</duration>
        <voice>2</voice>
        <type>half</type>
        <stem>up</stem>
      </note>
    </measure>
    <!--========================= Measure 0 ==========================-->
    <measure number="0" width="324.91">
      <note default-x="27.33" default-y="-641.77">
        <pitch>
          <step>E</step>
          <octave>4</octave>
        </pitch>
        <duration>10080</duration>
        <voice>2</voice>
        <type>quarter</type>
        <stem>up</stem>
      </note>
      <note default-x="96.97" default-y="-641.77">
        <pitch>
          <step>E</step>
          <octave>4</octave>
        </pitch>
        <duration>10080</duration>
        <voice>2</voice>
        <type>quarter</type>
        <stem>up</stem>
      </note>
      <note default-x="166.61" default-y="-641.77">
        <pitch>
          <step>E</step>
          <octave>4</octave>
        </pitch>
        <duration>10080</duration>
        <voice>2</voice>
        <type>quarter</type>
        <stem>up</stem>
      </note>
      <note default-x="236.26" default-y="-636.77">
        <pitch>
          <step>F</step>
          <alter>1</alter>
          <octave>4</octave>
        </pitch>
        <duration>10080</duration>
        <voice>2</voice>
        <type>quarter</type>
        <stem>down</stem>
      </note>
    </measure>
    <!--========================= Measure 0 ==========================-->
    <measure number="0" width="1023.94">
      <note default-x="96.19" default-y="-629.1">
        <pitch>
          <step>F</step>
          <alter>1</alter>
          <octave>4</octave>
        </pitch>
        <duration>10080</duration>
        <voice>2</voice>
        <type>quarter</type>
        <stem>up</stem>
      </note>
      <note default-x="351.68" default-y="-634.1">
        <pitch>
          <step>E</step>
          <octave>4</octave>
        </pitch>
        <duration>5040</duration>
        <voice>2</voice>
        <type>eighth</type>
        <stem>down</stem>
        <beam number="1">begin</beam>
      </note>
      <note default-x="511.36" default-y="-639.1">
        <pitch>
          <step>D</step>
          <octave>4</octave>
        </pitch>
        <duration>5040</duration>
        <voice>2</voice>
        <type>eighth</type>
        <stem>down</stem>
        <beam number="1">end</beam>
      </note>
      <note default-x="670.68" default-y="-644.1">
        <pitch>
          <step>C</step>
          <alter>1</alter>
          <octave>4</octave>
        </pitch>
        <duration>20160</duration>
        <voice>2</voice>
        <type>half</type>
        <stem>up</stem>
      </note>
    </measure>
    <!--========================= Measure 0 ==========================-->
    <measure number="0" width="329.62">
      <note default-x="92.39" default-y="-637.03">
        <pitch>
          <step>D</step>
          <octave>4</octave>
        </pitch>
        <duration>10080</duration>
        <voice>2</voice>
        <type>quarter</type>
        <stem>up</stem>
      </note>
      <note default-x="151.29" default-y="-642.03">
        <pitch>
          <step>C</step>
          <alter>1</alter>
          <octave>4</octave>
        </pitch>
        <duration>10080</duration>
        <voice>2</voice>
        <type>quarter</type>
        <stem>up</stem>
      </note>
      <note default-x="210.2" default-y="-637.03">
        <pitch>
          <step>D</step>
          <octave>4</octave>
        </pitch>
        <duration>10080</duration>
        <voice>2</voice>
        <type>quarter</type>
        <stem>up</stem>
      </note>
      <note default-x="269.11" default-y="-637.03">
        <pitch>
          <step>D</step>
          <octave>4</octave>
        </pitch>
        <duration>10080</duration>
        <voice>2</voice>
        <type>quarter</type>
        <stem>up</stem>
      </note>
    </measure>
    <!--========================= Measure 0 ==========================-->
    <measure number="0" width="200.6">
      <note default-x="23.22" default-y="-637.03">
        <pitch>
          <step>D</step>
          <octave>4</octave>
        </pitch>
        <duration>10080</duration>
        <voice>2</voice>
        <type>quarter</type>
        <stem>up</stem>
      </note>
      <note default-x="71.71" default-y="-622.03">
        <pitch>
          <step>G</step>
          <octave>4</octave>
        </pitch>
        <duration>5040</duration>
        <voice>2</voice>
        <type>eighth</type>
        <stem>down</stem>
        <beam number="1">begin</beam>
      </note>
      <note default-x="102.02" default-y="-627.03">
        <pitch>
          <step>F</step>
          <alter>1</alter>
          <octave>4</octave>
        </pitch>
        <duration>5040</duration>
        <voice>2</voice>
        <type>eighth</type>
        <stem>down</stem>
        <beam number="1">end</beam>
      </note>
      <note default-x="131.96" default-y="-632.03">
        <pitch>
          <step>E</step>
          <octave>4</octave>
        </pitch>
        <duration>20160</duration>
        <voice>2</voice>
        <type>half</type>
        <stem>up</stem>
      </note>
    </measure>
    <!--========================= Measure 0 ==========================-->
    <measure number="0" width="265.61">
      <note default-x="28" default-y="-637.03">
        <pitch>
          <step>D</step>
          <octave>4</octave>
        </pitch>
        <duration>15120</duration>
        <voice>2</voice>
        <type>quarter</type>
        <dot />
        <stem>up</stem>
      </note>
      <note default-x="97.08" default-y="-642.03">
        <pitch>
          <step>C</step>
          <alter>1</alter>
          <octave>4</octave>
        </pitch>
        <duration>5040</duration>
        <voice>2</voice>
        <type>eighth</type>
        <stem>up</stem>
      </note>
      <note default-x="150.69" default-y="-637.03">
        <pitch>
          <step>D</step>
          <octave>4</octave>
        </pitch>
        <duration>10080</duration>
        <voice>2</voice>
        <type>quarter</type>
        <stem>up</stem>
      </note>
      <note default-x="207.35" default-y="-637.03">
        <pitch>
          <step>D</step>
          <octave>4</octave>
        </pitch>
        <duration>10080</duration>
        <voice>2</voice>
        <type>quarter</type>
        <stem>up</stem>
      </note>
    </measure>
    <!--========================= Measure 0 ==========================-->
    <measure number="0" width="228.12">
      <note default-x="27.62" default-y="-637.03">
        <pitch>
          <step>D</step>
          <octave>4</octave>
        </pitch>
        <duration>10080</duration>
        <voice>2</voice>
        <type>quarter</type>
        <stem>down</stem>
      </note>
      <note default-x="80.01" default-y="-642.03">
        <pitch>
          <step>C</step>
          <alter>1</alter>
          <octave>4</octave>
        </pitch>
        <duration>10080</duration>
        <voice>2</voice>
        <type>quarter</type>
        <stem>down</stem>
      </note>
      <note default-x="145.13" default-y="-637.03">
        <pitch>
          <step>D</step>
          <octave>4</octave>
        </pitch>
        <duration>20160</duration>
        <voice>2</voice>
        <type>half</type>
        <stem>down</stem>
      </note>
      <barline location="right">
        <bar-style>light-heavy</bar-style>
      </barline>
    </measure>
  </part>
  <!--=========================== Part 3 ===========================-->
  <part id="P5">
    <!--========================= Measure 0 ==========================-->
    <measure number="0" width="437.87">
      <attributes>
        <divisions>10080</divisions>
        <key>
          <fifths>2</fifths>
          <mode>major</mode>
        </key>
        <time>
          <beats>4</beats>
          <beat-type>4</beat-type>
        </time>
        <clef>
          <sign>F</sign>
          <line>4</line>
        </clef>
      </attributes>
      <note default-x="113.48" default-y="-792.77">
        <pitch>
          <step>A</step>
          <octave>3</octave>
        </pitch>
        <duration>15120</duration>
        <voice>2</voice>
        <type>quarter</type>
        <dot />
        <stem>down</stem>
      </note>
      <note default-x="215.44" default-y="-792.77">
        <pitch>
          <step>A</step>
          <octave>3</octave>
        </pitch>
        <duration>5040</duration>
        <voice>2</voice>
        <type>eighth</type>
        <stem>down</stem>
      </note>
      <note default-x="269.04" default-y="-792.77">
        <pitch>
          <step>A</step>
          <octave>3</octave>
        </pitch>
        <duration>10080</duration>
        <voice>2</voice>
        <type>quarter</type>
        <stem>down</stem>
      </note>
      <note default-x="352.66" default-y="-782.77">
        <pitch>
          <step>C</step>
          <alter>0</alter>
          <octave>4</octave>
        </pitch>
        <duration>10080</duration>
        <voice>2</voice>
        <type>quarter</type>
        <accidental>natural</accidental>
        <stem>down</stem>
      </note>
    </measure>
    <!--========================= Measure 0 ==========================-->
    <measure number="0" width="261.16">
      <note default-x="34.51" default-y="-787.77">
        <pitch>
          <step>B</step>
          <octave>3</octave>
        </pitch>
        <duration>15120</duration>
        <voice>2</voice>
        <type>quarter</type>
        <dot />
        <stem>down</stem>
      </note>
      <note default-x="119.75" default-y="-787.77">
        <pitch>
          <step>B</step>
          <octave>3</octave>
        </pitch>
        <duration>5040</duration>
        <voice>2</voice>
        <type>eighth</type>
        <stem>down</stem>
      </note>
      <note default-x="163.08" default-y="-792.77">
        <pitch>
          <step>A</step>
          <octave>3</octave>
        </pitch>
        <duration>20160</duration>
        <voice>2</voice>
        <type>half</type>
        <stem>down</stem>
      </note>
    </measure>
    <!--========================= Measure 0 ==========================-->
    <measure number="0" width="324.91">
      <note default-x="27.33" default-y="-792.77">
        <pitch>
          <step>A</step>
          <octave>3</octave>
        </pitch>
        <duration>10080</duration>
        <voice>2</voice>
        <type>quarter</type>
        <stem>down</stem>
      </note>
      <note default-x="96.97" default-y="-797.77">
        <pitch>
          <step>G</step>
          <alter>1</alter>
          <octave>3</octave>
        </pitch>
        <duration>10080</duration>
        <voice>2</voice>
        <type>quarter</type>
        <accidental>sharp</accidental>
        <stem>down</stem>
      </note>
      <note default-x="166.61" default-y="-792.77">
        <pitch>
          <step>A</step>
          <octave>3</octave>
        </pitch>
        <duration>10080</duration>
        <voice>2</voice>
        <type>quarter</type>
        <stem>up</stem>
      </note>
      <note default-x="236.26" default-y="-792.77">
        <pitch>
          <step>A</step>
          <octave>3</octave>
        </pitch>
        <duration>10080</duration>
        <voice>2</voice>
        <type>quarter</type>
        <stem>down</stem>
      </note>
    </measure>
    <!--========================= Measure 0 ==========================-->
    <measure number="0" width="1023.94">
      <note default-x="96.19" default-y="-770.1">
        <pitch>
          <step>D</step>
          <octave>4</octave>
        </pitch>
        <duration>10080</duration>
        <voice>2</voice>
        <type>quarter</type>
        <stem>down</stem>
      </note>
      <note default-x="351.68" default-y="-790.1">
        <pitch>
          <step>G</step>
          <alter>1</alter>
          <octave>3</octave>
        </pitch>
        <duration>10080</duration>
        <voice>2</voice>
        <type>quarter</type>
        <accidental>sharp</accidental>
        <stem>down</stem>
      </note>
      <note default-x="670.68" default-y="-785.1">
        <pitch>
          <step>A</step>
          <octave>3</octave>
        </pitch>
        <duration>20160</duration>
        <voice>2</voice>
        <type>half</type>
        <stem>down</stem>
      </note>
    </measure>
    <!--========================= Measure 0 ==========================-->
    <measure number="0" width="329.62">
      <note default-x="92.39" default-y="-793.03">
        <pitch>
          <step>F</step>
          <alter>1</alter>
          <octave>3</octave>
        </pitch>
        <duration>10080</duration>
        <voice>2</voice>
        <type>quarter</type>
        <stem>down</stem>
      </note>
      <note default-x="151.29" default-y="-788.03">
        <pitch>
          <step>G</step>
          <octave>3</octave>
        </pitch>
        <duration>10080</duration>
        <voice>2</voice>
        <type>quarter</type>
        <stem>down</stem>
      </note>
      <note default-x="210.2" default-y="-783.03">
        <pitch>
          <step>A</step>
          <octave>3</octave>
        </pitch>
        <duration>10080</duration>
        <voice>2</voice>
        <type>quarter</type>
        <stem>down</stem>
      </note>
      <note default-x="269.11" default-y="-783.03">
        <pitch>
          <step>A</step>
          <alter>1</alter>
          <octave>3</octave>
        </pitch>
        <duration>10080</duration>
        <voice>2</voice>
        <type>quarter</type>
        <accidental>sharp</accidental>
        <stem>down</stem>
      </note>
    </measure>
    <!--========================= Measure 0 ==========================-->
    <measure number="0" width="200.6">
      <note default-x="23.22" default-y="-778.03">
        <pitch>
          <step>B</step>
          <octave>3</octave>
        </pitch>
        <duration>10080</duration>
        <voice>2</voice>
        <type>quarter</type>
        <stem>down</stem>
      </note>
      <note default-x="71.71" default-y="-768.03">
        <pitch>
          <step>D</step>
          <octave>4</octave>
        </pitch>
        <duration>10080</duration>
        <voice>2</voice>
        <type>quarter</type>
        <stem>down</stem>
      </note>
      <note default-x="131.96" default-y="-773.03">
        <pitch>
          <step>C</step>
          <alter>1</alter>
          <octave>4</octave>
        </pitch>
        <duration>20160</duration>
        <voice>2</voice>
        <type>half</type>
        <stem>down</stem>
      </note>
    </measure>
    <!--========================= Measure 0 ==========================-->
    <measure number="0" width="265.61">
      <note default-x="28" default-y="-783.03">
        <pitch>
          <step>A</step>
          <octave>3</octave>
        </pitch>
        <duration>15120</duration>
        <voice>2</voice>
        <type>quarter</type>
        <dot />
        <stem>down</stem>
      </note>
      <note default-x="97.08" default-y="-783.03">
        <pitch>
          <step>A</step>
          <octave>3</octave>
        </pitch>
        <duration>5040</duration>
        <voice>2</voice>
        <type>eighth</type>
        <stem>down</stem>
      </note>
      <note default-x="150.69" default-y="-783.03">
        <pitch>
          <step>A</step>
          <octave>3</octave>
        </pitch>
        <duration>10080</duration>
        <voice>2</voice>
        <type>quarter</type>
        <stem>down</stem>
      </note>
      <note default-x="207.35" default-y="-773.03">
        <pitch>
          <step>C</step>
          <alter>0</alter>
          <octave>4</octave>
        </pitch>
        <duration>10080</duration>
        <voice>2</voice>
        <type>quarter</type>
        <accidental>natural</accidental>
        <stem>down</stem>
      </note>
    </measure>
    <!--========================= Measure 0 ==========================-->
    <measure number="0" width="228.12">
      <note default-x="27.62" default-y="-778.03">
        <pitch>
          <step>B</step>
          <octave>3</octave>
        </pitch>
        <duration>10080</duration>
        <voice>2</voice>
        <type>quarter</type>
        <stem>down</stem>
      </note>
      <note default-x="80.01" default-y="-783.03">
        <pitch>
          <step>A</step>
          <octave>3</octave>
        </pitch>
        <duration>5040</duration>
        <voice>2</voice>
        <type>eighth</type>
        <stem>up</stem>
        <beam number="1">begin</beam>
      </note>
      <note default-x="112.75" default-y="-788.03">
        <pitch>
          <step>G</step>
          <octave>3</octave>
        </pitch>
        <duration>5040</duration>
        <voice>2</voice>
        <type>eighth</type>
        <stem>up</stem>
        <beam number="1">end</beam>
      </note>
      <note default-x="145.13" default-y="-793.03">
        <pitch>
          <step>F</step>
          <alter>1</alter>
          <octave>3</octave>
        </pitch>
        <duration>20160</duration>
        <voice>2</voice>
        <type>half</type>
        <stem>down</stem>
      </note>
      <barline location="right">
        <bar-style>light-heavy</bar-style>
      </barline>
    </measure>
  </part>
  <!--=========================== Part 4 ===========================-->
  <part id="P6">
    <!--========================= Measure 0 ==========================-->
    <measure number="0" width="437.87">
      <attributes>
        <divisions>10080</divisions>
        <key>
          <fifths>2</fifths>
          <mode>major</mode>
        </key>
        <time>
          <beats>4</beats>
          <beat-type>4</beat-type>
        </time>
        <clef>
          <sign>F</sign>
          <line>4</line>
        </clef>
      </attributes>
      <note default-x="113.48" default-y="-1003.77">
        <pitch>
          <step>D</step>
          <octave>3</octave>
        </pitch>
        <duration>15120</duration>
        <voice>2</voice>
        <type>quarter</type>
        <dot />
        <stem>down</stem>
      </note>
      <note default-x="215.44" default-y="-998.77">
        <pitch>
          <step>E</step>
          <octave>3</octave>
        </pitch>
        <duration>5040</duration>
        <voice>2</voice>
        <type>eighth</type>
        <stem>down</stem>
      </note>
      <note default-x="269.04" default-y="-993.77">
        <pitch>
          <step>F</step>
          <alter>1</alter>
          <octave>3</octave>
        </pitch>
        <duration>10080</duration>
        <voice>2</voice>
        <type>quarter</type>
        <stem>down</stem>
      </note>
      <note default-x="352.66" default-y="-993.77">
        <pitch>
          <step>F</step>
          <alter>1</alter>
          <octave>3</octave>
        </pitch>
        <duration>10080</duration>
        <voice>2</voice>
        <type>quarter</type>
        <stem>down</stem>
      </note>
    </measure>
    <!--========================= Measure 0 ==========================-->
    <measure number="0" width="261.16">
      <note default-x="34.51" default-y="-988.77">
        <pitch>
          <step>G</step>
          <octave>3</octave>
        </pitch>
        <duration>15120</duration>
        <voice>2</voice>
        <type>quarter</type>
        <dot />
        <stem>down</stem>
      </note>
      <note default-x="119.75" default-y="-988.77">
        <pitch>
          <step>G</step>
          <octave>3</octave>
        </pitch>
        <duration>5040</duration>
        <voice>2</voice>
        <type>eighth</type>
        <stem>down</stem>
      </note>
      <note default-x="163.08" default-y="-1003.77">
        <pitch>
          <step>D</step>
          <octave>3</octave>
        </pitch>
        <duration>20160</duration>
        <voice>2</voice>
        <type>half</type>
        <stem>down</stem>
      </note>
    </measure>
    <!--========================= Measure 0 ==========================-->
    <measure number="0" width="324.91">
      <note default-x="27.33" default-y="-1008.77">
        <pitch>
          <step>C</step>
          <alter>1</alter>
          <octave>3</octave>
        </pitch>
        <duration>10080</duration>
        <voice>2</voice>
        <type>quarter</type>
        <stem>down</stem>
      </note>
      <note default-x="96.97" default-y="-998.77">
        <pitch>
          <step>E</step>
          <octave>3</octave>
        </pitch>
        <duration>10080</duration>
        <voice>2</voice>
        <type>quarter</type>
        <stem>down</stem>
      </note>
      <note default-x="166.61" default-y="-983.77">
        <pitch>
          <step>A</step>
          <octave>3</octave>
        </pitch>
        <duration>10080</duration>
        <voice>2</voice>
        <type>quarter</type>
        <stem>down</stem>
      </note>
      <note default-x="236.26" default-y="-1003.77">
        <pitch>
          <step>D</step>
          <octave>3</octave>
        </pitch>
        <duration>10080</duration>
        <voice>2</voice>
        <type>quarter</type>
        <stem>down</stem>
      </note>
    </measure>
    <!--========================= Measure 0 ==========================-->
    <measure number="0" width="1023.94">
      <note default-x="96.19" default-y="-996.1">
        <pitch>
          <step>D</step>
          <octave>3</octave>
        </pitch>
        <duration>10080</duration>
        <voice>2</voice>
        <type>quarter</type>
        <stem>down</stem>
      </note>
      <note default-x="351.68" default-y="-991.1">
        <pitch>
          <step>E</step>
          <octave>3</octave>
        </pitch>
        <duration>10080</duration>
        <voice>2</voice>
        <type>quarter</type>
        <stem>down</stem>
      </note>
      <note default-x="670.68" default-y="-1011.1">
        <pitch>
          <step>A</step>
          <octave>2</octave>
        </pitch>
        <duration>20160</duration>
        <voice>2</voice>
        <type>half</type>
        <stem>down</stem>
      </note>
    </measure>
    <!--========================= Measure 0 ==========================-->
    <measure number="0" width="329.62">
      <note default-x="92.39" default-y="-994.03">
        <pitch>
          <step>D</step>
          <octave>3</octave>
        </pitch>
        <duration>10080</duration>
        <voice>2</voice>
        <type>quarter</type>
        <stem>down</stem>
      </note>
      <note default-x="151.29" default-y="-989.03">
        <pitch>
          <step>E</step>
          <octave>3</octave>
        </pitch>
        <duration>10080</duration>
        <voice>2</voice>
        <type>quarter</type>
        <stem>down</stem>
      </note>
      <note default-x="210.2" default-y="-984.03">
        <pitch>
          <step>F</step>
          <alter>1</alter>
          <octave>3</octave>
        </pitch>
        <duration>10080</duration>
        <voice>2</voice>
        <type>quarter</type>
        <stem>down</stem>
      </note>
      <note default-x="269.11" default-y="-984.03">
        <pitch>
          <step>F</step>
          <alter>1</alter>
          <octave>3</octave>
        </pitch>
        <duration>10080</duration>
        <voice>2</voice>
        <type>quarter</type>
        <stem>down</stem>
      </note>
    </measure>
    <!--========================= Measure 0 ==========================-->
    <measure number="0" width="200.6">
      <note default-x="23.22" default-y="-979.03">
        <pitch>
          <step>G</step>
          <octave>3</octave>
        </pitch>
        <duration>10080</duration>
        <voice>2</voice>
        <type>quarter</type>
        <stem>down</stem>
      </note>
      <note default-x="71.71" default-y="-979.03">
        <pitch>
          <step>G</step>
          <octave>3</octave>
        </pitch>
        <duration>10080</duration>
        <voice>2</voice>
        <type>quarter</type>
        <stem>down</stem>
      </note>
      <note default-x="131.96" default-y="-974.03">
        <pitch>
          <step>A</step>
          <octave>3</octave>
        </pitch>
        <duration>20160</duration>
        <voice>2</voice>
        <type>half</type>
        <stem>down</stem>
      </note>
    </measure>
    <!--========================= Measure 0 ==========================-->
    <measure number="0" width="265.61">
      <note default-x="28" default-y="-994.03">
        <pitch>
          <step>D</step>
          <octave>3</octave>
        </pitch>
        <duration>15120</duration>
        <voice>2</voice>
        <type>quarter</type>
        <dot />
        <stem>down</stem>
      </note>
      <note default-x="97.08" default-y="-989.03">
        <pitch>
          <step>E</step>
          <octave>3</octave>
        </pitch>
        <duration>5040</duration>
        <voice>2</voice>
        <type>eighth</type>
        <stem>down</stem>
      </note>
      <note default-x="150.69" default-y="-984.03">
        <pitch>
          <step>F</step>
          <alter>1</alter>
          <octave>3</octave>
        </pitch>
        <duration>10080</duration>
        <voice>2</voice>
        <type>quarter</type>
        <stem>down</stem>
      </note>
      <note default-x="207.35" default-y="-984.03">
        <pitch>
          <step>F</step>
          <alter>1</alter>
          <octave>3</octave>
        </pitch>
        <duration>10080</duration>
        <voice>2</voice>
        <type>quarter</type>
        <stem>down</stem>
      </note>
    </measure>
    <!--========================= Measure 0 ==========================-->
    <measure number="0" width="228.12">
      <note default-x="27.62" default-y="-979.03">
        <pitch>
          <step>G</step>
          <octave>3</octave>
        </pitch>
        <duration>10080</duration>
        <voice>2</voice>
        <type>quarter</type>
        <stem>down</stem>
      </note>
      <note default-x="80.01" default-y="-1009.03">
        <pitch>
          <step>A</step>
          <octave>2</octave>
        </pitch>
        <duration>10080</duration>
        <voice>2</voice>
        <type>quarter</type>
        <stem>down</stem>
      </note>
      <note default-x="145.13" default-y="-994.03">
        <pitch>
          <step>D</step>
          <octave>3</octave>
        </pitch>
        <duration>20160</duration>
        <voice>2</voice>
        <type>half</type>
        <stem>down</stem>
      </note>
      <barline location="right">
        <bar-style>light-heavy</bar-style>
      </barline>
    </measure>
  </part>
</score-partwise>
