<?xml version="1.0" encoding="UTF-8" standalone="no"?>
<svg baseprofile="tiny" height="4209.45px" version="1.2" viewbox="0 0 2976.38 4209.45" width="2976.38px" xmlns="http://www.w3.org/2000/svg" xmlns:xlink="http://www.w3.org/1999/xlink">
<title>hymn2</title>
<desc>Generated by MuseScore 3.6.2</desc>
<polyline class="StaffLines" fill="none" points="336.614,634.252 2763.78,634.252" stroke="#000000" stroke-linejoin="bevel" stroke-width="2.73"></polyline>
<polyline class="StaffLines" fill="none" points="336.614,659.055 2763.78,659.055" stroke="#000000" stroke-linejoin="bevel" stroke-width="2.73"></polyline>
<polyline class="StaffLines" fill="none" points="336.614,683.858 2763.78,683.858" stroke="#000000" stroke-linejoin="bevel" stroke-width="2.73"></polyline>
<polyline class="StaffLines" fill="none" points="336.614,708.661 2763.78,708.661" stroke="#000000" stroke-linejoin="bevel" stroke-width="2.73"></polyline>
<polyline class="StaffLines" fill="none" points="336.614,733.465 2763.78,733.465" stroke="#000000" stroke-linejoin="bevel" stroke-width="2.73"></polyline>
<polyline class="StaffLines" fill="none" points="212.598,1105.51 2763.78,1105.51" stroke="#000000" stroke-linejoin="bevel" stroke-width="2.73"></polyline>
<polyline class="StaffLines" fill="none" points="212.598,1130.31 2763.78,1130.31" stroke="#000000" stroke-linejoin="bevel" stroke-width="2.73"></polyline>
<polyline class="StaffLines" fill="none" points="212.598,1155.12 2763.78,1155.12" stroke="#000000" stroke-linejoin="bevel" stroke-width="2.73"></polyline>
<polyline class="StaffLines" fill="none" points="212.598,1179.92 2763.78,1179.92" stroke="#000000" stroke-linejoin="bevel" stroke-width="2.73"></polyline>
<polyline class="StaffLines" fill="none" points="212.598,1204.72 2763.78,1204.72" stroke="#000000" stroke-linejoin="bevel" stroke-width="2.73"></polyline>
<path class="MeasureNumber" d="M228.317,1042.23 C227.63,1045.39 226.911,1047.31 225.755,1049.55 C223.802,1053.19 221.723,1054.83 218.911,1054.83 C217.755,1054.83 217.005,1054.34 217.005,1053.62 C217.005,1053.34 217.083,1053.23 217.395,1052.75 C217.802,1052.23 218.005,1051.75 218.005,1051.19 C218.005,1049.87 216.958,1048.87 215.598,1048.87 C214.005,1048.87 212.88,1050.06 212.88,1051.83 C212.88,1054.55 215.442,1056.5 219.005,1056.5 C222.192,1056.5 225.161,1055.11 227.598,1052.31 C231.083,1048.42 233.348,1042.62 233.348,1037.7 C233.348,1031.47 230.348,1027.75 225.395,1027.75 C222.442,1027.75 219.677,1029.08 217.833,1031.34 C216.036,1033.55 215.005,1036.34 215.005,1038.95 C215.005,1042.75 217.911,1045.62 221.802,1045.62 C224.442,1045.62 226.473,1044.55 228.317,1042.23 M225.364,1029.44 C227.911,1029.44 229.552,1031.47 229.552,1034.67 C229.552,1039.62 226.833,1043.26 223.161,1043.26 C220.63,1043.26 219.239,1041.55 219.239,1038.55 C219.239,1036.19 219.802,1034.06 220.88,1032.26 C222.083,1030.34 223.52,1029.44 225.364,1029.44"></path>
<polyline class="BarLine" points="761.349,632.888 761.349,734.829" stroke="#000000" stroke-linejoin="bevel" stroke-width="4.46"></polyline>
<polyline class="BarLine" points="1018.61,632.888 1018.61,734.829" stroke="#000000" stroke-linejoin="bevel" stroke-width="4.46"></polyline>
<polyline class="BarLine" points="1409.78,632.888 1409.78,734.829" stroke="#000000" stroke-linejoin="bevel" stroke-width="4.46"></polyline>
<polyline class="BarLine" points="1632.82,632.888 1632.82,734.829" stroke="#000000" stroke-linejoin="bevel" stroke-width="4.46"></polyline>
<polyline class="BarLine" points="1890.08,632.888 1890.08,734.829" stroke="#000000" stroke-linejoin="bevel" stroke-width="4.46"></polyline>
<polyline class="BarLine" points="2147.34,632.888 2147.34,734.829" stroke="#000000" stroke-linejoin="bevel" stroke-width="4.46"></polyline>
<polyline class="BarLine" points="2538.51,632.888 2538.51,734.829" stroke="#000000" stroke-linejoin="bevel" stroke-width="4.46"></polyline>
<polyline class="BarLine" points="2761.55,632.888 2761.55,734.829" stroke="#000000" stroke-linejoin="bevel" stroke-width="4.46"></polyline>
<polyline class="BarLine" points="591.994,1104.15 591.994,1206.09" stroke="#000000" stroke-linejoin="bevel" stroke-width="4.46"></polyline>
<polyline class="BarLine" points="815.898,1104.15 815.898,1206.09" stroke="#000000" stroke-linejoin="bevel" stroke-width="4.46"></polyline>
<polyline class="BarLine" points="1218.35,1104.15 1218.35,1206.09" stroke="#000000" stroke-linejoin="bevel" stroke-width="4.46"></polyline>
<polyline class="BarLine" points="1442.25,1104.15 1442.25,1206.09" stroke="#000000" stroke-linejoin="bevel" stroke-width="4.46"></polyline>
<polyline class="BarLine" points="1800.07,1104.15 1800.07,1206.09" stroke="#000000" stroke-linejoin="bevel" stroke-width="4.46"></polyline>
<polyline class="BarLine" points="2068.61,1104.15 2068.61,1206.09" stroke="#000000" stroke-linejoin="bevel" stroke-width="4.46"></polyline>
<polyline class="BarLine" points="2515.69,1104.15 2515.69,1206.09" stroke="#000000" stroke-linejoin="bevel" stroke-width="4.46"></polyline>
<polyline class="BarLine" points="2739.6,1104.15 2739.6,1206.09" stroke="#000000" stroke-linejoin="bevel" stroke-width="4.46"></polyline>
<polyline class="BarLine" points="2756.96,1104.15 2756.96,1206.09" stroke="#000000" stroke-linejoin="bevel" stroke-width="13.64"></polyline>
<polyline class="LedgerLine" points="519.468,758.268 569.066,758.268" stroke="#000000" stroke-linejoin="bevel" stroke-width="3.97"></polyline>
<polyline class="LedgerLine" points="680.995,758.268 730.593,758.268" stroke="#000000" stroke-linejoin="bevel" stroke-width="3.97"></polyline>
<polyline class="LedgerLine" points="1173.96,758.268 1223.56,758.268" stroke="#000000" stroke-linejoin="bevel" stroke-width="3.97"></polyline>
<polyline class="LedgerLine" points="1539.09,758.268 1588.69,758.268" stroke="#000000" stroke-linejoin="bevel" stroke-width="3.97"></polyline>
<polyline class="LedgerLine" points="2302.69,758.268 2352.29,758.268" stroke="#000000" stroke-linejoin="bevel" stroke-width="3.97"></polyline>
<polyline class="LedgerLine" points="2667.82,758.268 2717.42,758.268" stroke="#000000" stroke-linejoin="bevel" stroke-width="3.97"></polyline>
<polyline class="Stem" points="559.021,755.093 559.021,671.457" stroke="#000000" stroke-linejoin="bevel" stroke-width="2.73"></polyline>
<polyline class="Stem" points="583.355,736.798 583.355,798.573" stroke="#000000" stroke-linejoin="bevel" stroke-width="2.73"></polyline>
<polyline class="Stem" points="637.198,711.995 637.198,779.97" stroke="#000000" stroke-linejoin="bevel" stroke-width="2.73"></polyline>
<polyline class="Stem" points="720.548,755.093 720.548,671.457" stroke="#000000" stroke-linejoin="bevel" stroke-width="2.73"></polyline>
<polyline class="Stem" points="797.19,724.397 797.19,789.272" stroke="#000000" stroke-linejoin="bevel" stroke-width="2.73"></polyline>
<polyline class="Stem" points="847.56,699.593 847.56,770.669" stroke="#000000" stroke-linejoin="bevel" stroke-width="2.73"></polyline>
<polyline class="Stem" points="927.438,693.085 927.438,615.65" stroke="#000000" stroke-linejoin="bevel" stroke-width="2.73"></polyline>
<polyline class="Stem" points="977.808,705.487 977.808,624.951" stroke="#000000" stroke-linejoin="bevel" stroke-width="2.73"></polyline>
<polyline class="Stem" points="1083.96,730.29 1083.96,640.453" stroke="#000000" stroke-linejoin="bevel" stroke-width="2.73"></polyline>
<polyline class="Stem" points="1127.14,717.888 1127.14,640.453" stroke="#000000" stroke-linejoin="bevel" stroke-width="2.73"></polyline>
<polyline class="Stem" points="1170.33,705.487 1170.33,640.453" stroke="#000000" stroke-linejoin="bevel" stroke-width="2.73"></polyline>
<polyline class="Stem" points="1213.51,755.093 1213.51,640.453" stroke="#000000" stroke-linejoin="bevel" stroke-width="2.73"></polyline>
<polyline class="Stem" points="1256.7,717.888 1256.7,634.252" stroke="#000000" stroke-linejoin="bevel" stroke-width="2.73"></polyline>
<polyline class="Stem" points="1325.79,730.29 1325.79,659.055" stroke="#000000" stroke-linejoin="bevel" stroke-width="2.73"></polyline>
<polyline class="Stem" points="1368.98,717.888 1368.98,652.854" stroke="#000000" stroke-linejoin="bevel" stroke-width="2.73"></polyline>
<polyline class="Stem" points="1445.62,736.798 1445.62,798.573" stroke="#000000" stroke-linejoin="bevel" stroke-width="2.73"></polyline>
<polyline class="Stem" points="1497.38,749.2 1497.38,807.874" stroke="#000000" stroke-linejoin="bevel" stroke-width="2.73"></polyline>
<polyline class="Stem" points="1578.64,755.093 1578.64,671.457" stroke="#000000" stroke-linejoin="bevel" stroke-width="2.73"></polyline>
<polyline class="Stem" points="1668.66,724.397 1668.66,789.272" stroke="#000000" stroke-linejoin="bevel" stroke-width="2.73"></polyline>
<polyline class="Stem" points="1719.03,711.995 1719.03,779.97" stroke="#000000" stroke-linejoin="bevel" stroke-width="2.73"></polyline>
<polyline class="Stem" points="1769.4,699.593 1769.4,770.669" stroke="#000000" stroke-linejoin="bevel" stroke-width="2.73"></polyline>
<polyline class="Stem" points="1819.77,711.995 1819.77,779.97" stroke="#000000" stroke-linejoin="bevel" stroke-width="2.73"></polyline>
<polyline class="Stem" points="1955.43,717.888 1955.43,634.252" stroke="#000000" stroke-linejoin="bevel" stroke-width="2.73"></polyline>
<polyline class="Stem" points="1976.29,736.798 1976.29,798.573" stroke="#000000" stroke-linejoin="bevel" stroke-width="2.73"></polyline>
<polyline class="Stem" points="2026.66,736.798 2026.66,798.573" stroke="#000000" stroke-linejoin="bevel" stroke-width="2.73"></polyline>
<polyline class="Stem" points="2077.03,749.2 2077.03,807.874" stroke="#000000" stroke-linejoin="bevel" stroke-width="2.73"></polyline>
<polyline class="Stem" points="2212.69,730.29 2212.69,640.453" stroke="#000000" stroke-linejoin="bevel" stroke-width="2.73"></polyline>
<polyline class="Stem" points="2255.87,717.888 2255.87,640.453" stroke="#000000" stroke-linejoin="bevel" stroke-width="2.73"></polyline>
<polyline class="Stem" points="2299.06,705.487 2299.06,640.453" stroke="#000000" stroke-linejoin="bevel" stroke-width="2.73"></polyline>
<polyline class="Stem" points="2342.24,755.093 2342.24,640.453" stroke="#000000" stroke-linejoin="bevel" stroke-width="2.73"></polyline>
<polyline class="Stem" points="2385.43,717.888 2385.43,634.252" stroke="#000000" stroke-linejoin="bevel" stroke-width="2.73"></polyline>
<polyline class="Stem" points="2454.52,730.29 2454.52,659.055" stroke="#000000" stroke-linejoin="bevel" stroke-width="2.73"></polyline>
<polyline class="Stem" points="2497.71,717.888 2497.71,652.854" stroke="#000000" stroke-linejoin="bevel" stroke-width="2.73"></polyline>
<polyline class="Stem" points="2574.35,736.798 2574.35,798.573" stroke="#000000" stroke-linejoin="bevel" stroke-width="2.73"></polyline>
<polyline class="Stem" points="2626.11,749.2 2626.11,807.874" stroke="#000000" stroke-linejoin="bevel" stroke-width="2.73"></polyline>
<polyline class="Stem" points="2707.37,755.093 2707.37,671.457" stroke="#000000" stroke-linejoin="bevel" stroke-width="2.73"></polyline>
<polyline class="Stem" points="388.802,1151.94 388.802,1077.61" stroke="#000000" stroke-linejoin="bevel" stroke-width="2.73"></polyline>
<polyline class="Stem" points="442.932,1139.54 442.932,1068.31" stroke="#000000" stroke-linejoin="bevel" stroke-width="2.73"></polyline>
<polyline class="Stem" points="467.554,1133.65 467.554,1214.03" stroke="#000000" stroke-linejoin="bevel" stroke-width="2.73"></polyline>
<polyline class="Stem" points="551.192,1176.75 551.192,1096.21" stroke="#000000" stroke-linejoin="bevel" stroke-width="2.73"></polyline>
<polyline class="Stem" points="627.834,1146.05 627.834,1223.33" stroke="#000000" stroke-linejoin="bevel" stroke-width="2.73"></polyline>
<polyline class="Stem" points="679.833,1133.65 679.833,1214.03" stroke="#000000" stroke-linejoin="bevel" stroke-width="2.73"></polyline>
<polyline class="Stem" points="731.832,1121.25 731.832,1204.72" stroke="#000000" stroke-linejoin="bevel" stroke-width="2.73"></polyline>
<polyline class="Stem" points="881.246,1151.94 881.246,1062.11" stroke="#000000" stroke-linejoin="bevel" stroke-width="2.73"></polyline>
<polyline class="Stem" points="926.14,1139.54 926.14,1062.11" stroke="#000000" stroke-linejoin="bevel" stroke-width="2.73"></polyline>
<polyline class="Stem" points="971.034,1127.14 971.034,1062.11" stroke="#000000" stroke-linejoin="bevel" stroke-width="2.73"></polyline>
<polyline class="Stem" points="1015.93,1176.75 1015.93,1062.11" stroke="#000000" stroke-linejoin="bevel" stroke-width="2.73"></polyline>
<polyline class="Stem" points="1060.82,1139.54 1060.82,1068.31" stroke="#000000" stroke-linejoin="bevel" stroke-width="2.73"></polyline>
<polyline class="Stem" points="1132.65,1151.94 1132.65,1080.71" stroke="#000000" stroke-linejoin="bevel" stroke-width="2.73"></polyline>
<polyline class="Stem" points="1177.55,1139.54 1177.55,1074.51" stroke="#000000" stroke-linejoin="bevel" stroke-width="2.73"></polyline>
<polyline class="Stem" points="1254.19,1158.45 1254.19,1232.63" stroke="#000000" stroke-linejoin="bevel" stroke-width="2.73"></polyline>
<polyline class="Stem" points="1306.19,1170.85 1306.19,1241.93" stroke="#000000" stroke-linejoin="bevel" stroke-width="2.73"></polyline>
<polyline class="Stem" points="1387.69,1176.75 1387.69,1096.21" stroke="#000000" stroke-linejoin="bevel" stroke-width="2.73"></polyline>
<polyline class="Stem" points="1507.6,1176.75 1507.6,1105.51" stroke="#000000" stroke-linejoin="bevel" stroke-width="2.73"></polyline>
<polyline class="Stem" points="1552.2,1164.34 1552.2,1099.31" stroke="#000000" stroke-linejoin="bevel" stroke-width="2.73"></polyline>
<polyline class="Stem" points="1596.8,1151.94 1596.8,1080.71" stroke="#000000" stroke-linejoin="bevel" stroke-width="2.73"></polyline>
<polyline class="Stem" points="1641.39,1176.75 1641.39,1105.51" stroke="#000000" stroke-linejoin="bevel" stroke-width="2.73"></polyline>
<polyline class="Stem" points="1656.48,1146.05 1656.48,1223.33" stroke="#000000" stroke-linejoin="bevel" stroke-width="2.73"></polyline>
<polyline class="Stem" points="1727.84,1208.06 1727.84,1269.83" stroke="#000000" stroke-linejoin="bevel" stroke-width="2.73"></polyline>
<polyline class="Stem" points="1835.91,1195.66 1835.91,1260.53" stroke="#000000" stroke-linejoin="bevel" stroke-width="2.73"></polyline>
<polyline class="Stem" points="1890.04,1170.85 1890.04,1241.93" stroke="#000000" stroke-linejoin="bevel" stroke-width="2.73"></polyline>
<polyline class="Stem" points="1973.67,1164.34 1973.67,1086.91" stroke="#000000" stroke-linejoin="bevel" stroke-width="2.73"></polyline>
<polyline class="Stem" points="2027.8,1176.75 2027.8,1096.21" stroke="#000000" stroke-linejoin="bevel" stroke-width="2.73"></polyline>
<polyline class="Stem" points="2104.45,1146.05 2104.45,1229.53" stroke="#000000" stroke-linejoin="bevel" stroke-width="2.73"></polyline>
<polyline class="Stem" points="2153.15,1158.45 2153.15,1237.8" stroke="#000000" stroke-linejoin="bevel" stroke-width="2.73"></polyline>
<polyline class="Stem" points="2201.86,1146.05 2201.86,1246.06" stroke="#000000" stroke-linejoin="bevel" stroke-width="2.73"></polyline>
<polyline class="Stem" points="2250.56,1183.25 2250.56,1254.33" stroke="#000000" stroke-linejoin="bevel" stroke-width="2.73"></polyline>
<polyline class="Stem" points="2328.78,1164.34 2328.78,1080.71" stroke="#000000" stroke-linejoin="bevel" stroke-width="2.73"></polyline>
<polyline class="Stem" points="2377.48,1151.94 2377.48,1072.44" stroke="#000000" stroke-linejoin="bevel" stroke-width="2.73"></polyline>
<polyline class="Stem" points="2426.19,1139.54 2426.19,1064.17" stroke="#000000" stroke-linejoin="bevel" stroke-width="2.73"></polyline>
<polyline class="Stem" points="2474.89,1127.14 2474.89,1055.91" stroke="#000000" stroke-linejoin="bevel" stroke-width="2.73"></polyline>
<polyline class="Stem" points="2551.53,1146.05 2551.53,1223.33" stroke="#000000" stroke-linejoin="bevel" stroke-width="2.73"></polyline>
<polyline class="Stem" points="2633.04,1151.94 2633.04,1077.61" stroke="#000000" stroke-linejoin="bevel" stroke-width="2.73"></polyline>
<polyline class="Stem" points="2655.53,1146.05 2655.53,1223.33" stroke="#000000" stroke-linejoin="bevel" stroke-width="2.73"></polyline>
<path class="Note" d="M31.5,-8.09375 C29.7031,-11.4063 25.9063,-13.2031 21.2969,-13.2031 C17.9063,-13.2031 14.2031,-12.2031 10.5938,-10.2969 C4,-6.79688 0,-0.90625 0,4.20313 C0,5.59375 0.296875,7 1,8.29688 C2.79688,11.5938 6.59375,13.2969 11.2031,13.2969 C14.5938,13.2969 18.2969,12.4063 21.9063,10.5 C28.5,7 32.5,1.09375 32.5,-4 C32.5,-5.40625 32.2031,-6.79688 31.5,-8.09375" transform="matrix(0.992126,0,0,0.992126,528.149,758.268)"></path>
<path class="Note" d="M31.5,-8.09375 C29.7031,-11.4063 25.9063,-13.2031 21.2969,-13.2031 C17.9063,-13.2031 14.2031,-12.2031 10.5938,-10.2969 C4,-6.79688 0,-0.90625 0,4.20313 C0,5.59375 0.296875,7 1,8.29688 C2.79688,11.5938 6.59375,13.2969 11.2031,13.2969 C14.5938,13.2969 18.2969,12.4063 21.9063,10.5 C28.5,7 32.5,1.09375 32.5,-4 C32.5,-5.40625 32.2031,-6.79688 31.5,-8.09375" transform="matrix(0.992126,0,0,0.992126,581.991,733.465)"></path>
<path class="Note" d="M31.5,-8.09375 C29.7031,-11.4063 25.9063,-13.2031 21.2969,-13.2031 C17.9063,-13.2031 14.2031,-12.2031 10.5938,-10.2969 C4,-6.79688 0,-0.90625 0,4.20313 C0,5.59375 0.296875,7 1,8.29688 C2.79688,11.5938 6.59375,13.2969 11.2031,13.2969 C14.5938,13.2969 18.2969,12.4063 21.9063,10.5 C28.5,7 32.5,1.09375 32.5,-4 C32.5,-5.40625 32.2031,-6.79688 31.5,-8.09375" transform="matrix(0.992126,0,0,0.992126,635.834,708.661)"></path>
<path class="Note" d="M31.5,-8.09375 C29.7031,-11.4063 25.9063,-13.2031 21.2969,-13.2031 C17.9063,-13.2031 14.2031,-12.2031 10.5938,-10.2969 C4,-6.79688 0,-0.90625 0,4.20313 C0,5.59375 0.296875,7 1,8.29688 C2.79688,11.5938 6.59375,13.2969 11.2031,13.2969 C14.5938,13.2969 18.2969,12.4063 21.9063,10.5 C28.5,7 32.5,1.09375 32.5,-4 C32.5,-5.40625 32.2031,-6.79688 31.5,-8.09375" transform="matrix(0.992126,0,0,0.992126,689.676,758.268)"></path>
<path class="Note" d="M31.5,-8.09375 C29.7031,-11.4063 25.9063,-13.2031 21.2969,-13.2031 C17.9063,-13.2031 14.2031,-12.2031 10.5938,-10.2969 C4,-6.79688 0,-0.90625 0,4.20313 C0,5.59375 0.296875,7 1,8.29688 C2.79688,11.5938 6.59375,13.2969 11.2031,13.2969 C14.5938,13.2969 18.2969,12.4063 21.9063,10.5 C28.5,7 32.5,1.09375 32.5,-4 C32.5,-5.40625 32.2031,-6.79688 31.5,-8.09375" transform="matrix(0.992126,0,0,0.992126,795.826,721.063)"></path>
<path class="Note" d="M31.5,-8.09375 C29.7031,-11.4063 25.9063,-13.2031 21.2969,-13.2031 C17.9063,-13.2031 14.2031,-12.2031 10.5938,-10.2969 C4,-6.79688 0,-0.90625 0,4.20313 C0,5.59375 0.296875,7 1,8.29688 C2.79688,11.5938 6.59375,13.2969 11.2031,13.2969 C14.5938,13.2969 18.2969,12.4063 21.9063,10.5 C28.5,7 32.5,1.09375 32.5,-4 C32.5,-5.40625 32.2031,-6.79688 31.5,-8.09375" transform="matrix(0.992126,0,0,0.992126,846.196,696.26)"></path>
<path class="Note" d="M31.5,-8.09375 C29.7031,-11.4063 25.9063,-13.2031 21.2969,-13.2031 C17.9063,-13.2031 14.2031,-12.2031 10.5938,-10.2969 C4,-6.79688 0,-0.90625 0,4.20313 C0,5.59375 0.296875,7 1,8.29688 C2.79688,11.5938 6.59375,13.2969 11.2031,13.2969 C14.5938,13.2969 18.2969,12.4063 21.9063,10.5 C28.5,7 32.5,1.09375 32.5,-4 C32.5,-5.40625 32.2031,-6.79688 31.5,-8.09375" transform="matrix(0.992126,0,0,0.992126,896.566,696.26)"></path>
<path class="Note" d="M31.5,-8.09375 C29.7031,-11.4063 25.9063,-13.2031 21.2969,-13.2031 C17.9063,-13.2031 14.2031,-12.2031 10.5938,-10.2969 C4,-6.79688 0,-0.90625 0,4.20313 C0,5.59375 0.296875,7 1,8.29688 C2.79688,11.5938 6.59375,13.2969 11.2031,13.2969 C14.5938,13.2969 18.2969,12.4063 21.9063,10.5 C28.5,7 32.5,1.09375 32.5,-4 C32.5,-5.40625 32.2031,-6.79688 31.5,-8.09375" transform="matrix(0.992126,0,0,0.992126,946.936,708.661)"></path>
<path class="Note" d="M31.5,-8.09375 C29.7031,-11.4063 25.9063,-13.2031 21.2969,-13.2031 C17.9063,-13.2031 14.2031,-12.2031 10.5938,-10.2969 C4,-6.79688 0,-0.90625 0,4.20313 C0,5.59375 0.296875,7 1,8.29688 C2.79688,11.5938 6.59375,13.2969 11.2031,13.2969 C14.5938,13.2969 18.2969,12.4063 21.9063,10.5 C28.5,7 32.5,1.09375 32.5,-4 C32.5,-5.40625 32.2031,-6.79688 31.5,-8.09375" transform="matrix(0.992126,0,0,0.992126,1053.09,733.465)"></path>
<path class="Note" d="M31.5,-8.09375 C29.7031,-11.4063 25.9063,-13.2031 21.2969,-13.2031 C17.9063,-13.2031 14.2031,-12.2031 10.5938,-10.2969 C4,-6.79688 0,-0.90625 0,4.20313 C0,5.59375 0.296875,7 1,8.29688 C2.79688,11.5938 6.59375,13.2969 11.2031,13.2969 C14.5938,13.2969 18.2969,12.4063 21.9063,10.5 C28.5,7 32.5,1.09375 32.5,-4 C32.5,-5.40625 32.2031,-6.79688 31.5,-8.09375" transform="matrix(0.992126,0,0,0.992126,1096.27,721.063)"></path>
<path class="Note" d="M31.5,-8.09375 C29.7031,-11.4063 25.9063,-13.2031 21.2969,-13.2031 C17.9063,-13.2031 14.2031,-12.2031 10.5938,-10.2969 C4,-6.79688 0,-0.90625 0,4.20313 C0,5.59375 0.296875,7 1,8.29688 C2.79688,11.5938 6.59375,13.2969 11.2031,13.2969 C14.5938,13.2969 18.2969,12.4063 21.9063,10.5 C28.5,7 32.5,1.09375 32.5,-4 C32.5,-5.40625 32.2031,-6.79688 31.5,-8.09375" transform="matrix(0.992126,0,0,0.992126,1139.45,708.661)"></path>
<path class="Note" d="M31.5,-8.09375 C29.7031,-11.4063 25.9063,-13.2031 21.2969,-13.2031 C17.9063,-13.2031 14.2031,-12.2031 10.5938,-10.2969 C4,-6.79688 0,-0.90625 0,4.20313 C0,5.59375 0.296875,7 1,8.29688 C2.79688,11.5938 6.59375,13.2969 11.2031,13.2969 C14.5938,13.2969 18.2969,12.4063 21.9063,10.5 C28.5,7 32.5,1.09375 32.5,-4 C32.5,-5.40625 32.2031,-6.79688 31.5,-8.09375" transform="matrix(0.992126,0,0,0.992126,1182.64,758.268)"></path>
<path class="Note" d="M31.5,-8.09375 C29.7031,-11.4063 25.9063,-13.2031 21.2969,-13.2031 C17.9063,-13.2031 14.2031,-12.2031 10.5938,-10.2969 C4,-6.79688 0,-0.90625 0,4.20313 C0,5.59375 0.296875,7 1,8.29688 C2.79688,11.5938 6.59375,13.2969 11.2031,13.2969 C14.5938,13.2969 18.2969,12.4063 21.9063,10.5 C28.5,7 32.5,1.09375 32.5,-4 C32.5,-5.40625 32.2031,-6.79688 31.5,-8.09375" transform="matrix(0.992126,0,0,0.992126,1225.82,721.063)"></path>
<path class="Note" d="M31.5,-8.09375 C29.7031,-11.4063 25.9063,-13.2031 21.2969,-13.2031 C17.9063,-13.2031 14.2031,-12.2031 10.5938,-10.2969 C4,-6.79688 0,-0.90625 0,4.20313 C0,5.59375 0.296875,7 1,8.29688 C2.79688,11.5938 6.59375,13.2969 11.2031,13.2969 C14.5938,13.2969 18.2969,12.4063 21.9063,10.5 C28.5,7 32.5,1.09375 32.5,-4 C32.5,-5.40625 32.2031,-6.79688 31.5,-8.09375" transform="matrix(0.992126,0,0,0.992126,1294.92,733.465)"></path>
<path class="Note" d="M31.5,-8.09375 C29.7031,-11.4063 25.9063,-13.2031 21.2969,-13.2031 C17.9063,-13.2031 14.2031,-12.2031 10.5938,-10.2969 C4,-6.79688 0,-0.90625 0,4.20313 C0,5.59375 0.296875,7 1,8.29688 C2.79688,11.5938 6.59375,13.2969 11.2031,13.2969 C14.5938,13.2969 18.2969,12.4063 21.9063,10.5 C28.5,7 32.5,1.09375 32.5,-4 C32.5,-5.40625 32.2031,-6.79688 31.5,-8.09375" transform="matrix(0.992126,0,0,0.992126,1338.1,721.063)"></path>
<path class="Note" d="M31.5,-8.09375 C29.7031,-11.4063 25.9063,-13.2031 21.2969,-13.2031 C17.9063,-13.2031 14.2031,-12.2031 10.5938,-10.2969 C4,-6.79688 0,-0.90625 0,4.20313 C0,5.59375 0.296875,7 1,8.29688 C2.79688,11.5938 6.59375,13.2969 11.2031,13.2969 C14.5938,13.2969 18.2969,12.4063 21.9063,10.5 C28.5,7 32.5,1.09375 32.5,-4 C32.5,-5.40625 32.2031,-6.79688 31.5,-8.09375" transform="matrix(0.992126,0,0,0.992126,1444.25,733.465)"></path>
<path class="Note" d="M31.5,-8.09375 C29.7031,-11.4063 25.9063,-13.2031 21.2969,-13.2031 C17.9063,-13.2031 14.2031,-12.2031 10.5938,-10.2969 C4,-6.79688 0,-0.90625 0,4.20313 C0,5.59375 0.296875,7 1,8.29688 C2.79688,11.5938 6.59375,13.2969 11.2031,13.2969 C14.5938,13.2969 18.2969,12.4063 21.9063,10.5 C28.5,7 32.5,1.09375 32.5,-4 C32.5,-5.40625 32.2031,-6.79688 31.5,-8.09375" transform="matrix(0.992126,0,0,0.992126,1496.01,745.866)"></path>
<path class="Note" d="M31.5,-8.14063 C29.7031,-11.4375 25.9063,-13.2344 21.2969,-13.2344 C17.9063,-13.2344 14.2031,-12.2344 10.5938,-10.3438 C4,-6.84375 0,-0.9375 0,4.15625 C0,5.5625 0.296875,6.96875 1,8.26563 C2.79688,11.5781 6.59375,13.2813 11.2031,13.2813 C14.5938,13.2813 18.2969,12.375 21.9063,10.4844 C28.5,6.96875 32.5,1.0625 32.5,-4.04688 C32.5,-5.4375 32.2031,-6.84375 31.5,-8.14063 M27.2031,-1.34375 C25.5,0.359375 22.0938,2.45313 18.5,4.46875 C14.9063,6.46875 11.2969,7.96875 8.90625,8.46875 C8.40625,8.57813 7.90625,8.67188 7.40625,8.67188 C5.79688,8.67188 4.59375,8.07813 3.90625,6.76563 C3.59375,6.26563 3.40625,5.67188 3.40625,5.0625 C3.40625,3.96875 4.09375,2.65625 5.20313,1.5625 C6.90625,-0.140625 10.2031,-2.23438 13.7969,-4.23438 C17.4063,-6.23438 21,-7.73438 23.4063,-8.23438 C23.9063,-8.34375 24.4063,-8.4375 24.9063,-8.4375 C26.5,-8.4375 27.7969,-7.84375 28.5,-6.54688 C28.7969,-6.04688 28.9063,-5.4375 28.9063,-4.84375 C28.9063,-3.73438 28.2969,-2.54688 27.2031,-1.34375" transform="matrix(0.992126,0,0,0.992126,1547.77,758.268)"></path>
<path class="Note" d="M31.5,-8.09375 C29.7031,-11.4063 25.9063,-13.2031 21.2969,-13.2031 C17.9063,-13.2031 14.2031,-12.2031 10.5938,-10.2969 C4,-6.79688 0,-0.90625 0,4.20313 C0,5.59375 0.296875,7 1,8.29688 C2.79688,11.5938 6.59375,13.2969 11.2031,13.2969 C14.5938,13.2969 18.2969,12.4063 21.9063,10.5 C28.5,7 32.5,1.09375 32.5,-4 C32.5,-5.40625 32.2031,-6.79688 31.5,-8.09375" transform="matrix(0.992126,0,0,0.992126,1667.29,721.063)"></path>
<path class="Note" d="M31.5,-8.09375 C29.7031,-11.4063 25.9063,-13.2031 21.2969,-13.2031 C17.9063,-13.2031 14.2031,-12.2031 10.5938,-10.2969 C4,-6.79688 0,-0.90625 0,4.20313 C0,5.59375 0.296875,7 1,8.29688 C2.79688,11.5938 6.59375,13.2969 11.2031,13.2969 C14.5938,13.2969 18.2969,12.4063 21.9063,10.5 C28.5,7 32.5,1.09375 32.5,-4 C32.5,-5.40625 32.2031,-6.79688 31.5,-8.09375" transform="matrix(0.992126,0,0,0.992126,1717.66,708.661)"></path>
<path class="Note" d="M31.5,-8.09375 C29.7031,-11.4063 25.9063,-13.2031 21.2969,-13.2031 C17.9063,-13.2031 14.2031,-12.2031 10.5938,-10.2969 C4,-6.79688 0,-0.90625 0,4.20313 C0,5.59375 0.296875,7 1,8.29688 C2.79688,11.5938 6.59375,13.2969 11.2031,13.2969 C14.5938,13.2969 18.2969,12.4063 21.9063,10.5 C28.5,7 32.5,1.09375 32.5,-4 C32.5,-5.40625 32.2031,-6.79688 31.5,-8.09375" transform="matrix(0.992126,0,0,0.992126,1768.03,696.26)"></path>
<path class="Note" d="M31.5,-8.09375 C29.7031,-11.4063 25.9063,-13.2031 21.2969,-13.2031 C17.9063,-13.2031 14.2031,-12.2031 10.5938,-10.2969 C4,-6.79688 0,-0.90625 0,4.20313 C0,5.59375 0.296875,7 1,8.29688 C2.79688,11.5938 6.59375,13.2969 11.2031,13.2969 C14.5938,13.2969 18.2969,12.4063 21.9063,10.5 C28.5,7 32.5,1.09375 32.5,-4 C32.5,-5.40625 32.2031,-6.79688 31.5,-8.09375" transform="matrix(0.992126,0,0,0.992126,1818.4,708.661)"></path>
<path class="Note" d="M31.5,-8.09375 C29.7031,-11.4063 25.9063,-13.2031 21.2969,-13.2031 C17.9063,-13.2031 14.2031,-12.2031 10.5938,-10.2969 C4,-6.79688 0,-0.90625 0,4.20313 C0,5.59375 0.296875,7 1,8.29688 C2.79688,11.5938 6.59375,13.2969 11.2031,13.2969 C14.5938,13.2969 18.2969,12.4063 21.9063,10.5 C28.5,7 32.5,1.09375 32.5,-4 C32.5,-5.40625 32.2031,-6.79688 31.5,-8.09375" transform="matrix(0.992126,0,0,0.992126,1924.55,721.063)"></path>
<path class="Note" d="M31.5,-8.09375 C29.7031,-11.4063 25.9063,-13.2031 21.2969,-13.2031 C17.9063,-13.2031 14.2031,-12.2031 10.5938,-10.2969 C4,-6.79688 0,-0.90625 0,4.20313 C0,5.59375 0.296875,7 1,8.29688 C2.79688,11.5938 6.59375,13.2969 11.2031,13.2969 C14.5938,13.2969 18.2969,12.4063 21.9063,10.5 C28.5,7 32.5,1.09375 32.5,-4 C32.5,-5.40625 32.2031,-6.79688 31.5,-8.09375" transform="matrix(0.992126,0,0,0.992126,1974.92,733.465)"></path>
<path class="Note" d="M31.5,-8.09375 C29.7031,-11.4063 25.9063,-13.2031 21.2969,-13.2031 C17.9063,-13.2031 14.2031,-12.2031 10.5938,-10.2969 C4,-6.79688 0,-0.90625 0,4.20313 C0,5.59375 0.296875,7 1,8.29688 C2.79688,11.5938 6.59375,13.2969 11.2031,13.2969 C14.5938,13.2969 18.2969,12.4063 21.9063,10.5 C28.5,7 32.5,1.09375 32.5,-4 C32.5,-5.40625 32.2031,-6.79688 31.5,-8.09375" transform="matrix(0.992126,0,0,0.992126,2025.29,733.465)"></path>
<path class="Note" d="M31.5,-8.09375 C29.7031,-11.4063 25.9063,-13.2031 21.2969,-13.2031 C17.9063,-13.2031 14.2031,-12.2031 10.5938,-10.2969 C4,-6.79688 0,-0.90625 0,4.20313 C0,5.59375 0.296875,7 1,8.29688 C2.79688,11.5938 6.59375,13.2969 11.2031,13.2969 C14.5938,13.2969 18.2969,12.4063 21.9063,10.5 C28.5,7 32.5,1.09375 32.5,-4 C32.5,-5.40625 32.2031,-6.79688 31.5,-8.09375" transform="matrix(0.992126,0,0,0.992126,2075.66,745.866)"></path>
<path class="Note" d="M31.5,-8.09375 C29.7031,-11.4063 25.9063,-13.2031 21.2969,-13.2031 C17.9063,-13.2031 14.2031,-12.2031 10.5938,-10.2969 C4,-6.79688 0,-0.90625 0,4.20313 C0,5.59375 0.296875,7 1,8.29688 C2.79688,11.5938 6.59375,13.2969 11.2031,13.2969 C14.5938,13.2969 18.2969,12.4063 21.9063,10.5 C28.5,7 32.5,1.09375 32.5,-4 C32.5,-5.40625 32.2031,-6.79688 31.5,-8.09375" transform="matrix(0.992126,0,0,0.992126,2181.81,733.465)"></path>
<path class="Note" d="M31.5,-8.09375 C29.7031,-11.4063 25.9063,-13.2031 21.2969,-13.2031 C17.9063,-13.2031 14.2031,-12.2031 10.5938,-10.2969 C4,-6.79688 0,-0.90625 0,4.20313 C0,5.59375 0.296875,7 1,8.29688 C2.79688,11.5938 6.59375,13.2969 11.2031,13.2969 C14.5938,13.2969 18.2969,12.4063 21.9063,10.5 C28.5,7 32.5,1.09375 32.5,-4 C32.5,-5.40625 32.2031,-6.79688 31.5,-8.09375" transform="matrix(0.992126,0,0,0.992126,2225,721.063)"></path>
<path class="Note" d="M31.5,-8.09375 C29.7031,-11.4063 25.9063,-13.2031 21.2969,-13.2031 C17.9063,-13.2031 14.2031,-12.2031 10.5938,-10.2969 C4,-6.79688 0,-0.90625 0,4.20313 C0,5.59375 0.296875,7 1,8.29688 C2.79688,11.5938 6.59375,13.2969 11.2031,13.2969 C14.5938,13.2969 18.2969,12.4063 21.9063,10.5 C28.5,7 32.5,1.09375 32.5,-4 C32.5,-5.40625 32.2031,-6.79688 31.5,-8.09375" transform="matrix(0.992126,0,0,0.992126,2268.18,708.661)"></path>
<path class="Note" d="M31.5,-8.09375 C29.7031,-11.4063 25.9063,-13.2031 21.2969,-13.2031 C17.9063,-13.2031 14.2031,-12.2031 10.5938,-10.2969 C4,-6.79688 0,-0.90625 0,4.20313 C0,5.59375 0.296875,7 1,8.29688 C2.79688,11.5938 6.59375,13.2969 11.2031,13.2969 C14.5938,13.2969 18.2969,12.4063 21.9063,10.5 C28.5,7 32.5,1.09375 32.5,-4 C32.5,-5.40625 32.2031,-6.79688 31.5,-8.09375" transform="matrix(0.992126,0,0,0.992126,2311.37,758.268)"></path>
<path class="Note" d="M31.5,-8.09375 C29.7031,-11.4063 25.9063,-13.2031 21.2969,-13.2031 C17.9063,-13.2031 14.2031,-12.2031 10.5938,-10.2969 C4,-6.79688 0,-0.90625 0,4.20313 C0,5.59375 0.296875,7 1,8.29688 C2.79688,11.5938 6.59375,13.2969 11.2031,13.2969 C14.5938,13.2969 18.2969,12.4063 21.9063,10.5 C28.5,7 32.5,1.09375 32.5,-4 C32.5,-5.40625 32.2031,-6.79688 31.5,-8.09375" transform="matrix(0.992126,0,0,0.992126,2354.55,721.063)"></path>
<path class="Note" d="M31.5,-8.09375 C29.7031,-11.4063 25.9063,-13.2031 21.2969,-13.2031 C17.9063,-13.2031 14.2031,-12.2031 10.5938,-10.2969 C4,-6.79688 0,-0.90625 0,4.20313 C0,5.59375 0.296875,7 1,8.29688 C2.79688,11.5938 6.59375,13.2969 11.2031,13.2969 C14.5938,13.2969 18.2969,12.4063 21.9063,10.5 C28.5,7 32.5,1.09375 32.5,-4 C32.5,-5.40625 32.2031,-6.79688 31.5,-8.09375" transform="matrix(0.992126,0,0,0.992126,2423.65,733.465)"></path>
<path class="Note" d="M31.5,-8.09375 C29.7031,-11.4063 25.9063,-13.2031 21.2969,-13.2031 C17.9063,-13.2031 14.2031,-12.2031 10.5938,-10.2969 C4,-6.79688 0,-0.90625 0,4.20313 C0,5.59375 0.296875,7 1,8.29688 C2.79688,11.5938 6.59375,13.2969 11.2031,13.2969 C14.5938,13.2969 18.2969,12.4063 21.9063,10.5 C28.5,7 32.5,1.09375 32.5,-4 C32.5,-5.40625 32.2031,-6.79688 31.5,-8.09375" transform="matrix(0.992126,0,0,0.992126,2466.83,721.063)"></path>
<path class="Note" d="M31.5,-8.09375 C29.7031,-11.4063 25.9063,-13.2031 21.2969,-13.2031 C17.9063,-13.2031 14.2031,-12.2031 10.5938,-10.2969 C4,-6.79688 0,-0.90625 0,4.20313 C0,5.59375 0.296875,7 1,8.29688 C2.79688,11.5938 6.59375,13.2969 11.2031,13.2969 C14.5938,13.2969 18.2969,12.4063 21.9063,10.5 C28.5,7 32.5,1.09375 32.5,-4 C32.5,-5.40625 32.2031,-6.79688 31.5,-8.09375" transform="matrix(0.992126,0,0,0.992126,2572.98,733.465)"></path>
<path class="Note" d="M31.5,-8.09375 C29.7031,-11.4063 25.9063,-13.2031 21.2969,-13.2031 C17.9063,-13.2031 14.2031,-12.2031 10.5938,-10.2969 C4,-6.79688 0,-0.90625 0,4.20313 C0,5.59375 0.296875,7 1,8.29688 C2.79688,11.5938 6.59375,13.2969 11.2031,13.2969 C14.5938,13.2969 18.2969,12.4063 21.9063,10.5 C28.5,7 32.5,1.09375 32.5,-4 C32.5,-5.40625 32.2031,-6.79688 31.5,-8.09375" transform="matrix(0.992126,0,0,0.992126,2624.74,745.866)"></path>
<path class="Note" d="M31.5,-8.14063 C29.7031,-11.4375 25.9063,-13.2344 21.2969,-13.2344 C17.9063,-13.2344 14.2031,-12.2344 10.5938,-10.3438 C4,-6.84375 0,-0.9375 0,4.15625 C0,5.5625 0.296875,6.96875 1,8.26563 C2.79688,11.5781 6.59375,13.2813 11.2031,13.2813 C14.5938,13.2813 18.2969,12.375 21.9063,10.4844 C28.5,6.96875 32.5,1.0625 32.5,-4.04688 C32.5,-5.4375 32.2031,-6.84375 31.5,-8.14063 M27.2031,-1.34375 C25.5,0.359375 22.0938,2.45313 18.5,4.46875 C14.9063,6.46875 11.2969,7.96875 8.90625,8.46875 C8.40625,8.57813 7.90625,8.67188 7.40625,8.67188 C5.79688,8.67188 4.59375,8.07813 3.90625,6.76563 C3.59375,6.26563 3.40625,5.67188 3.40625,5.0625 C3.40625,3.96875 4.09375,2.65625 5.20313,1.5625 C6.90625,-0.140625 10.2031,-2.23438 13.7969,-4.23438 C17.4063,-6.23438 21,-7.73438 23.4063,-8.23438 C23.9063,-8.34375 24.4063,-8.4375 24.9063,-8.4375 C26.5,-8.4375 27.7969,-7.84375 28.5,-6.54688 C28.7969,-6.04688 28.9063,-5.4375 28.9063,-4.84375 C28.9063,-3.73438 28.2969,-2.54688 27.2031,-1.34375" transform="matrix(0.992126,0,0,0.992126,2676.5,758.268)"></path>
<path class="Note" d="M31.5,-8.09375 C29.7031,-11.4063 25.9063,-13.2031 21.2969,-13.2031 C17.9063,-13.2031 14.2031,-12.2031 10.5938,-10.2969 C4,-6.79688 0,-0.90625 0,4.20313 C0,5.59375 0.296875,7 1,8.29688 C2.79688,11.5938 6.59375,13.2969 11.2031,13.2969 C14.5938,13.2969 18.2969,12.4063 21.9063,10.5 C28.5,7 32.5,1.09375 32.5,-4 C32.5,-5.40625 32.2031,-6.79688 31.5,-8.09375" transform="matrix(0.992126,0,0,0.992126,357.929,1155.12)"></path>
<path class="Note" d="M31.5,-8.09375 C29.7031,-11.4063 25.9063,-13.2031 21.2969,-13.2031 C17.9063,-13.2031 14.2031,-12.2031 10.5938,-10.2969 C4,-6.79688 0,-0.90625 0,4.20313 C0,5.59375 0.296875,7 1,8.29688 C2.79688,11.5938 6.59375,13.2969 11.2031,13.2969 C14.5938,13.2969 18.2969,12.4063 21.9063,10.5 C28.5,7 32.5,1.09375 32.5,-4 C32.5,-5.40625 32.2031,-6.79688 31.5,-8.09375" transform="matrix(0.992126,0,0,0.992126,412.06,1142.72)"></path>
<path class="Note" d="M31.5,-8.09375 C29.7031,-11.4063 25.9063,-13.2031 21.2969,-13.2031 C17.9063,-13.2031 14.2031,-12.2031 10.5938,-10.2969 C4,-6.79688 0,-0.90625 0,4.20313 C0,5.59375 0.296875,7 1,8.29688 C2.79688,11.5938 6.59375,13.2969 11.2031,13.2969 C14.5938,13.2969 18.2969,12.4063 21.9063,10.5 C28.5,7 32.5,1.09375 32.5,-4 C32.5,-5.40625 32.2031,-6.79688 31.5,-8.09375" transform="matrix(0.992126,0,0,0.992126,466.19,1130.31)"></path>
<path class="Note" d="M31.5,-8.09375 C29.7031,-11.4063 25.9063,-13.2031 21.2969,-13.2031 C17.9063,-13.2031 14.2031,-12.2031 10.5938,-10.2969 C4,-6.79688 0,-0.90625 0,4.20313 C0,5.59375 0.296875,7 1,8.29688 C2.79688,11.5938 6.59375,13.2969 11.2031,13.2969 C14.5938,13.2969 18.2969,12.4063 21.9063,10.5 C28.5,7 32.5,1.09375 32.5,-4 C32.5,-5.40625 32.2031,-6.79688 31.5,-8.09375" transform="matrix(0.992126,0,0,0.992126,520.32,1179.92)"></path>
<path class="Note" d="M31.5,-8.09375 C29.7031,-11.4063 25.9063,-13.2031 21.2969,-13.2031 C17.9063,-13.2031 14.2031,-12.2031 10.5938,-10.2969 C4,-6.79688 0,-0.90625 0,4.20313 C0,5.59375 0.296875,7 1,8.29688 C2.79688,11.5938 6.59375,13.2969 11.2031,13.2969 C14.5938,13.2969 18.2969,12.4063 21.9063,10.5 C28.5,7 32.5,1.09375 32.5,-4 C32.5,-5.40625 32.2031,-6.79688 31.5,-8.09375" transform="matrix(0.992126,0,0,0.992126,626.47,1142.72)"></path>
<path class="Note" d="M31.5,-8.09375 C29.7031,-11.4063 25.9063,-13.2031 21.2969,-13.2031 C17.9063,-13.2031 14.2031,-12.2031 10.5938,-10.2969 C4,-6.79688 0,-0.90625 0,4.20313 C0,5.59375 0.296875,7 1,8.29688 C2.79688,11.5938 6.59375,13.2969 11.2031,13.2969 C14.5938,13.2969 18.2969,12.4063 21.9063,10.5 C28.5,7 32.5,1.09375 32.5,-4 C32.5,-5.40625 32.2031,-6.79688 31.5,-8.09375" transform="matrix(0.992126,0,0,0.992126,678.469,1130.31)"></path>
<path class="Note" d="M31.5,-8.14063 C29.7031,-11.4375 25.9063,-13.2344 21.2969,-13.2344 C17.9063,-13.2344 14.2031,-12.2344 10.5938,-10.3438 C4,-6.84375 0,-0.9375 0,4.15625 C0,5.5625 0.296875,6.96875 1,8.26563 C2.79688,11.5781 6.59375,13.2813 11.2031,13.2813 C14.5938,13.2813 18.2969,12.375 21.9063,10.4844 C28.5,6.96875 32.5,1.0625 32.5,-4.04688 C32.5,-5.4375 32.2031,-6.84375 31.5,-8.14063 M27.2031,-1.34375 C25.5,0.359375 22.0938,2.45313 18.5,4.46875 C14.9063,6.46875 11.2969,7.96875 8.90625,8.46875 C8.40625,8.57813 7.90625,8.67188 7.40625,8.67188 C5.79688,8.67188 4.59375,8.07813 3.90625,6.76563 C3.59375,6.26563 3.40625,5.67188 3.40625,5.0625 C3.40625,3.96875 4.09375,2.65625 5.20313,1.5625 C6.90625,-0.140625 10.2031,-2.23438 13.7969,-4.23438 C17.4063,-6.23438 21,-7.73438 23.4063,-8.23438 C23.9063,-8.34375 24.4063,-8.4375 24.9063,-8.4375 C26.5,-8.4375 27.7969,-7.84375 28.5,-6.54688 C28.7969,-6.04688 28.9063,-5.4375 28.9063,-4.84375 C28.9063,-3.73438 28.2969,-2.54688 27.2031,-1.34375" transform="matrix(0.992126,0,0,0.992126,730.468,1117.91)"></path>
<path class="Note" d="M31.5,-8.09375 C29.7031,-11.4063 25.9063,-13.2031 21.2969,-13.2031 C17.9063,-13.2031 14.2031,-12.2031 10.5938,-10.2969 C4,-6.79688 0,-0.90625 0,4.20313 C0,5.59375 0.296875,7 1,8.29688 C2.79688,11.5938 6.59375,13.2969 11.2031,13.2969 C14.5938,13.2969 18.2969,12.4063 21.9063,10.5 C28.5,7 32.5,1.09375 32.5,-4 C32.5,-5.40625 32.2031,-6.79688 31.5,-8.09375" transform="matrix(0.992126,0,0,0.992126,850.374,1155.12)"></path>
<path class="Note" d="M31.5,-8.09375 C29.7031,-11.4063 25.9063,-13.2031 21.2969,-13.2031 C17.9063,-13.2031 14.2031,-12.2031 10.5938,-10.2969 C4,-6.79688 0,-0.90625 0,4.20313 C0,5.59375 0.296875,7 1,8.29688 C2.79688,11.5938 6.59375,13.2969 11.2031,13.2969 C14.5938,13.2969 18.2969,12.4063 21.9063,10.5 C28.5,7 32.5,1.09375 32.5,-4 C32.5,-5.40625 32.2031,-6.79688 31.5,-8.09375" transform="matrix(0.992126,0,0,0.992126,895.268,1142.72)"></path>
<path class="Note" d="M31.5,-8.09375 C29.7031,-11.4063 25.9063,-13.2031 21.2969,-13.2031 C17.9063,-13.2031 14.2031,-12.2031 10.5938,-10.2969 C4,-6.79688 0,-0.90625 0,4.20313 C0,5.59375 0.296875,7 1,8.29688 C2.79688,11.5938 6.59375,13.2969 11.2031,13.2969 C14.5938,13.2969 18.2969,12.4063 21.9063,10.5 C28.5,7 32.5,1.09375 32.5,-4 C32.5,-5.40625 32.2031,-6.79688 31.5,-8.09375" transform="matrix(0.992126,0,0,0.992126,940.162,1130.31)"></path>
<path class="Note" d="M31.5,-8.09375 C29.7031,-11.4063 25.9063,-13.2031 21.2969,-13.2031 C17.9063,-13.2031 14.2031,-12.2031 10.5938,-10.2969 C4,-6.79688 0,-0.90625 0,4.20313 C0,5.59375 0.296875,7 1,8.29688 C2.79688,11.5938 6.59375,13.2969 11.2031,13.2969 C14.5938,13.2969 18.2969,12.4063 21.9063,10.5 C28.5,7 32.5,1.09375 32.5,-4 C32.5,-5.40625 32.2031,-6.79688 31.5,-8.09375" transform="matrix(0.992126,0,0,0.992126,985.056,1179.92)"></path>
<path class="Note" d="M31.5,-8.09375 C29.7031,-11.4063 25.9063,-13.2031 21.2969,-13.2031 C17.9063,-13.2031 14.2031,-12.2031 10.5938,-10.2969 C4,-6.79688 0,-0.90625 0,4.20313 C0,5.59375 0.296875,7 1,8.29688 C2.79688,11.5938 6.59375,13.2969 11.2031,13.2969 C14.5938,13.2969 18.2969,12.4063 21.9063,10.5 C28.5,7 32.5,1.09375 32.5,-4 C32.5,-5.40625 32.2031,-6.79688 31.5,-8.09375" transform="matrix(0.992126,0,0,0.992126,1029.95,1142.72)"></path>
<path class="Note" d="M31.5,-8.09375 C29.7031,-11.4063 25.9063,-13.2031 21.2969,-13.2031 C17.9063,-13.2031 14.2031,-12.2031 10.5938,-10.2969 C4,-6.79688 0,-0.90625 0,4.20313 C0,5.59375 0.296875,7 1,8.29688 C2.79688,11.5938 6.59375,13.2969 11.2031,13.2969 C14.5938,13.2969 18.2969,12.4063 21.9063,10.5 C28.5,7 32.5,1.09375 32.5,-4 C32.5,-5.40625 32.2031,-6.79688 31.5,-8.09375" transform="matrix(0.992126,0,0,0.992126,1101.78,1155.12)"></path>
<path class="Note" d="M31.5,-8.09375 C29.7031,-11.4063 25.9063,-13.2031 21.2969,-13.2031 C17.9063,-13.2031 14.2031,-12.2031 10.5938,-10.2969 C4,-6.79688 0,-0.90625 0,4.20313 C0,5.59375 0.296875,7 1,8.29688 C2.79688,11.5938 6.59375,13.2969 11.2031,13.2969 C14.5938,13.2969 18.2969,12.4063 21.9063,10.5 C28.5,7 32.5,1.09375 32.5,-4 C32.5,-5.40625 32.2031,-6.79688 31.5,-8.09375" transform="matrix(0.992126,0,0,0.992126,1146.67,1142.72)"></path>
<path class="Note" d="M31.5,-8.09375 C29.7031,-11.4063 25.9063,-13.2031 21.2969,-13.2031 C17.9063,-13.2031 14.2031,-12.2031 10.5938,-10.2969 C4,-6.79688 0,-0.90625 0,4.20313 C0,5.59375 0.296875,7 1,8.29688 C2.79688,11.5938 6.59375,13.2969 11.2031,13.2969 C14.5938,13.2969 18.2969,12.4063 21.9063,10.5 C28.5,7 32.5,1.09375 32.5,-4 C32.5,-5.40625 32.2031,-6.79688 31.5,-8.09375" transform="matrix(0.992126,0,0,0.992126,1252.82,1155.12)"></path>
<path class="Note" d="M31.5,-8.09375 C29.7031,-11.4063 25.9063,-13.2031 21.2969,-13.2031 C17.9063,-13.2031 14.2031,-12.2031 10.5938,-10.2969 C4,-6.79688 0,-0.90625 0,4.20313 C0,5.59375 0.296875,7 1,8.29688 C2.79688,11.5938 6.59375,13.2969 11.2031,13.2969 C14.5938,13.2969 18.2969,12.4063 21.9063,10.5 C28.5,7 32.5,1.09375 32.5,-4 C32.5,-5.40625 32.2031,-6.79688 31.5,-8.09375" transform="matrix(0.992126,0,0,0.992126,1304.82,1167.52)"></path>
<path class="Note" d="M31.5,-8.14063 C29.7031,-11.4375 25.9063,-13.2344 21.2969,-13.2344 C17.9063,-13.2344 14.2031,-12.2344 10.5938,-10.3438 C4,-6.84375 0,-0.9375 0,4.15625 C0,5.5625 0.296875,6.96875 1,8.26563 C2.79688,11.5781 6.59375,13.2813 11.2031,13.2813 C14.5938,13.2813 18.2969,12.375 21.9063,10.4844 C28.5,6.96875 32.5,1.0625 32.5,-4.04688 C32.5,-5.4375 32.2031,-6.84375 31.5,-8.14063 M27.2031,-1.34375 C25.5,0.359375 22.0938,2.45313 18.5,4.46875 C14.9063,6.46875 11.2969,7.96875 8.90625,8.46875 C8.40625,8.57813 7.90625,8.67188 7.40625,8.67188 C5.79688,8.67188 4.59375,8.07813 3.90625,6.76563 C3.59375,6.26563 3.40625,5.67188 3.40625,5.0625 C3.40625,3.96875 4.09375,2.65625 5.20313,1.5625 C6.90625,-0.140625 10.2031,-2.23438 13.7969,-4.23438 C17.4063,-6.23438 21,-7.73438 23.4063,-8.23438 C23.9063,-8.34375 24.4063,-8.4375 24.9063,-8.4375 C26.5,-8.4375 27.7969,-7.84375 28.5,-6.54688 C28.7969,-6.04688 28.9063,-5.4375 28.9063,-4.84375 C28.9063,-3.73438 28.2969,-2.54688 27.2031,-1.34375" transform="matrix(0.992126,0,0,0.992126,1356.82,1179.92)"></path>
<path class="Note" d="M31.5,-8.09375 C29.7031,-11.4063 25.9063,-13.2031 21.2969,-13.2031 C17.9063,-13.2031 14.2031,-12.2031 10.5938,-10.2969 C4,-6.79688 0,-0.90625 0,4.20313 C0,5.59375 0.296875,7 1,8.29688 C2.79688,11.5938 6.59375,13.2969 11.2031,13.2969 C14.5938,13.2969 18.2969,12.4063 21.9063,10.5 C28.5,7 32.5,1.09375 32.5,-4 C32.5,-5.40625 32.2031,-6.79688 31.5,-8.09375" transform="matrix(0.992126,0,0,0.992126,1476.73,1179.92)"></path>
<path class="Note" d="M31.5,-8.09375 C29.7031,-11.4063 25.9063,-13.2031 21.2969,-13.2031 C17.9063,-13.2031 14.2031,-12.2031 10.5938,-10.2969 C4,-6.79688 0,-0.90625 0,4.20313 C0,5.59375 0.296875,7 1,8.29688 C2.79688,11.5938 6.59375,13.2969 11.2031,13.2969 C14.5938,13.2969 18.2969,12.4063 21.9063,10.5 C28.5,7 32.5,1.09375 32.5,-4 C32.5,-5.40625 32.2031,-6.79688 31.5,-8.09375" transform="matrix(0.992126,0,0,0.992126,1521.33,1167.52)"></path>
<path class="Note" d="M31.5,-8.09375 C29.7031,-11.4063 25.9063,-13.2031 21.2969,-13.2031 C17.9063,-13.2031 14.2031,-12.2031 10.5938,-10.2969 C4,-6.79688 0,-0.90625 0,4.20313 C0,5.59375 0.296875,7 1,8.29688 C2.79688,11.5938 6.59375,13.2969 11.2031,13.2969 C14.5938,13.2969 18.2969,12.4063 21.9063,10.5 C28.5,7 32.5,1.09375 32.5,-4 C32.5,-5.40625 32.2031,-6.79688 31.5,-8.09375" transform="matrix(0.992126,0,0,0.992126,1565.92,1155.12)"></path>
<path class="Note" d="M31.5,-8.09375 C29.7031,-11.4063 25.9063,-13.2031 21.2969,-13.2031 C17.9063,-13.2031 14.2031,-12.2031 10.5938,-10.2969 C4,-6.79688 0,-0.90625 0,4.20313 C0,5.59375 0.296875,7 1,8.29688 C2.79688,11.5938 6.59375,13.2969 11.2031,13.2969 C14.5938,13.2969 18.2969,12.4063 21.9063,10.5 C28.5,7 32.5,1.09375 32.5,-4 C32.5,-5.40625 32.2031,-6.79688 31.5,-8.09375" transform="matrix(0.992126,0,0,0.992126,1610.52,1179.92)"></path>
<path class="Note" d="M31.5,-8.09375 C29.7031,-11.4063 25.9063,-13.2031 21.2969,-13.2031 C17.9063,-13.2031 14.2031,-12.2031 10.5938,-10.2969 C4,-6.79688 0,-0.90625 0,4.20313 C0,5.59375 0.296875,7 1,8.29688 C2.79688,11.5938 6.59375,13.2969 11.2031,13.2969 C14.5938,13.2969 18.2969,12.4063 21.9063,10.5 C28.5,7 32.5,1.09375 32.5,-4 C32.5,-5.40625 32.2031,-6.79688 31.5,-8.09375" transform="matrix(0.992126,0,0,0.992126,1655.12,1142.72)"></path>
<path class="Note" d="M31.5,-8.09375 C29.7031,-11.4063 25.9063,-13.2031 21.2969,-13.2031 C17.9063,-13.2031 14.2031,-12.2031 10.5938,-10.2969 C4,-6.79688 0,-0.90625 0,4.20313 C0,5.59375 0.296875,7 1,8.29688 C2.79688,11.5938 6.59375,13.2969 11.2031,13.2969 C14.5938,13.2969 18.2969,12.4063 21.9063,10.5 C28.5,7 32.5,1.09375 32.5,-4 C32.5,-5.40625 32.2031,-6.79688 31.5,-8.09375" transform="matrix(0.992126,0,0,0.992126,1726.48,1204.72)"></path>
<path class="Note" d="M31.5,-8.09375 C29.7031,-11.4063 25.9063,-13.2031 21.2969,-13.2031 C17.9063,-13.2031 14.2031,-12.2031 10.5938,-10.2969 C4,-6.79688 0,-0.90625 0,4.20313 C0,5.59375 0.296875,7 1,8.29688 C2.79688,11.5938 6.59375,13.2969 11.2031,13.2969 C14.5938,13.2969 18.2969,12.4063 21.9063,10.5 C28.5,7 32.5,1.09375 32.5,-4 C32.5,-5.40625 32.2031,-6.79688 31.5,-8.09375" transform="matrix(0.992126,0,0,0.992126,1834.54,1192.32)"></path>
<path class="Note" d="M31.5,-8.09375 C29.7031,-11.4063 25.9063,-13.2031 21.2969,-13.2031 C17.9063,-13.2031 14.2031,-12.2031 10.5938,-10.2969 C4,-6.79688 0,-0.90625 0,4.20313 C0,5.59375 0.296875,7 1,8.29688 C2.79688,11.5938 6.59375,13.2969 11.2031,13.2969 C14.5938,13.2969 18.2969,12.4063 21.9063,10.5 C28.5,7 32.5,1.09375 32.5,-4 C32.5,-5.40625 32.2031,-6.79688 31.5,-8.09375" transform="matrix(0.992126,0,0,0.992126,1888.67,1167.52)"></path>
<path class="Note" d="M31.5,-8.09375 C29.7031,-11.4063 25.9063,-13.2031 21.2969,-13.2031 C17.9063,-13.2031 14.2031,-12.2031 10.5938,-10.2969 C4,-6.79688 0,-0.90625 0,4.20313 C0,5.59375 0.296875,7 1,8.29688 C2.79688,11.5938 6.59375,13.2969 11.2031,13.2969 C14.5938,13.2969 18.2969,12.4063 21.9063,10.5 C28.5,7 32.5,1.09375 32.5,-4 C32.5,-5.40625 32.2031,-6.79688 31.5,-8.09375" transform="matrix(0.992126,0,0,0.992126,1942.8,1167.52)"></path>
<path class="Note" d="M31.5,-8.09375 C29.7031,-11.4063 25.9063,-13.2031 21.2969,-13.2031 C17.9063,-13.2031 14.2031,-12.2031 10.5938,-10.2969 C4,-6.79688 0,-0.90625 0,4.20313 C0,5.59375 0.296875,7 1,8.29688 C2.79688,11.5938 6.59375,13.2969 11.2031,13.2969 C14.5938,13.2969 18.2969,12.4063 21.9063,10.5 C28.5,7 32.5,1.09375 32.5,-4 C32.5,-5.40625 32.2031,-6.79688 31.5,-8.09375" transform="matrix(0.992126,0,0,0.992126,1996.93,1179.92)"></path>
<path class="Note" d="M31.5,-8.09375 C29.7031,-11.4063 25.9063,-13.2031 21.2969,-13.2031 C17.9063,-13.2031 14.2031,-12.2031 10.5938,-10.2969 C4,-6.79688 0,-0.90625 0,4.20313 C0,5.59375 0.296875,7 1,8.29688 C2.79688,11.5938 6.59375,13.2969 11.2031,13.2969 C14.5938,13.2969 18.2969,12.4063 21.9063,10.5 C28.5,7 32.5,1.09375 32.5,-4 C32.5,-5.40625 32.2031,-6.79688 31.5,-8.09375" transform="matrix(0.992126,0,0,0.992126,2103.08,1142.72)"></path>
<path class="Note" d="M31.5,-8.09375 C29.7031,-11.4063 25.9063,-13.2031 21.2969,-13.2031 C17.9063,-13.2031 14.2031,-12.2031 10.5938,-10.2969 C4,-6.79688 0,-0.90625 0,4.20313 C0,5.59375 0.296875,7 1,8.29688 C2.79688,11.5938 6.59375,13.2969 11.2031,13.2969 C14.5938,13.2969 18.2969,12.4063 21.9063,10.5 C28.5,7 32.5,1.09375 32.5,-4 C32.5,-5.40625 32.2031,-6.79688 31.5,-8.09375" transform="matrix(0.992126,0,0,0.992126,2151.79,1155.12)"></path>
<path class="Note" d="M31.5,-8.09375 C29.7031,-11.4063 25.9063,-13.2031 21.2969,-13.2031 C17.9063,-13.2031 14.2031,-12.2031 10.5938,-10.2969 C4,-6.79688 0,-0.90625 0,4.20313 C0,5.59375 0.296875,7 1,8.29688 C2.79688,11.5938 6.59375,13.2969 11.2031,13.2969 C14.5938,13.2969 18.2969,12.4063 21.9063,10.5 C28.5,7 32.5,1.09375 32.5,-4 C32.5,-5.40625 32.2031,-6.79688 31.5,-8.09375" transform="matrix(0.992126,0,0,0.992126,2200.49,1142.72)"></path>
<path class="Note" d="M31.5,-8.09375 C29.7031,-11.4063 25.9063,-13.2031 21.2969,-13.2031 C17.9063,-13.2031 14.2031,-12.2031 10.5938,-10.2969 C4,-6.79688 0,-0.90625 0,4.20313 C0,5.59375 0.296875,7 1,8.29688 C2.79688,11.5938 6.59375,13.2969 11.2031,13.2969 C14.5938,13.2969 18.2969,12.4063 21.9063,10.5 C28.5,7 32.5,1.09375 32.5,-4 C32.5,-5.40625 32.2031,-6.79688 31.5,-8.09375" transform="matrix(0.992126,0,0,0.992126,2249.2,1179.92)"></path>
<path class="Note" d="M31.5,-8.09375 C29.7031,-11.4063 25.9063,-13.2031 21.2969,-13.2031 C17.9063,-13.2031 14.2031,-12.2031 10.5938,-10.2969 C4,-6.79688 0,-0.90625 0,4.20313 C0,5.59375 0.296875,7 1,8.29688 C2.79688,11.5938 6.59375,13.2969 11.2031,13.2969 C14.5938,13.2969 18.2969,12.4063 21.9063,10.5 C28.5,7 32.5,1.09375 32.5,-4 C32.5,-5.40625 32.2031,-6.79688 31.5,-8.09375" transform="matrix(0.992126,0,0,0.992126,2297.9,1167.52)"></path>
<path class="Note" d="M31.5,-8.09375 C29.7031,-11.4063 25.9063,-13.2031 21.2969,-13.2031 C17.9063,-13.2031 14.2031,-12.2031 10.5938,-10.2969 C4,-6.79688 0,-0.90625 0,4.20313 C0,5.59375 0.296875,7 1,8.29688 C2.79688,11.5938 6.59375,13.2969 11.2031,13.2969 C14.5938,13.2969 18.2969,12.4063 21.9063,10.5 C28.5,7 32.5,1.09375 32.5,-4 C32.5,-5.40625 32.2031,-6.79688 31.5,-8.09375" transform="matrix(0.992126,0,0,0.992126,2346.61,1155.12)"></path>
<path class="Note" d="M31.5,-8.09375 C29.7031,-11.4063 25.9063,-13.2031 21.2969,-13.2031 C17.9063,-13.2031 14.2031,-12.2031 10.5938,-10.2969 C4,-6.79688 0,-0.90625 0,4.20313 C0,5.59375 0.296875,7 1,8.29688 C2.79688,11.5938 6.59375,13.2969 11.2031,13.2969 C14.5938,13.2969 18.2969,12.4063 21.9063,10.5 C28.5,7 32.5,1.09375 32.5,-4 C32.5,-5.40625 32.2031,-6.79688 31.5,-8.09375" transform="matrix(0.992126,0,0,0.992126,2395.31,1142.72)"></path>
<path class="Note" d="M31.5,-8.09375 C29.7031,-11.4063 25.9063,-13.2031 21.2969,-13.2031 C17.9063,-13.2031 14.2031,-12.2031 10.5938,-10.2969 C4,-6.79688 0,-0.90625 0,4.20313 C0,5.59375 0.296875,7 1,8.29688 C2.79688,11.5938 6.59375,13.2969 11.2031,13.2969 C14.5938,13.2969 18.2969,12.4063 21.9063,10.5 C28.5,7 32.5,1.09375 32.5,-4 C32.5,-5.40625 32.2031,-6.79688 31.5,-8.09375" transform="matrix(0.992126,0,0,0.992126,2444.02,1130.31)"></path>
<path class="Note" d="M31.5,-8.09375 C29.7031,-11.4063 25.9063,-13.2031 21.2969,-13.2031 C17.9063,-13.2031 14.2031,-12.2031 10.5938,-10.2969 C4,-6.79688 0,-0.90625 0,4.20313 C0,5.59375 0.296875,7 1,8.29688 C2.79688,11.5938 6.59375,13.2969 11.2031,13.2969 C14.5938,13.2969 18.2969,12.4063 21.9063,10.5 C28.5,7 32.5,1.09375 32.5,-4 C32.5,-5.40625 32.2031,-6.79688 31.5,-8.09375" transform="matrix(0.992126,0,0,0.992126,2550.17,1142.72)"></path>
<path class="Note" d="M31.5,-8.09375 C29.7031,-11.4063 25.9063,-13.2031 21.2969,-13.2031 C17.9063,-13.2031 14.2031,-12.2031 10.5938,-10.2969 C4,-6.79688 0,-0.90625 0,4.20313 C0,5.59375 0.296875,7 1,8.29688 C2.79688,11.5938 6.59375,13.2969 11.2031,13.2969 C14.5938,13.2969 18.2969,12.4063 21.9063,10.5 C28.5,7 32.5,1.09375 32.5,-4 C32.5,-5.40625 32.2031,-6.79688 31.5,-8.09375" transform="matrix(0.992126,0,0,0.992126,2602.17,1155.12)"></path>
<path class="Note" d="M31.5,-8.14063 C29.7031,-11.4375 25.9063,-13.2344 21.2969,-13.2344 C17.9063,-13.2344 14.2031,-12.2344 10.5938,-10.3438 C4,-6.84375 0,-0.9375 0,4.15625 C0,5.5625 0.296875,6.96875 1,8.26563 C2.79688,11.5781 6.59375,13.2813 11.2031,13.2813 C14.5938,13.2813 18.2969,12.375 21.9063,10.4844 C28.5,6.96875 32.5,1.0625 32.5,-4.04688 C32.5,-5.4375 32.2031,-6.84375 31.5,-8.14063 M27.2031,-1.34375 C25.5,0.359375 22.0938,2.45313 18.5,4.46875 C14.9063,6.46875 11.2969,7.96875 8.90625,8.46875 C8.40625,8.57813 7.90625,8.67188 7.40625,8.67188 C5.79688,8.67188 4.59375,8.07813 3.90625,6.76563 C3.59375,6.26563 3.40625,5.67188 3.40625,5.0625 C3.40625,3.96875 4.09375,2.65625 5.20313,1.5625 C6.90625,-0.140625 10.2031,-2.23438 13.7969,-4.23438 C17.4063,-6.23438 21,-7.73438 23.4063,-8.23438 C23.9063,-8.34375 24.4063,-8.4375 24.9063,-8.4375 C26.5,-8.4375 27.7969,-7.84375 28.5,-6.54688 C28.7969,-6.04688 28.9063,-5.4375 28.9063,-4.84375 C28.9063,-3.73438 28.2969,-2.54688 27.2031,-1.34375" transform="matrix(0.992126,0,0,0.992126,2654.17,1142.72)"></path>
<path class="Clef" d="M63.3594,-5.92188 C62.125,-11.3438 59.4844,-15.1719 58.7031,-16.2031 C55.5156,-20.4844 51.5,-23.3281 46.8125,-24.6875 C43.7031,-25.5625 40.7031,-25.6875 38.2813,-25.5 C37.2344,-31.5156 36.2344,-37.3906 35.3281,-42.8438 C40.7813,-49.0156 44.4063,-54.8125 46.6875,-59.1094 C50.1563,-65.6875 51.2969,-70.2656 51.3594,-70.4688 C53.0781,-75.6875 53.4375,-83.3906 52.3281,-91.5938 C51.3281,-99.1406 49.2344,-105.859 46.875,-109.109 C45.8594,-110.531 44.7969,-111.266 43.7656,-111.266 C42.5469,-111.266 40.0313,-110.031 37.1406,-107.25 C34.8438,-105.063 31.5781,-101.172 29.0156,-95.1563 C26.0156,-88.0938 25.7969,-78.6094 26.1563,-71.8906 C26.5313,-64.6094 27.6406,-58.9219 27.6563,-58.875 C27.6719,-58.7813 27.9375,-57.2813 28.375,-54.7188 C28.1563,-54.4844 27.9063,-54.2656 27.6563,-54.0156 C26.625,-53.0156 25.4375,-51.8906 24.0469,-50.5 C23.1875,-49.6406 22.2344,-48.7344 21.2344,-47.7656 C12.7969,-39.625 0,-27.2969 0,-8.14063 C0,-3.4375 0.90625,0.984375 2.6875,5 C4.26563,8.59375 6.5625,11.875 9.5,14.75 C17.2344,22.3125 27.8281,25.5156 34.875,25.3594 C37.8281,25.2813 40.4688,25.0469 42.8594,24.5938 C44.6875,34.2031 45.8281,41.2344 45.8594,46.5781 C45.9063,53.0938 44.25,57.0781 40.3594,59.8438 C37.9219,61.5781 35.1094,62.5313 32.0156,62.6719 C29.4219,62.7969 27.1563,62.3281 25.7344,61.9219 L25.7188,61.9219 C25.7188,61.9219 25.4375,61.8281 25.4219,61.6406 C25.4063,61.4531 25.7656,61.4063 25.7656,61.4063 L25.7969,61.4063 C27.7188,60.9688 31.2813,59.7344 33.6406,56.4375 C35.4375,53.9063 36.3125,49.2813 34.4688,45.3438 C33.3594,42.9531 30.8594,40 25.2344,39.5469 C22.7344,39.3438 20.4688,39.8594 18.4688,41.0625 C16.6563,42.1406 15.1563,43.7813 14.1094,45.7813 C11.6563,50.4844 12.1094,56.2188 15.2344,60.0625 C18.2031,63.6875 22.8125,66 28.25,66.5781 C29.1094,66.6719 29.9531,66.7031 30.7969,66.7031 C35.2344,66.7031 39.625,65.5 43.2031,63.2969 C46.8594,60.7188 48.9844,56.7344 49.6563,51.1094 C50.2188,46.4688 49.8281,40.5469 48.4375,32.4688 C48.0781,30.375 47.5313,27.3438 46.875,23.5938 C52.625,21.6719 56.7813,18.0938 60.5469,12.2344 C63.8438,6.5 64.7813,0.390625 63.3594,-5.92188 M29.1406,20.2969 C24.5,19.0781 20.0625,16.5781 16.3125,13.0625 C15,11.8438 13.125,9.67188 11.6563,6.28125 C10.2969,3.10938 9.625,-0.328125 9.6875,-3.90625 C9.75,-8.60938 11.0625,-13.4375 13.5625,-18.2188 C16.4844,-23.7969 21.0469,-29.3281 27.1094,-34.6563 C28.5625,-35.9375 29.9375,-37.2188 31.2188,-38.5 C31.9844,-34.2344 32.8125,-29.5469 33.6875,-24.6719 C29.8438,-23.4063 25.0938,-20.25 21.9844,-14.5938 C18.4375,-8.03125 18.5781,-2.5 19.3125,0.984375 C20.25,5.4375 22.7813,9.20313 26.2344,11.2969 C27.1719,11.8594 31.2969,13.9844 33.1406,13.4063 C33.5156,13.2969 33.7813,13.0625 33.9219,12.7344 C34.4375,11.5625 33.4063,10.9219 31.8594,9.96875 C31.25,9.59375 30.5781,9.17188 29.8594,8.64063 C26.5313,6.15625 25.0781,1.70313 26.1563,-2.6875 C26.7344,-5.07813 28.0156,-7.25 29.8594,-8.95313 C31.5156,-10.5 33.5625,-11.5938 35.9375,-12.2344 C37.9844,-0.984375 40.0469,10.1719 41.6875,18.5313 C41.8125,19.2188 41.9531,19.8906 42.0781,20.5625 C37.7031,21.5 33.3594,21.4063 29.1406,20.2969 M40.4688,-12.9063 C50.8125,-13.375 55.0781,-5.9375 55.9688,-1.10938 C56.4375,1.4375 56.4375,5.875 54.8906,10.0938 C53.7188,13.2656 51.2656,17.3438 46.125,19.4063 C46.0625,18.9844 45.9844,18.5469 45.9063,18.125 C44.3594,9.34375 42.4219,-1.65625 40.4688,-12.9063 M33.1406,-83.8594 C34.9219,-89.5938 37.6563,-92.8438 39.6563,-94.5781 C41.4063,-96.0938 43.0469,-96.8125 43.9688,-96.8125 C44.1094,-96.8125 44.2344,-96.7813 44.3281,-96.75 C44.7969,-96.6094 45.3281,-96.0469 45.7969,-95.1719 C48.1094,-90.8906 47.3594,-84.1719 46.0156,-79.7344 C44.3906,-74.3281 41.4688,-68.7188 32.6719,-59.1094 C32.5,-60.2188 32.3438,-61.2656 32.1875,-62.25 C30.9375,-70.5313 31.2656,-77.8125 33.1406,-83.8594" transform="matrix(0.992126,0,0,0.992126,356.457,708.661)"></path>
<path class="Clef" d="M63.3594,-5.92188 C62.125,-11.3438 59.4844,-15.1719 58.7031,-16.2031 C55.5156,-20.4844 51.5,-23.3281 46.8125,-24.6875 C43.7031,-25.5625 40.7031,-25.6875 38.2813,-25.5 C37.2344,-31.5156 36.2344,-37.3906 35.3281,-42.8438 C40.7813,-49.0156 44.4063,-54.8125 46.6875,-59.1094 C50.1563,-65.6875 51.2969,-70.2656 51.3594,-70.4688 C53.0781,-75.6875 53.4375,-83.3906 52.3281,-91.5938 C51.3281,-99.1406 49.2344,-105.859 46.875,-109.109 C45.8594,-110.531 44.7969,-111.266 43.7656,-111.266 C42.5469,-111.266 40.0313,-110.031 37.1406,-107.25 C34.8438,-105.063 31.5781,-101.172 29.0156,-95.1563 C26.0156,-88.0938 25.7969,-78.6094 26.1563,-71.8906 C26.5313,-64.6094 27.6406,-58.9219 27.6563,-58.875 C27.6719,-58.7813 27.9375,-57.2813 28.375,-54.7188 C28.1563,-54.4844 27.9063,-54.2656 27.6563,-54.0156 C26.625,-53.0156 25.4375,-51.8906 24.0469,-50.5 C23.1875,-49.6406 22.2344,-48.7344 21.2344,-47.7656 C12.7969,-39.625 0,-27.2969 0,-8.14063 C0,-3.4375 0.90625,0.984375 2.6875,5 C4.26563,8.59375 6.5625,11.875 9.5,14.75 C17.2344,22.3125 27.8281,25.5156 34.875,25.3594 C37.8281,25.2813 40.4688,25.0469 42.8594,24.5938 C44.6875,34.2031 45.8281,41.2344 45.8594,46.5781 C45.9063,53.0938 44.25,57.0781 40.3594,59.8438 C37.9219,61.5781 35.1094,62.5313 32.0156,62.6719 C29.4219,62.7969 27.1563,62.3281 25.7344,61.9219 L25.7188,61.9219 C25.7188,61.9219 25.4375,61.8281 25.4219,61.6406 C25.4063,61.4531 25.7656,61.4063 25.7656,61.4063 L25.7969,61.4063 C27.7188,60.9688 31.2813,59.7344 33.6406,56.4375 C35.4375,53.9063 36.3125,49.2813 34.4688,45.3438 C33.3594,42.9531 30.8594,40 25.2344,39.5469 C22.7344,39.3438 20.4688,39.8594 18.4688,41.0625 C16.6563,42.1406 15.1563,43.7813 14.1094,45.7813 C11.6563,50.4844 12.1094,56.2188 15.2344,60.0625 C18.2031,63.6875 22.8125,66 28.25,66.5781 C29.1094,66.6719 29.9531,66.7031 30.7969,66.7031 C35.2344,66.7031 39.625,65.5 43.2031,63.2969 C46.8594,60.7188 48.9844,56.7344 49.6563,51.1094 C50.2188,46.4688 49.8281,40.5469 48.4375,32.4688 C48.0781,30.375 47.5313,27.3438 46.875,23.5938 C52.625,21.6719 56.7813,18.0938 60.5469,12.2344 C63.8438,6.5 64.7813,0.390625 63.3594,-5.92188 M29.1406,20.2969 C24.5,19.0781 20.0625,16.5781 16.3125,13.0625 C15,11.8438 13.125,9.67188 11.6563,6.28125 C10.2969,3.10938 9.625,-0.328125 9.6875,-3.90625 C9.75,-8.60938 11.0625,-13.4375 13.5625,-18.2188 C16.4844,-23.7969 21.0469,-29.3281 27.1094,-34.6563 C28.5625,-35.9375 29.9375,-37.2188 31.2188,-38.5 C31.9844,-34.2344 32.8125,-29.5469 33.6875,-24.6719 C29.8438,-23.4063 25.0938,-20.25 21.9844,-14.5938 C18.4375,-8.03125 18.5781,-2.5 19.3125,0.984375 C20.25,5.4375 22.7813,9.20313 26.2344,11.2969 C27.1719,11.8594 31.2969,13.9844 33.1406,13.4063 C33.5156,13.2969 33.7813,13.0625 33.9219,12.7344 C34.4375,11.5625 33.4063,10.9219 31.8594,9.96875 C31.25,9.59375 30.5781,9.17188 29.8594,8.64063 C26.5313,6.15625 25.0781,1.70313 26.1563,-2.6875 C26.7344,-5.07813 28.0156,-7.25 29.8594,-8.95313 C31.5156,-10.5 33.5625,-11.5938 35.9375,-12.2344 C37.9844,-0.984375 40.0469,10.1719 41.6875,18.5313 C41.8125,19.2188 41.9531,19.8906 42.0781,20.5625 C37.7031,21.5 33.3594,21.4063 29.1406,20.2969 M40.4688,-12.9063 C50.8125,-13.375 55.0781,-5.9375 55.9688,-1.10938 C56.4375,1.4375 56.4375,5.875 54.8906,10.0938 C53.7188,13.2656 51.2656,17.3438 46.125,19.4063 C46.0625,18.9844 45.9844,18.5469 45.9063,18.125 C44.3594,9.34375 42.4219,-1.65625 40.4688,-12.9063 M33.1406,-83.8594 C34.9219,-89.5938 37.6563,-92.8438 39.6563,-94.5781 C41.4063,-96.0938 43.0469,-96.8125 43.9688,-96.8125 C44.1094,-96.8125 44.2344,-96.7813 44.3281,-96.75 C44.7969,-96.6094 45.3281,-96.0469 45.7969,-95.1719 C48.1094,-90.8906 47.3594,-84.1719 46.0156,-79.7344 C44.3906,-74.3281 41.4688,-68.7188 32.6719,-59.1094 C32.5,-60.2188 32.3438,-61.2656 32.1875,-62.25 C30.9375,-70.5313 31.2656,-77.8125 33.1406,-83.8594" transform="matrix(0.992126,0,0,0.992126,232.441,1179.92)"></path>
<path class="TimeSig" d="M3.59375,12.625 L20.7656,12.625 L20.7656,20.0781 L12.5469,20.0781 C11.7656,20.0781 11.125,20.7031 11.125,21.4844 L11.125,23.3906 C11.125,24.1719 11.7656,24.7969 12.5469,24.7969 L42.7969,24.7969 C43.5781,24.7969 44.2031,24.1719 44.2031,23.3906 L44.2031,21.4844 C44.2031,20.7031 43.5781,20.0781 42.7969,20.0781 L33.8594,20.0781 L33.8594,12.625 L42.7969,12.625 C43.5781,12.625 44.2031,12 44.2031,11.2188 L44.2031,9.3125 C44.2031,8.53125 43.5781,7.90625 42.7969,7.90625 L33.8594,7.90625 L33.8594,-8.0625 C33.8594,-8.59375 33.5469,-9.07813 33.0781,-9.3125 L31.8594,-9.92188 C31.3281,-10.1719 30.7031,-10.0781 30.2656,-9.6875 L21.2188,-1.375 C20.9375,-1.09375 20.7656,-0.734375 20.7656,-0.328125 L20.7656,7.90625 L9.25,7.90625 C9.25,7.90625 20.375,-4.125 32.2188,-19.8906 C33.0781,-21.0469 32.5781,-22.0938 32.3906,-22.2813 L30.2188,-24.4844 C29.9531,-24.75 29.5938,-24.9063 29.2188,-24.9063 C28.625,-24.9063 15.0625,-24.875 14.3438,-24.9063 C13.625,-24.9219 13.0938,-24.2969 13.0156,-23.6875 C13.0156,-23.6875 12.4844,-16.3281 9.875,-8.1875 C7.28125,-0.078125 4.34375,4.90625 1.6875,8.53125 C1.6875,8.53125 1.14063,9.51563 1.5,10.2656 C1.84375,11.0156 2.48438,12.0938 2.48438,12.0938 C2.48438,12.0938 2.73438,12.625 3.59375,12.625" transform="matrix(0.992126,0,0,0.992126,443.376,659.187)"></path>
<path class="TimeSig" d="M3.59375,12.625 L20.7656,12.625 L20.7656,20.0781 L12.5469,20.0781 C11.7656,20.0781 11.125,20.7031 11.125,21.4844 L11.125,23.3906 C11.125,24.1719 11.7656,24.7969 12.5469,24.7969 L42.7969,24.7969 C43.5781,24.7969 44.2031,24.1719 44.2031,23.3906 L44.2031,21.4844 C44.2031,20.7031 43.5781,20.0781 42.7969,20.0781 L33.8594,20.0781 L33.8594,12.625 L42.7969,12.625 C43.5781,12.625 44.2031,12 44.2031,11.2188 L44.2031,9.3125 C44.2031,8.53125 43.5781,7.90625 42.7969,7.90625 L33.8594,7.90625 L33.8594,-8.0625 C33.8594,-8.59375 33.5469,-9.07813 33.0781,-9.3125 L31.8594,-9.92188 C31.3281,-10.1719 30.7031,-10.0781 30.2656,-9.6875 L21.2188,-1.375 C20.9375,-1.09375 20.7656,-0.734375 20.7656,-0.328125 L20.7656,7.90625 L9.25,7.90625 C9.25,7.90625 20.375,-4.125 32.2188,-19.8906 C33.0781,-21.0469 32.5781,-22.0938 32.3906,-22.2813 L30.2188,-24.4844 C29.9531,-24.75 29.5938,-24.9063 29.2188,-24.9063 C28.625,-24.9063 15.0625,-24.875 14.3438,-24.9063 C13.625,-24.9219 13.0938,-24.2969 13.0156,-23.6875 C13.0156,-23.6875 12.4844,-16.3281 9.875,-8.1875 C7.28125,-0.078125 4.34375,4.90625 1.6875,8.53125 C1.6875,8.53125 1.14063,9.51563 1.5,10.2656 C1.84375,11.0156 2.48438,12.0938 2.48438,12.0938 C2.48438,12.0938 2.73438,12.625 3.59375,12.625" transform="matrix(0.992126,0,0,0.992126,443.376,708.53)"></path>
<path class="Beam" d="M1082.59,634.252 L1214.88,634.252 L1214.88,646.654 L1082.59,646.654 L1082.59,634.252 " fill-rule="evenodd"></path>
<path class="Beam" d="M1324.43,653.182 L1370.34,646.59 L1370.34,659.119 L1324.43,665.711 L1324.43,653.182 " fill-rule="evenodd"></path>
<path class="Beam" d="M2211.32,634.252 L2343.6,634.252 L2343.6,646.654 L2211.32,646.654 L2211.32,634.252 " fill-rule="evenodd"></path>
<path class="Beam" d="M2453.16,653.182 L2499.07,646.59 L2499.07,659.119 L2453.16,665.711 L2453.16,653.182 " fill-rule="evenodd"></path>
<path class="Beam" d="M879.882,1055.91 L1017.29,1055.91 L1017.29,1068.31 L879.882,1068.31 L879.882,1055.91 " fill-rule="evenodd"></path>
<path class="Beam" d="M1131.29,1074.83 L1178.91,1068.25 L1178.91,1080.77 L1131.29,1087.35 L1131.29,1074.83 " fill-rule="evenodd"></path>
<path class="Beam" d="M1506.24,1099.63 L1553.56,1093.05 L1553.56,1105.57 L1506.24,1112.15 L1506.24,1099.63 " fill-rule="evenodd"></path>
<path class="Beam" d="M1595.43,1072.1 L1642.76,1098.42 L1642.76,1112.61 L1595.43,1086.29 L1595.43,1072.1 " fill-rule="evenodd"></path>
<path class="Beam" d="M2103.08,1223.24 L2251.93,1248.5 L2251.93,1261.08 L2103.08,1235.82 L2103.08,1223.24 " fill-rule="evenodd"></path>
<path class="Beam" d="M2327.41,1074.88 L2476.26,1049.62 L2476.26,1062.2 L2327.41,1087.46 L2327.41,1074.88 " fill-rule="evenodd"></path>
</svg>
