<?xml version="1.0" encoding="UTF-8" standalone="no"?>
<svg baseprofile="tiny" height="4209.45px" version="1.2" viewbox="0 0 2976.38 4209.45" width="2976.38px" xmlns="http://www.w3.org/2000/svg" xmlns:xlink="http://www.w3.org/1999/xlink">
<title>hymn8</title>
<desc>Generated by MuseScore 3.6.2</desc>
<polyline class="StaffLines" fill="none" points="336.614,634.252 2763.78,634.252" stroke="#000000" stroke-linejoin="bevel" stroke-width="2.73"></polyline>
<polyline class="StaffLines" fill="none" points="336.614,659.055 2763.78,659.055" stroke="#000000" stroke-linejoin="bevel" stroke-width="2.73"></polyline>
<polyline class="StaffLines" fill="none" points="336.614,683.858 2763.78,683.858" stroke="#000000" stroke-linejoin="bevel" stroke-width="2.73"></polyline>
<polyline class="StaffLines" fill="none" points="336.614,708.661 2763.78,708.661" stroke="#000000" stroke-linejoin="bevel" stroke-width="2.73"></polyline>
<polyline class="StaffLines" fill="none" points="336.614,733.465 2763.78,733.465" stroke="#000000" stroke-linejoin="bevel" stroke-width="2.73"></polyline>
<polyline class="StaffLines" fill="none" points="212.598,1105.51 2763.78,1105.51" stroke="#000000" stroke-linejoin="bevel" stroke-width="2.73"></polyline>
<polyline class="StaffLines" fill="none" points="212.598,1130.31 2763.78,1130.31" stroke="#000000" stroke-linejoin="bevel" stroke-width="2.73"></polyline>
<polyline class="StaffLines" fill="none" points="212.598,1155.12 2763.78,1155.12" stroke="#000000" stroke-linejoin="bevel" stroke-width="2.73"></polyline>
<polyline class="StaffLines" fill="none" points="212.598,1179.92 2763.78,1179.92" stroke="#000000" stroke-linejoin="bevel" stroke-width="2.73"></polyline>
<polyline class="StaffLines" fill="none" points="212.598,1204.72 2763.78,1204.72" stroke="#000000" stroke-linejoin="bevel" stroke-width="2.73"></polyline>
<path class="MeasureNumber" d="M229.958,1027.59 L228.802,1027.59 C226.598,1029.23 222.364,1030.62 219.473,1030.62 L219.005,1032.39 L221.755,1032.39 C224.192,1032.39 224.473,1032.47 224.473,1033.19 C224.473,1033.55 224.473,1033.55 224.083,1034.98 L219.802,1050.98 C219.27,1052.98 219.239,1053.11 218.88,1053.47 C218.473,1053.86 217.63,1053.98 215.52,1054.03 L213.802,1054.03 L213.598,1055.91 L228.395,1055.91 L228.63,1054.03 L226.473,1054.03 C223.88,1054.03 223.317,1053.83 223.317,1052.95 C223.317,1052.67 223.473,1051.75 223.677,1050.98 L229.958,1027.59 M254.083,1027.59 L251.911,1027.59 L233.286,1046.87 L233.286,1048.55 L244.552,1048.55 L243.911,1050.98 C243.395,1052.98 243.364,1053.11 242.989,1053.47 C242.598,1053.86 241.755,1054.03 239.63,1054.03 L238.911,1054.03 L238.677,1055.91 L251.114,1055.91 L251.317,1054.03 L250.598,1054.03 C247.958,1054.03 247.395,1053.83 247.395,1052.95 C247.395,1052.62 247.473,1052.23 247.802,1050.98 L248.473,1048.55 L253.036,1048.55 L253.63,1046.39 L249.036,1046.39 L254.083,1027.59 M245.161,1046.39 L236.192,1046.39 L248.552,1033.67 L245.161,1046.39 "></path>
<polyline class="BarLine" points="605.01,632.888 605.01,734.829" stroke="#000000" stroke-linejoin="bevel" stroke-width="4.46"></polyline>
<polyline class="BarLine" points="798.15,632.888 798.15,734.829" stroke="#000000" stroke-linejoin="bevel" stroke-width="4.46"></polyline>
<polyline class="BarLine" points="962.641,632.888 962.641,734.829" stroke="#000000" stroke-linejoin="bevel" stroke-width="4.46"></polyline>
<polyline class="BarLine" points="1169.91,632.888 1169.91,734.829" stroke="#000000" stroke-linejoin="bevel" stroke-width="4.46"></polyline>
<polyline class="BarLine" points="1334.4,632.888 1334.4,734.829" stroke="#000000" stroke-linejoin="bevel" stroke-width="4.46"></polyline>
<polyline class="BarLine" points="1498.89,632.888 1498.89,734.829" stroke="#000000" stroke-linejoin="bevel" stroke-width="4.46"></polyline>
<polyline class="BarLine" points="1663.38,632.888 1663.38,734.829" stroke="#000000" stroke-linejoin="bevel" stroke-width="4.46"></polyline>
<polyline class="BarLine" points="1870.65,632.888 1870.65,734.829" stroke="#000000" stroke-linejoin="bevel" stroke-width="4.46"></polyline>
<polyline class="BarLine" points="2035.14,632.888 2035.14,734.829" stroke="#000000" stroke-linejoin="bevel" stroke-width="4.46"></polyline>
<polyline class="BarLine" points="2242.41,632.888 2242.41,734.829" stroke="#000000" stroke-linejoin="bevel" stroke-width="4.46"></polyline>
<polyline class="BarLine" points="2406.9,632.888 2406.9,734.829" stroke="#000000" stroke-linejoin="bevel" stroke-width="4.46"></polyline>
<polyline class="BarLine" points="2614.17,632.888 2614.17,734.829" stroke="#000000" stroke-linejoin="bevel" stroke-width="4.46"></polyline>
<polyline class="BarLine" points="2761.55,632.888 2761.55,734.829" stroke="#000000" stroke-linejoin="bevel" stroke-width="4.46"></polyline>
<polyline class="BarLine" points="985.939,1104.15 985.939,1206.09" stroke="#000000" stroke-linejoin="bevel" stroke-width="4.46"></polyline>
<polyline class="BarLine" points="1648.42,1104.15 1648.42,1206.09" stroke="#000000" stroke-linejoin="bevel" stroke-width="4.46"></polyline>
<polyline class="BarLine" points="2310.91,1104.15 2310.91,1206.09" stroke="#000000" stroke-linejoin="bevel" stroke-width="4.46"></polyline>
<polyline class="BarLine" points="2739.6,1104.15 2739.6,1206.09" stroke="#000000" stroke-linejoin="bevel" stroke-width="4.46"></polyline>
<polyline class="BarLine" points="2756.96,1104.15 2756.96,1206.09" stroke="#000000" stroke-linejoin="bevel" stroke-width="13.64"></polyline>
<polyline class="LedgerLine" points="519.468,758.268 569.066,758.268" stroke="#000000" stroke-linejoin="bevel" stroke-width="3.97"></polyline>
<polyline class="LedgerLine" points="639.487,758.268 689.085,758.268" stroke="#000000" stroke-linejoin="bevel" stroke-width="3.97"></polyline>
<polyline class="LedgerLine" points="717.795,758.268 767.394,758.268" stroke="#000000" stroke-linejoin="bevel" stroke-width="3.97"></polyline>
<polyline class="LedgerLine" points="2345.39,1229.53 2394.99,1229.53" stroke="#000000" stroke-linejoin="bevel" stroke-width="3.97"></polyline>
<polyline class="Stem" points="529.513,761.601 529.513,817.175" stroke="#000000" stroke-linejoin="bevel" stroke-width="2.73"></polyline>
<polyline class="Stem" points="649.532,761.601 649.532,817.175" stroke="#000000" stroke-linejoin="bevel" stroke-width="2.73"></polyline>
<polyline class="Stem" points="727.84,761.601 727.84,817.175" stroke="#000000" stroke-linejoin="bevel" stroke-width="2.73"></polyline>
<polyline class="Stem" points="833.99,749.2 833.99,807.874" stroke="#000000" stroke-linejoin="bevel" stroke-width="2.73"></polyline>
<polyline class="Stem" points="892.332,749.2 892.332,807.874" stroke="#000000" stroke-linejoin="bevel" stroke-width="2.73"></polyline>
<polyline class="Stem" points="1027.99,717.888 1027.99,634.252" stroke="#000000" stroke-linejoin="bevel" stroke-width="2.73"></polyline>
<polyline class="Stem" points="1078.55,730.29 1078.55,646.654" stroke="#000000" stroke-linejoin="bevel" stroke-width="2.73"></polyline>
<polyline class="Stem" points="1129.11,742.691 1129.11,659.055" stroke="#000000" stroke-linejoin="bevel" stroke-width="2.73"></polyline>
<polyline class="Stem" points="1205.75,736.798 1205.75,798.573" stroke="#000000" stroke-linejoin="bevel" stroke-width="2.73"></polyline>
<polyline class="Stem" points="1264.09,736.798 1264.09,798.573" stroke="#000000" stroke-linejoin="bevel" stroke-width="2.73"></polyline>
<polyline class="Stem" points="1370.24,724.397 1370.24,789.272" stroke="#000000" stroke-linejoin="bevel" stroke-width="2.73"></polyline>
<polyline class="Stem" points="1428.58,724.397 1428.58,789.272" stroke="#000000" stroke-linejoin="bevel" stroke-width="2.73"></polyline>
<polyline class="Stem" points="1534.73,711.995 1534.73,779.97" stroke="#000000" stroke-linejoin="bevel" stroke-width="2.73"></polyline>
<polyline class="Stem" points="1593.07,711.995 1593.07,779.97" stroke="#000000" stroke-linejoin="bevel" stroke-width="2.73"></polyline>
<polyline class="Stem" points="1699.22,699.593 1699.22,770.669" stroke="#000000" stroke-linejoin="bevel" stroke-width="2.73"></polyline>
<polyline class="Stem" points="1749.78,711.995 1749.78,779.97" stroke="#000000" stroke-linejoin="bevel" stroke-width="2.73"></polyline>
<polyline class="Stem" points="1800.34,724.397 1800.34,789.272" stroke="#000000" stroke-linejoin="bevel" stroke-width="2.73"></polyline>
<polyline class="Stem" points="1906.49,711.995 1906.49,779.97" stroke="#000000" stroke-linejoin="bevel" stroke-width="2.73"></polyline>
<polyline class="Stem" points="1964.83,674.79 1964.83,752.067" stroke="#000000" stroke-linejoin="bevel" stroke-width="2.73"></polyline>
<polyline class="Stem" points="2100.49,668.282 2100.49,597.047" stroke="#000000" stroke-linejoin="bevel" stroke-width="2.73"></polyline>
<polyline class="Stem" points="2151.05,680.683 2151.05,606.348" stroke="#000000" stroke-linejoin="bevel" stroke-width="2.73"></polyline>
<polyline class="Stem" points="2172.1,699.593 2172.1,770.669" stroke="#000000" stroke-linejoin="bevel" stroke-width="2.73"></polyline>
<polyline class="Stem" points="2278.25,711.995 2278.25,779.97" stroke="#000000" stroke-linejoin="bevel" stroke-width="2.73"></polyline>
<polyline class="Stem" points="2336.59,711.995 2336.59,779.97" stroke="#000000" stroke-linejoin="bevel" stroke-width="2.73"></polyline>
<polyline class="Stem" points="2442.74,699.593 2442.74,770.669" stroke="#000000" stroke-linejoin="bevel" stroke-width="2.73"></polyline>
<polyline class="Stem" points="2493.3,687.192 2493.3,761.368" stroke="#000000" stroke-linejoin="bevel" stroke-width="2.73"></polyline>
<polyline class="Stem" points="2543.86,674.79 2543.86,752.067" stroke="#000000" stroke-linejoin="bevel" stroke-width="2.73"></polyline>
<polyline class="Stem" points="2650.01,662.389 2650.01,742.766" stroke="#000000" stroke-linejoin="bevel" stroke-width="2.73"></polyline>
<polyline class="Stem" points="359.294,1146.05 359.294,1223.33" stroke="#000000" stroke-linejoin="bevel" stroke-width="2.73"></polyline>
<polyline class="Stem" points="567.886,1158.45 567.886,1232.63" stroke="#000000" stroke-linejoin="bevel" stroke-width="2.73"></polyline>
<polyline class="Stem" points="776.478,1170.85 776.478,1241.93" stroke="#000000" stroke-linejoin="bevel" stroke-width="2.73"></polyline>
<polyline class="Stem" points="1021.78,1170.85 1021.78,1241.93" stroke="#000000" stroke-linejoin="bevel" stroke-width="2.73"></polyline>
<polyline class="Stem" points="1230.37,1183.25 1230.37,1251.23" stroke="#000000" stroke-linejoin="bevel" stroke-width="2.73"></polyline>
<polyline class="Stem" points="1438.96,1208.06 1438.96,1269.83" stroke="#000000" stroke-linejoin="bevel" stroke-width="2.73"></polyline>
<polyline class="Stem" points="1713.77,1189.15 1713.77,1105.51" stroke="#000000" stroke-linejoin="bevel" stroke-width="2.73"></polyline>
<polyline class="Stem" points="1922.37,1201.55 1922.37,1117.91" stroke="#000000" stroke-linejoin="bevel" stroke-width="2.73"></polyline>
<polyline class="Stem" points="2101.45,1220.46 2101.45,1279.13" stroke="#000000" stroke-linejoin="bevel" stroke-width="2.73"></polyline>
<polyline class="Stem" points="2384.94,1226.35 2384.94,1142.72" stroke="#000000" stroke-linejoin="bevel" stroke-width="2.73"></polyline>
<path class="Note" d="M31.5,-8.09375 C29.7031,-11.4063 25.9063,-13.2031 21.2969,-13.2031 C17.9063,-13.2031 14.2031,-12.2031 10.5938,-10.2969 C4,-6.79688 0,-0.90625 0,4.20313 C0,5.59375 0.296875,7 1,8.29688 C2.79688,11.5938 6.59375,13.2969 11.2031,13.2969 C14.5938,13.2969 18.2969,12.4063 21.9063,10.5 C28.5,7 32.5,1.09375 32.5,-4 C32.5,-5.40625 32.2031,-6.79688 31.5,-8.09375" transform="matrix(0.992126,0,0,0.992126,528.149,758.268)"></path>
<path class="Note" d="M31.5,-8.14063 C29.7031,-11.4375 25.9063,-13.2344 21.2969,-13.2344 C17.9063,-13.2344 14.2031,-12.2344 10.5938,-10.3438 C4,-6.84375 0,-0.9375 0,4.15625 C0,5.5625 0.296875,6.96875 1,8.26563 C2.79688,11.5781 6.59375,13.2813 11.2031,13.2813 C14.5938,13.2813 18.2969,12.375 21.9063,10.4844 C28.5,6.96875 32.5,1.0625 32.5,-4.04688 C32.5,-5.4375 32.2031,-6.84375 31.5,-8.14063 M27.2031,-1.34375 C25.5,0.359375 22.0938,2.45313 18.5,4.46875 C14.9063,6.46875 11.2969,7.96875 8.90625,8.46875 C8.40625,8.57813 7.90625,8.67188 7.40625,8.67188 C5.79688,8.67188 4.59375,8.07813 3.90625,6.76563 C3.59375,6.26563 3.40625,5.67188 3.40625,5.0625 C3.40625,3.96875 4.09375,2.65625 5.20313,1.5625 C6.90625,-0.140625 10.2031,-2.23438 13.7969,-4.23438 C17.4063,-6.23438 21,-7.73438 23.4063,-8.23438 C23.9063,-8.34375 24.4063,-8.4375 24.9063,-8.4375 C26.5,-8.4375 27.7969,-7.84375 28.5,-6.54688 C28.7969,-6.04688 28.9063,-5.4375 28.9063,-4.84375 C28.9063,-3.73438 28.2969,-2.54688 27.2031,-1.34375" transform="matrix(0.992126,0,0,0.992126,648.168,758.268)"></path>
<path class="Note" d="M31.5,-8.09375 C29.7031,-11.4063 25.9063,-13.2031 21.2969,-13.2031 C17.9063,-13.2031 14.2031,-12.2031 10.5938,-10.2969 C4,-6.79688 0,-0.90625 0,4.20313 C0,5.59375 0.296875,7 1,8.29688 C2.79688,11.5938 6.59375,13.2969 11.2031,13.2969 C14.5938,13.2969 18.2969,12.4063 21.9063,10.5 C28.5,7 32.5,1.09375 32.5,-4 C32.5,-5.40625 32.2031,-6.79688 31.5,-8.09375" transform="matrix(0.992126,0,0,0.992126,726.476,758.268)"></path>
<path class="Note" d="M31.5,-8.14063 C29.7031,-11.4375 25.9063,-13.2344 21.2969,-13.2344 C17.9063,-13.2344 14.2031,-12.2344 10.5938,-10.3438 C4,-6.84375 0,-0.9375 0,4.15625 C0,5.5625 0.296875,6.96875 1,8.26563 C2.79688,11.5781 6.59375,13.2813 11.2031,13.2813 C14.5938,13.2813 18.2969,12.375 21.9063,10.4844 C28.5,6.96875 32.5,1.0625 32.5,-4.04688 C32.5,-5.4375 32.2031,-6.84375 31.5,-8.14063 M27.2031,-1.34375 C25.5,0.359375 22.0938,2.45313 18.5,4.46875 C14.9063,6.46875 11.2969,7.96875 8.90625,8.46875 C8.40625,8.57813 7.90625,8.67188 7.40625,8.67188 C5.79688,8.67188 4.59375,8.07813 3.90625,6.76563 C3.59375,6.26563 3.40625,5.67188 3.40625,5.0625 C3.40625,3.96875 4.09375,2.65625 5.20313,1.5625 C6.90625,-0.140625 10.2031,-2.23438 13.7969,-4.23438 C17.4063,-6.23438 21,-7.73438 23.4063,-8.23438 C23.9063,-8.34375 24.4063,-8.4375 24.9063,-8.4375 C26.5,-8.4375 27.7969,-7.84375 28.5,-6.54688 C28.7969,-6.04688 28.9063,-5.4375 28.9063,-4.84375 C28.9063,-3.73438 28.2969,-2.54688 27.2031,-1.34375" transform="matrix(0.992126,0,0,0.992126,832.626,745.866)"></path>
<path class="Note" d="M31.5,-8.09375 C29.7031,-11.4063 25.9063,-13.2031 21.2969,-13.2031 C17.9063,-13.2031 14.2031,-12.2031 10.5938,-10.2969 C4,-6.79688 0,-0.90625 0,4.20313 C0,5.59375 0.296875,7 1,8.29688 C2.79688,11.5938 6.59375,13.2969 11.2031,13.2969 C14.5938,13.2969 18.2969,12.4063 21.9063,10.5 C28.5,7 32.5,1.09375 32.5,-4 C32.5,-5.40625 32.2031,-6.79688 31.5,-8.09375" transform="matrix(0.992126,0,0,0.992126,890.968,745.866)"></path>
<path class="Note" d="M31.5,-8.09375 C29.7031,-11.4063 25.9063,-13.2031 21.2969,-13.2031 C17.9063,-13.2031 14.2031,-12.2031 10.5938,-10.2969 C4,-6.79688 0,-0.90625 0,4.20313 C0,5.59375 0.296875,7 1,8.29688 C2.79688,11.5938 6.59375,13.2969 11.2031,13.2969 C14.5938,13.2969 18.2969,12.4063 21.9063,10.5 C28.5,7 32.5,1.09375 32.5,-4 C32.5,-5.40625 32.2031,-6.79688 31.5,-8.09375" transform="matrix(0.992126,0,0,0.992126,997.117,721.063)"></path>
<path class="Note" d="M31.5,-8.09375 C29.7031,-11.4063 25.9063,-13.2031 21.2969,-13.2031 C17.9063,-13.2031 14.2031,-12.2031 10.5938,-10.2969 C4,-6.79688 0,-0.90625 0,4.20313 C0,5.59375 0.296875,7 1,8.29688 C2.79688,11.5938 6.59375,13.2969 11.2031,13.2969 C14.5938,13.2969 18.2969,12.4063 21.9063,10.5 C28.5,7 32.5,1.09375 32.5,-4 C32.5,-5.40625 32.2031,-6.79688 31.5,-8.09375" transform="matrix(0.992126,0,0,0.992126,1047.68,733.465)"></path>
<path class="Note" d="M31.5,-8.09375 C29.7031,-11.4063 25.9063,-13.2031 21.2969,-13.2031 C17.9063,-13.2031 14.2031,-12.2031 10.5938,-10.2969 C4,-6.79688 0,-0.90625 0,4.20313 C0,5.59375 0.296875,7 1,8.29688 C2.79688,11.5938 6.59375,13.2969 11.2031,13.2969 C14.5938,13.2969 18.2969,12.4063 21.9063,10.5 C28.5,7 32.5,1.09375 32.5,-4 C32.5,-5.40625 32.2031,-6.79688 31.5,-8.09375" transform="matrix(0.992126,0,0,0.992126,1098.24,745.866)"></path>
<path class="Note" d="M31.5,-8.14063 C29.7031,-11.4375 25.9063,-13.2344 21.2969,-13.2344 C17.9063,-13.2344 14.2031,-12.2344 10.5938,-10.3438 C4,-6.84375 0,-0.9375 0,4.15625 C0,5.5625 0.296875,6.96875 1,8.26563 C2.79688,11.5781 6.59375,13.2813 11.2031,13.2813 C14.5938,13.2813 18.2969,12.375 21.9063,10.4844 C28.5,6.96875 32.5,1.0625 32.5,-4.04688 C32.5,-5.4375 32.2031,-6.84375 31.5,-8.14063 M27.2031,-1.34375 C25.5,0.359375 22.0938,2.45313 18.5,4.46875 C14.9063,6.46875 11.2969,7.96875 8.90625,8.46875 C8.40625,8.57813 7.90625,8.67188 7.40625,8.67188 C5.79688,8.67188 4.59375,8.07813 3.90625,6.76563 C3.59375,6.26563 3.40625,5.67188 3.40625,5.0625 C3.40625,3.96875 4.09375,2.65625 5.20313,1.5625 C6.90625,-0.140625 10.2031,-2.23438 13.7969,-4.23438 C17.4063,-6.23438 21,-7.73438 23.4063,-8.23438 C23.9063,-8.34375 24.4063,-8.4375 24.9063,-8.4375 C26.5,-8.4375 27.7969,-7.84375 28.5,-6.54688 C28.7969,-6.04688 28.9063,-5.4375 28.9063,-4.84375 C28.9063,-3.73438 28.2969,-2.54688 27.2031,-1.34375" transform="matrix(0.992126,0,0,0.992126,1204.39,733.465)"></path>
<path class="Note" d="M31.5,-8.09375 C29.7031,-11.4063 25.9063,-13.2031 21.2969,-13.2031 C17.9063,-13.2031 14.2031,-12.2031 10.5938,-10.2969 C4,-6.79688 0,-0.90625 0,4.20313 C0,5.59375 0.296875,7 1,8.29688 C2.79688,11.5938 6.59375,13.2969 11.2031,13.2969 C14.5938,13.2969 18.2969,12.4063 21.9063,10.5 C28.5,7 32.5,1.09375 32.5,-4 C32.5,-5.40625 32.2031,-6.79688 31.5,-8.09375" transform="matrix(0.992126,0,0,0.992126,1262.73,733.465)"></path>
<path class="Note" d="M31.5,-8.14063 C29.7031,-11.4375 25.9063,-13.2344 21.2969,-13.2344 C17.9063,-13.2344 14.2031,-12.2344 10.5938,-10.3438 C4,-6.84375 0,-0.9375 0,4.15625 C0,5.5625 0.296875,6.96875 1,8.26563 C2.79688,11.5781 6.59375,13.2813 11.2031,13.2813 C14.5938,13.2813 18.2969,12.375 21.9063,10.4844 C28.5,6.96875 32.5,1.0625 32.5,-4.04688 C32.5,-5.4375 32.2031,-6.84375 31.5,-8.14063 M27.2031,-1.34375 C25.5,0.359375 22.0938,2.45313 18.5,4.46875 C14.9063,6.46875 11.2969,7.96875 8.90625,8.46875 C8.40625,8.57813 7.90625,8.67188 7.40625,8.67188 C5.79688,8.67188 4.59375,8.07813 3.90625,6.76563 C3.59375,6.26563 3.40625,5.67188 3.40625,5.0625 C3.40625,3.96875 4.09375,2.65625 5.20313,1.5625 C6.90625,-0.140625 10.2031,-2.23438 13.7969,-4.23438 C17.4063,-6.23438 21,-7.73438 23.4063,-8.23438 C23.9063,-8.34375 24.4063,-8.4375 24.9063,-8.4375 C26.5,-8.4375 27.7969,-7.84375 28.5,-6.54688 C28.7969,-6.04688 28.9063,-5.4375 28.9063,-4.84375 C28.9063,-3.73438 28.2969,-2.54688 27.2031,-1.34375" transform="matrix(0.992126,0,0,0.992126,1368.88,721.063)"></path>
<path class="Note" d="M31.5,-8.09375 C29.7031,-11.4063 25.9063,-13.2031 21.2969,-13.2031 C17.9063,-13.2031 14.2031,-12.2031 10.5938,-10.2969 C4,-6.79688 0,-0.90625 0,4.20313 C0,5.59375 0.296875,7 1,8.29688 C2.79688,11.5938 6.59375,13.2969 11.2031,13.2969 C14.5938,13.2969 18.2969,12.4063 21.9063,10.5 C28.5,7 32.5,1.09375 32.5,-4 C32.5,-5.40625 32.2031,-6.79688 31.5,-8.09375" transform="matrix(0.992126,0,0,0.992126,1427.22,721.063)"></path>
<path class="Note" d="M31.5,-8.14063 C29.7031,-11.4375 25.9063,-13.2344 21.2969,-13.2344 C17.9063,-13.2344 14.2031,-12.2344 10.5938,-10.3438 C4,-6.84375 0,-0.9375 0,4.15625 C0,5.5625 0.296875,6.96875 1,8.26563 C2.79688,11.5781 6.59375,13.2813 11.2031,13.2813 C14.5938,13.2813 18.2969,12.375 21.9063,10.4844 C28.5,6.96875 32.5,1.0625 32.5,-4.04688 C32.5,-5.4375 32.2031,-6.84375 31.5,-8.14063 M27.2031,-1.34375 C25.5,0.359375 22.0938,2.45313 18.5,4.46875 C14.9063,6.46875 11.2969,7.96875 8.90625,8.46875 C8.40625,8.57813 7.90625,8.67188 7.40625,8.67188 C5.79688,8.67188 4.59375,8.07813 3.90625,6.76563 C3.59375,6.26563 3.40625,5.67188 3.40625,5.0625 C3.40625,3.96875 4.09375,2.65625 5.20313,1.5625 C6.90625,-0.140625 10.2031,-2.23438 13.7969,-4.23438 C17.4063,-6.23438 21,-7.73438 23.4063,-8.23438 C23.9063,-8.34375 24.4063,-8.4375 24.9063,-8.4375 C26.5,-8.4375 27.7969,-7.84375 28.5,-6.54688 C28.7969,-6.04688 28.9063,-5.4375 28.9063,-4.84375 C28.9063,-3.73438 28.2969,-2.54688 27.2031,-1.34375" transform="matrix(0.992126,0,0,0.992126,1533.37,708.661)"></path>
<path class="Note" d="M31.5,-8.09375 C29.7031,-11.4063 25.9063,-13.2031 21.2969,-13.2031 C17.9063,-13.2031 14.2031,-12.2031 10.5938,-10.2969 C4,-6.79688 0,-0.90625 0,4.20313 C0,5.59375 0.296875,7 1,8.29688 C2.79688,11.5938 6.59375,13.2969 11.2031,13.2969 C14.5938,13.2969 18.2969,12.4063 21.9063,10.5 C28.5,7 32.5,1.09375 32.5,-4 C32.5,-5.40625 32.2031,-6.79688 31.5,-8.09375" transform="matrix(0.992126,0,0,0.992126,1591.71,708.661)"></path>
<path class="Note" d="M31.5,-8.09375 C29.7031,-11.4063 25.9063,-13.2031 21.2969,-13.2031 C17.9063,-13.2031 14.2031,-12.2031 10.5938,-10.2969 C4,-6.79688 0,-0.90625 0,4.20313 C0,5.59375 0.296875,7 1,8.29688 C2.79688,11.5938 6.59375,13.2969 11.2031,13.2969 C14.5938,13.2969 18.2969,12.4063 21.9063,10.5 C28.5,7 32.5,1.09375 32.5,-4 C32.5,-5.40625 32.2031,-6.79688 31.5,-8.09375" transform="matrix(0.992126,0,0,0.992126,1697.86,696.26)"></path>
<path class="Note" d="M31.5,-8.09375 C29.7031,-11.4063 25.9063,-13.2031 21.2969,-13.2031 C17.9063,-13.2031 14.2031,-12.2031 10.5938,-10.2969 C4,-6.79688 0,-0.90625 0,4.20313 C0,5.59375 0.296875,7 1,8.29688 C2.79688,11.5938 6.59375,13.2969 11.2031,13.2969 C14.5938,13.2969 18.2969,12.4063 21.9063,10.5 C28.5,7 32.5,1.09375 32.5,-4 C32.5,-5.40625 32.2031,-6.79688 31.5,-8.09375" transform="matrix(0.992126,0,0,0.992126,1748.42,708.661)"></path>
<path class="Note" d="M31.5,-8.09375 C29.7031,-11.4063 25.9063,-13.2031 21.2969,-13.2031 C17.9063,-13.2031 14.2031,-12.2031 10.5938,-10.2969 C4,-6.79688 0,-0.90625 0,4.20313 C0,5.59375 0.296875,7 1,8.29688 C2.79688,11.5938 6.59375,13.2969 11.2031,13.2969 C14.5938,13.2969 18.2969,12.4063 21.9063,10.5 C28.5,7 32.5,1.09375 32.5,-4 C32.5,-5.40625 32.2031,-6.79688 31.5,-8.09375" transform="matrix(0.992126,0,0,0.992126,1798.98,721.063)"></path>
<path class="Note" d="M31.5,-8.14063 C29.7031,-11.4375 25.9063,-13.2344 21.2969,-13.2344 C17.9063,-13.2344 14.2031,-12.2344 10.5938,-10.3438 C4,-6.84375 0,-0.9375 0,4.15625 C0,5.5625 0.296875,6.96875 1,8.26563 C2.79688,11.5781 6.59375,13.2813 11.2031,13.2813 C14.5938,13.2813 18.2969,12.375 21.9063,10.4844 C28.5,6.96875 32.5,1.0625 32.5,-4.04688 C32.5,-5.4375 32.2031,-6.84375 31.5,-8.14063 M27.2031,-1.34375 C25.5,0.359375 22.0938,2.45313 18.5,4.46875 C14.9063,6.46875 11.2969,7.96875 8.90625,8.46875 C8.40625,8.57813 7.90625,8.67188 7.40625,8.67188 C5.79688,8.67188 4.59375,8.07813 3.90625,6.76563 C3.59375,6.26563 3.40625,5.67188 3.40625,5.0625 C3.40625,3.96875 4.09375,2.65625 5.20313,1.5625 C6.90625,-0.140625 10.2031,-2.23438 13.7969,-4.23438 C17.4063,-6.23438 21,-7.73438 23.4063,-8.23438 C23.9063,-8.34375 24.4063,-8.4375 24.9063,-8.4375 C26.5,-8.4375 27.7969,-7.84375 28.5,-6.54688 C28.7969,-6.04688 28.9063,-5.4375 28.9063,-4.84375 C28.9063,-3.73438 28.2969,-2.54688 27.2031,-1.34375" transform="matrix(0.992126,0,0,0.992126,1905.13,708.661)"></path>
<path class="Note" d="M31.5,-8.09375 C29.7031,-11.4063 25.9063,-13.2031 21.2969,-13.2031 C17.9063,-13.2031 14.2031,-12.2031 10.5938,-10.2969 C4,-6.79688 0,-0.90625 0,4.20313 C0,5.59375 0.296875,7 1,8.29688 C2.79688,11.5938 6.59375,13.2969 11.2031,13.2969 C14.5938,13.2969 18.2969,12.4063 21.9063,10.5 C28.5,7 32.5,1.09375 32.5,-4 C32.5,-5.40625 32.2031,-6.79688 31.5,-8.09375" transform="matrix(0.992126,0,0,0.992126,1963.47,671.457)"></path>
<path class="Note" d="M31.5,-8.09375 C29.7031,-11.4063 25.9063,-13.2031 21.2969,-13.2031 C17.9063,-13.2031 14.2031,-12.2031 10.5938,-10.2969 C4,-6.79688 0,-0.90625 0,4.20313 C0,5.59375 0.296875,7 1,8.29688 C2.79688,11.5938 6.59375,13.2969 11.2031,13.2969 C14.5938,13.2969 18.2969,12.4063 21.9063,10.5 C28.5,7 32.5,1.09375 32.5,-4 C32.5,-5.40625 32.2031,-6.79688 31.5,-8.09375" transform="matrix(0.992126,0,0,0.992126,2069.62,671.457)"></path>
<path class="Note" d="M31.5,-8.09375 C29.7031,-11.4063 25.9063,-13.2031 21.2969,-13.2031 C17.9063,-13.2031 14.2031,-12.2031 10.5938,-10.2969 C4,-6.79688 0,-0.90625 0,4.20313 C0,5.59375 0.296875,7 1,8.29688 C2.79688,11.5938 6.59375,13.2969 11.2031,13.2969 C14.5938,13.2969 18.2969,12.4063 21.9063,10.5 C28.5,7 32.5,1.09375 32.5,-4 C32.5,-5.40625 32.2031,-6.79688 31.5,-8.09375" transform="matrix(0.992126,0,0,0.992126,2120.18,683.858)"></path>
<path class="Note" d="M31.5,-8.09375 C29.7031,-11.4063 25.9063,-13.2031 21.2969,-13.2031 C17.9063,-13.2031 14.2031,-12.2031 10.5938,-10.2969 C4,-6.79688 0,-0.90625 0,4.20313 C0,5.59375 0.296875,7 1,8.29688 C2.79688,11.5938 6.59375,13.2969 11.2031,13.2969 C14.5938,13.2969 18.2969,12.4063 21.9063,10.5 C28.5,7 32.5,1.09375 32.5,-4 C32.5,-5.40625 32.2031,-6.79688 31.5,-8.09375" transform="matrix(0.992126,0,0,0.992126,2170.74,696.26)"></path>
<path class="Note" d="M31.5,-8.14063 C29.7031,-11.4375 25.9063,-13.2344 21.2969,-13.2344 C17.9063,-13.2344 14.2031,-12.2344 10.5938,-10.3438 C4,-6.84375 0,-0.9375 0,4.15625 C0,5.5625 0.296875,6.96875 1,8.26563 C2.79688,11.5781 6.59375,13.2813 11.2031,13.2813 C14.5938,13.2813 18.2969,12.375 21.9063,10.4844 C28.5,6.96875 32.5,1.0625 32.5,-4.04688 C32.5,-5.4375 32.2031,-6.84375 31.5,-8.14063 M27.2031,-1.34375 C25.5,0.359375 22.0938,2.45313 18.5,4.46875 C14.9063,6.46875 11.2969,7.96875 8.90625,8.46875 C8.40625,8.57813 7.90625,8.67188 7.40625,8.67188 C5.79688,8.67188 4.59375,8.07813 3.90625,6.76563 C3.59375,6.26563 3.40625,5.67188 3.40625,5.0625 C3.40625,3.96875 4.09375,2.65625 5.20313,1.5625 C6.90625,-0.140625 10.2031,-2.23438 13.7969,-4.23438 C17.4063,-6.23438 21,-7.73438 23.4063,-8.23438 C23.9063,-8.34375 24.4063,-8.4375 24.9063,-8.4375 C26.5,-8.4375 27.7969,-7.84375 28.5,-6.54688 C28.7969,-6.04688 28.9063,-5.4375 28.9063,-4.84375 C28.9063,-3.73438 28.2969,-2.54688 27.2031,-1.34375" transform="matrix(0.992126,0,0,0.992126,2276.89,708.661)"></path>
<path class="Note" d="M31.5,-8.09375 C29.7031,-11.4063 25.9063,-13.2031 21.2969,-13.2031 C17.9063,-13.2031 14.2031,-12.2031 10.5938,-10.2969 C4,-6.79688 0,-0.90625 0,4.20313 C0,5.59375 0.296875,7 1,8.29688 C2.79688,11.5938 6.59375,13.2969 11.2031,13.2969 C14.5938,13.2969 18.2969,12.4063 21.9063,10.5 C28.5,7 32.5,1.09375 32.5,-4 C32.5,-5.40625 32.2031,-6.79688 31.5,-8.09375" transform="matrix(0.992126,0,0,0.992126,2335.23,708.661)"></path>
<path class="Note" d="M31.5,-8.09375 C29.7031,-11.4063 25.9063,-13.2031 21.2969,-13.2031 C17.9063,-13.2031 14.2031,-12.2031 10.5938,-10.2969 C4,-6.79688 0,-0.90625 0,4.20313 C0,5.59375 0.296875,7 1,8.29688 C2.79688,11.5938 6.59375,13.2969 11.2031,13.2969 C14.5938,13.2969 18.2969,12.4063 21.9063,10.5 C28.5,7 32.5,1.09375 32.5,-4 C32.5,-5.40625 32.2031,-6.79688 31.5,-8.09375" transform="matrix(0.992126,0,0,0.992126,2441.38,696.26)"></path>
<path class="Note" d="M31.5,-8.09375 C29.7031,-11.4063 25.9063,-13.2031 21.2969,-13.2031 C17.9063,-13.2031 14.2031,-12.2031 10.5938,-10.2969 C4,-6.79688 0,-0.90625 0,4.20313 C0,5.59375 0.296875,7 1,8.29688 C2.79688,11.5938 6.59375,13.2969 11.2031,13.2969 C14.5938,13.2969 18.2969,12.4063 21.9063,10.5 C28.5,7 32.5,1.09375 32.5,-4 C32.5,-5.40625 32.2031,-6.79688 31.5,-8.09375" transform="matrix(0.992126,0,0,0.992126,2491.94,683.858)"></path>
<path class="Note" d="M31.5,-8.09375 C29.7031,-11.4063 25.9063,-13.2031 21.2969,-13.2031 C17.9063,-13.2031 14.2031,-12.2031 10.5938,-10.2969 C4,-6.79688 0,-0.90625 0,4.20313 C0,5.59375 0.296875,7 1,8.29688 C2.79688,11.5938 6.59375,13.2969 11.2031,13.2969 C14.5938,13.2969 18.2969,12.4063 21.9063,10.5 C28.5,7 32.5,1.09375 32.5,-4 C32.5,-5.40625 32.2031,-6.79688 31.5,-8.09375" transform="matrix(0.992126,0,0,0.992126,2542.5,671.457)"></path>
<path class="Note" d="M31.5,-8.14063 C29.7031,-11.4375 25.9063,-13.2344 21.2969,-13.2344 C17.9063,-13.2344 14.2031,-12.2344 10.5938,-10.3438 C4,-6.84375 0,-0.9375 0,4.15625 C0,5.5625 0.296875,6.96875 1,8.26563 C2.79688,11.5781 6.59375,13.2813 11.2031,13.2813 C14.5938,13.2813 18.2969,12.375 21.9063,10.4844 C28.5,6.96875 32.5,1.0625 32.5,-4.04688 C32.5,-5.4375 32.2031,-6.84375 31.5,-8.14063 M27.2031,-1.34375 C25.5,0.359375 22.0938,2.45313 18.5,4.46875 C14.9063,6.46875 11.2969,7.96875 8.90625,8.46875 C8.40625,8.57813 7.90625,8.67188 7.40625,8.67188 C5.79688,8.67188 4.59375,8.07813 3.90625,6.76563 C3.59375,6.26563 3.40625,5.67188 3.40625,5.0625 C3.40625,3.96875 4.09375,2.65625 5.20313,1.5625 C6.90625,-0.140625 10.2031,-2.23438 13.7969,-4.23438 C17.4063,-6.23438 21,-7.73438 23.4063,-8.23438 C23.9063,-8.34375 24.4063,-8.4375 24.9063,-8.4375 C26.5,-8.4375 27.7969,-7.84375 28.5,-6.54688 C28.7969,-6.04688 28.9063,-5.4375 28.9063,-4.84375 C28.9063,-3.73438 28.2969,-2.54688 27.2031,-1.34375" transform="matrix(0.992126,0,0,0.992126,2648.65,659.055)"></path>
<path class="Note" d="M31.5,-8.09375 C29.7031,-11.4063 25.9063,-13.2031 21.2969,-13.2031 C17.9063,-13.2031 14.2031,-12.2031 10.5938,-10.2969 C4,-6.79688 0,-0.90625 0,4.20313 C0,5.59375 0.296875,7 1,8.29688 C2.79688,11.5938 6.59375,13.2969 11.2031,13.2969 C14.5938,13.2969 18.2969,12.4063 21.9063,10.5 C28.5,7 32.5,1.09375 32.5,-4 C32.5,-5.40625 32.2031,-6.79688 31.5,-8.09375" transform="matrix(0.992126,0,0,0.992126,357.929,1142.72)"></path>
<path class="Note" d="M31.5,-8.09375 C29.7031,-11.4063 25.9063,-13.2031 21.2969,-13.2031 C17.9063,-13.2031 14.2031,-12.2031 10.5938,-10.2969 C4,-6.79688 0,-0.90625 0,4.20313 C0,5.59375 0.296875,7 1,8.29688 C2.79688,11.5938 6.59375,13.2969 11.2031,13.2969 C14.5938,13.2969 18.2969,12.4063 21.9063,10.5 C28.5,7 32.5,1.09375 32.5,-4 C32.5,-5.40625 32.2031,-6.79688 31.5,-8.09375" transform="matrix(0.992126,0,0,0.992126,566.522,1155.12)"></path>
<path class="Note" d="M31.5,-8.09375 C29.7031,-11.4063 25.9063,-13.2031 21.2969,-13.2031 C17.9063,-13.2031 14.2031,-12.2031 10.5938,-10.2969 C4,-6.79688 0,-0.90625 0,4.20313 C0,5.59375 0.296875,7 1,8.29688 C2.79688,11.5938 6.59375,13.2969 11.2031,13.2969 C14.5938,13.2969 18.2969,12.4063 21.9063,10.5 C28.5,7 32.5,1.09375 32.5,-4 C32.5,-5.40625 32.2031,-6.79688 31.5,-8.09375" transform="matrix(0.992126,0,0,0.992126,775.114,1167.52)"></path>
<path class="Note" d="M31.5,-8.09375 C29.7031,-11.4063 25.9063,-13.2031 21.2969,-13.2031 C17.9063,-13.2031 14.2031,-12.2031 10.5938,-10.2969 C4,-6.79688 0,-0.90625 0,4.20313 C0,5.59375 0.296875,7 1,8.29688 C2.79688,11.5938 6.59375,13.2969 11.2031,13.2969 C14.5938,13.2969 18.2969,12.4063 21.9063,10.5 C28.5,7 32.5,1.09375 32.5,-4 C32.5,-5.40625 32.2031,-6.79688 31.5,-8.09375" transform="matrix(0.992126,0,0,0.992126,1020.42,1167.52)"></path>
<path class="Note" d="M31.5,-8.09375 C29.7031,-11.4063 25.9063,-13.2031 21.2969,-13.2031 C17.9063,-13.2031 14.2031,-12.2031 10.5938,-10.2969 C4,-6.79688 0,-0.90625 0,4.20313 C0,5.59375 0.296875,7 1,8.29688 C2.79688,11.5938 6.59375,13.2969 11.2031,13.2969 C14.5938,13.2969 18.2969,12.4063 21.9063,10.5 C28.5,7 32.5,1.09375 32.5,-4 C32.5,-5.40625 32.2031,-6.79688 31.5,-8.09375" transform="matrix(0.992126,0,0,0.992126,1229.01,1179.92)"></path>
<path class="Note" d="M31.5,-8.09375 C29.7031,-11.4063 25.9063,-13.2031 21.2969,-13.2031 C17.9063,-13.2031 14.2031,-12.2031 10.5938,-10.2969 C4,-6.79688 0,-0.90625 0,4.20313 C0,5.59375 0.296875,7 1,8.29688 C2.79688,11.5938 6.59375,13.2969 11.2031,13.2969 C14.5938,13.2969 18.2969,12.4063 21.9063,10.5 C28.5,7 32.5,1.09375 32.5,-4 C32.5,-5.40625 32.2031,-6.79688 31.5,-8.09375" transform="matrix(0.992126,0,0,0.992126,1437.6,1204.72)"></path>
<path class="Note" d="M31.5,-8.09375 C29.7031,-11.4063 25.9063,-13.2031 21.2969,-13.2031 C17.9063,-13.2031 14.2031,-12.2031 10.5938,-10.2969 C4,-6.79688 0,-0.90625 0,4.20313 C0,5.59375 0.296875,7 1,8.29688 C2.79688,11.5938 6.59375,13.2969 11.2031,13.2969 C14.5938,13.2969 18.2969,12.4063 21.9063,10.5 C28.5,7 32.5,1.09375 32.5,-4 C32.5,-5.40625 32.2031,-6.79688 31.5,-8.09375" transform="matrix(0.992126,0,0,0.992126,1682.9,1192.32)"></path>
<path class="Note" d="M31.5,-8.09375 C29.7031,-11.4063 25.9063,-13.2031 21.2969,-13.2031 C17.9063,-13.2031 14.2031,-12.2031 10.5938,-10.2969 C4,-6.79688 0,-0.90625 0,4.20313 C0,5.59375 0.296875,7 1,8.29688 C2.79688,11.5938 6.59375,13.2969 11.2031,13.2969 C14.5938,13.2969 18.2969,12.4063 21.9063,10.5 C28.5,7 32.5,1.09375 32.5,-4 C32.5,-5.40625 32.2031,-6.79688 31.5,-8.09375" transform="matrix(0.992126,0,0,0.992126,1891.49,1204.72)"></path>
<path class="Note" d="M31.5,-8.09375 C29.7031,-11.4063 25.9063,-13.2031 21.2969,-13.2031 C17.9063,-13.2031 14.2031,-12.2031 10.5938,-10.2969 C4,-6.79688 0,-0.90625 0,4.20313 C0,5.59375 0.296875,7 1,8.29688 C2.79688,11.5938 6.59375,13.2969 11.2031,13.2969 C14.5938,13.2969 18.2969,12.4063 21.9063,10.5 C28.5,7 32.5,1.09375 32.5,-4 C32.5,-5.40625 32.2031,-6.79688 31.5,-8.09375" transform="matrix(0.992126,0,0,0.992126,2100.09,1217.13)"></path>
<path class="Note" d="M31.5,-8.14063 C29.7031,-11.4375 25.9063,-13.2344 21.2969,-13.2344 C17.9063,-13.2344 14.2031,-12.2344 10.5938,-10.3438 C4,-6.84375 0,-0.9375 0,4.15625 C0,5.5625 0.296875,6.96875 1,8.26563 C2.79688,11.5781 6.59375,13.2813 11.2031,13.2813 C14.5938,13.2813 18.2969,12.375 21.9063,10.4844 C28.5,6.96875 32.5,1.0625 32.5,-4.04688 C32.5,-5.4375 32.2031,-6.84375 31.5,-8.14063 M27.2031,-1.34375 C25.5,0.359375 22.0938,2.45313 18.5,4.46875 C14.9063,6.46875 11.2969,7.96875 8.90625,8.46875 C8.40625,8.57813 7.90625,8.67188 7.40625,8.67188 C5.79688,8.67188 4.59375,8.07813 3.90625,6.76563 C3.59375,6.26563 3.40625,5.67188 3.40625,5.0625 C3.40625,3.96875 4.09375,2.65625 5.20313,1.5625 C6.90625,-0.140625 10.2031,-2.23438 13.7969,-4.23438 C17.4063,-6.23438 21,-7.73438 23.4063,-8.23438 C23.9063,-8.34375 24.4063,-8.4375 24.9063,-8.4375 C26.5,-8.4375 27.7969,-7.84375 28.5,-6.54688 C28.7969,-6.04688 28.9063,-5.4375 28.9063,-4.84375 C28.9063,-3.73438 28.2969,-2.54688 27.2031,-1.34375" transform="matrix(0.992126,0,0,0.992126,2354.07,1229.53)"></path>
<path class="Clef" d="M63.3594,-5.92188 C62.125,-11.3438 59.4844,-15.1719 58.7031,-16.2031 C55.5156,-20.4844 51.5,-23.3281 46.8125,-24.6875 C43.7031,-25.5625 40.7031,-25.6875 38.2813,-25.5 C37.2344,-31.5156 36.2344,-37.3906 35.3281,-42.8438 C40.7813,-49.0156 44.4063,-54.8125 46.6875,-59.1094 C50.1563,-65.6875 51.2969,-70.2656 51.3594,-70.4688 C53.0781,-75.6875 53.4375,-83.3906 52.3281,-91.5938 C51.3281,-99.1406 49.2344,-105.859 46.875,-109.109 C45.8594,-110.531 44.7969,-111.266 43.7656,-111.266 C42.5469,-111.266 40.0313,-110.031 37.1406,-107.25 C34.8438,-105.063 31.5781,-101.172 29.0156,-95.1563 C26.0156,-88.0938 25.7969,-78.6094 26.1563,-71.8906 C26.5313,-64.6094 27.6406,-58.9219 27.6563,-58.875 C27.6719,-58.7813 27.9375,-57.2813 28.375,-54.7188 C28.1563,-54.4844 27.9063,-54.2656 27.6563,-54.0156 C26.625,-53.0156 25.4375,-51.8906 24.0469,-50.5 C23.1875,-49.6406 22.2344,-48.7344 21.2344,-47.7656 C12.7969,-39.625 0,-27.2969 0,-8.14063 C0,-3.4375 0.90625,0.984375 2.6875,5 C4.26563,8.59375 6.5625,11.875 9.5,14.75 C17.2344,22.3125 27.8281,25.5156 34.875,25.3594 C37.8281,25.2813 40.4688,25.0469 42.8594,24.5938 C44.6875,34.2031 45.8281,41.2344 45.8594,46.5781 C45.9063,53.0938 44.25,57.0781 40.3594,59.8438 C37.9219,61.5781 35.1094,62.5313 32.0156,62.6719 C29.4219,62.7969 27.1563,62.3281 25.7344,61.9219 L25.7188,61.9219 C25.7188,61.9219 25.4375,61.8281 25.4219,61.6406 C25.4063,61.4531 25.7656,61.4063 25.7656,61.4063 L25.7969,61.4063 C27.7188,60.9688 31.2813,59.7344 33.6406,56.4375 C35.4375,53.9063 36.3125,49.2813 34.4688,45.3438 C33.3594,42.9531 30.8594,40 25.2344,39.5469 C22.7344,39.3438 20.4688,39.8594 18.4688,41.0625 C16.6563,42.1406 15.1563,43.7813 14.1094,45.7813 C11.6563,50.4844 12.1094,56.2188 15.2344,60.0625 C18.2031,63.6875 22.8125,66 28.25,66.5781 C29.1094,66.6719 29.9531,66.7031 30.7969,66.7031 C35.2344,66.7031 39.625,65.5 43.2031,63.2969 C46.8594,60.7188 48.9844,56.7344 49.6563,51.1094 C50.2188,46.4688 49.8281,40.5469 48.4375,32.4688 C48.0781,30.375 47.5313,27.3438 46.875,23.5938 C52.625,21.6719 56.7813,18.0938 60.5469,12.2344 C63.8438,6.5 64.7813,0.390625 63.3594,-5.92188 M29.1406,20.2969 C24.5,19.0781 20.0625,16.5781 16.3125,13.0625 C15,11.8438 13.125,9.67188 11.6563,6.28125 C10.2969,3.10938 9.625,-0.328125 9.6875,-3.90625 C9.75,-8.60938 11.0625,-13.4375 13.5625,-18.2188 C16.4844,-23.7969 21.0469,-29.3281 27.1094,-34.6563 C28.5625,-35.9375 29.9375,-37.2188 31.2188,-38.5 C31.9844,-34.2344 32.8125,-29.5469 33.6875,-24.6719 C29.8438,-23.4063 25.0938,-20.25 21.9844,-14.5938 C18.4375,-8.03125 18.5781,-2.5 19.3125,0.984375 C20.25,5.4375 22.7813,9.20313 26.2344,11.2969 C27.1719,11.8594 31.2969,13.9844 33.1406,13.4063 C33.5156,13.2969 33.7813,13.0625 33.9219,12.7344 C34.4375,11.5625 33.4063,10.9219 31.8594,9.96875 C31.25,9.59375 30.5781,9.17188 29.8594,8.64063 C26.5313,6.15625 25.0781,1.70313 26.1563,-2.6875 C26.7344,-5.07813 28.0156,-7.25 29.8594,-8.95313 C31.5156,-10.5 33.5625,-11.5938 35.9375,-12.2344 C37.9844,-0.984375 40.0469,10.1719 41.6875,18.5313 C41.8125,19.2188 41.9531,19.8906 42.0781,20.5625 C37.7031,21.5 33.3594,21.4063 29.1406,20.2969 M40.4688,-12.9063 C50.8125,-13.375 55.0781,-5.9375 55.9688,-1.10938 C56.4375,1.4375 56.4375,5.875 54.8906,10.0938 C53.7188,13.2656 51.2656,17.3438 46.125,19.4063 C46.0625,18.9844 45.9844,18.5469 45.9063,18.125 C44.3594,9.34375 42.4219,-1.65625 40.4688,-12.9063 M33.1406,-83.8594 C34.9219,-89.5938 37.6563,-92.8438 39.6563,-94.5781 C41.4063,-96.0938 43.0469,-96.8125 43.9688,-96.8125 C44.1094,-96.8125 44.2344,-96.7813 44.3281,-96.75 C44.7969,-96.6094 45.3281,-96.0469 45.7969,-95.1719 C48.1094,-90.8906 47.3594,-84.1719 46.0156,-79.7344 C44.3906,-74.3281 41.4688,-68.7188 32.6719,-59.1094 C32.5,-60.2188 32.3438,-61.2656 32.1875,-62.25 C30.9375,-70.5313 31.2656,-77.8125 33.1406,-83.8594" transform="matrix(0.992126,0,0,0.992126,356.457,708.661)"></path>
<path class="Clef" d="M63.3594,-5.92188 C62.125,-11.3438 59.4844,-15.1719 58.7031,-16.2031 C55.5156,-20.4844 51.5,-23.3281 46.8125,-24.6875 C43.7031,-25.5625 40.7031,-25.6875 38.2813,-25.5 C37.2344,-31.5156 36.2344,-37.3906 35.3281,-42.8438 C40.7813,-49.0156 44.4063,-54.8125 46.6875,-59.1094 C50.1563,-65.6875 51.2969,-70.2656 51.3594,-70.4688 C53.0781,-75.6875 53.4375,-83.3906 52.3281,-91.5938 C51.3281,-99.1406 49.2344,-105.859 46.875,-109.109 C45.8594,-110.531 44.7969,-111.266 43.7656,-111.266 C42.5469,-111.266 40.0313,-110.031 37.1406,-107.25 C34.8438,-105.063 31.5781,-101.172 29.0156,-95.1563 C26.0156,-88.0938 25.7969,-78.6094 26.1563,-71.8906 C26.5313,-64.6094 27.6406,-58.9219 27.6563,-58.875 C27.6719,-58.7813 27.9375,-57.2813 28.375,-54.7188 C28.1563,-54.4844 27.9063,-54.2656 27.6563,-54.0156 C26.625,-53.0156 25.4375,-51.8906 24.0469,-50.5 C23.1875,-49.6406 22.2344,-48.7344 21.2344,-47.7656 C12.7969,-39.625 0,-27.2969 0,-8.14063 C0,-3.4375 0.90625,0.984375 2.6875,5 C4.26563,8.59375 6.5625,11.875 9.5,14.75 C17.2344,22.3125 27.8281,25.5156 34.875,25.3594 C37.8281,25.2813 40.4688,25.0469 42.8594,24.5938 C44.6875,34.2031 45.8281,41.2344 45.8594,46.5781 C45.9063,53.0938 44.25,57.0781 40.3594,59.8438 C37.9219,61.5781 35.1094,62.5313 32.0156,62.6719 C29.4219,62.7969 27.1563,62.3281 25.7344,61.9219 L25.7188,61.9219 C25.7188,61.9219 25.4375,61.8281 25.4219,61.6406 C25.4063,61.4531 25.7656,61.4063 25.7656,61.4063 L25.7969,61.4063 C27.7188,60.9688 31.2813,59.7344 33.6406,56.4375 C35.4375,53.9063 36.3125,49.2813 34.4688,45.3438 C33.3594,42.9531 30.8594,40 25.2344,39.5469 C22.7344,39.3438 20.4688,39.8594 18.4688,41.0625 C16.6563,42.1406 15.1563,43.7813 14.1094,45.7813 C11.6563,50.4844 12.1094,56.2188 15.2344,60.0625 C18.2031,63.6875 22.8125,66 28.25,66.5781 C29.1094,66.6719 29.9531,66.7031 30.7969,66.7031 C35.2344,66.7031 39.625,65.5 43.2031,63.2969 C46.8594,60.7188 48.9844,56.7344 49.6563,51.1094 C50.2188,46.4688 49.8281,40.5469 48.4375,32.4688 C48.0781,30.375 47.5313,27.3438 46.875,23.5938 C52.625,21.6719 56.7813,18.0938 60.5469,12.2344 C63.8438,6.5 64.7813,0.390625 63.3594,-5.92188 M29.1406,20.2969 C24.5,19.0781 20.0625,16.5781 16.3125,13.0625 C15,11.8438 13.125,9.67188 11.6563,6.28125 C10.2969,3.10938 9.625,-0.328125 9.6875,-3.90625 C9.75,-8.60938 11.0625,-13.4375 13.5625,-18.2188 C16.4844,-23.7969 21.0469,-29.3281 27.1094,-34.6563 C28.5625,-35.9375 29.9375,-37.2188 31.2188,-38.5 C31.9844,-34.2344 32.8125,-29.5469 33.6875,-24.6719 C29.8438,-23.4063 25.0938,-20.25 21.9844,-14.5938 C18.4375,-8.03125 18.5781,-2.5 19.3125,0.984375 C20.25,5.4375 22.7813,9.20313 26.2344,11.2969 C27.1719,11.8594 31.2969,13.9844 33.1406,13.4063 C33.5156,13.2969 33.7813,13.0625 33.9219,12.7344 C34.4375,11.5625 33.4063,10.9219 31.8594,9.96875 C31.25,9.59375 30.5781,9.17188 29.8594,8.64063 C26.5313,6.15625 25.0781,1.70313 26.1563,-2.6875 C26.7344,-5.07813 28.0156,-7.25 29.8594,-8.95313 C31.5156,-10.5 33.5625,-11.5938 35.9375,-12.2344 C37.9844,-0.984375 40.0469,10.1719 41.6875,18.5313 C41.8125,19.2188 41.9531,19.8906 42.0781,20.5625 C37.7031,21.5 33.3594,21.4063 29.1406,20.2969 M40.4688,-12.9063 C50.8125,-13.375 55.0781,-5.9375 55.9688,-1.10938 C56.4375,1.4375 56.4375,5.875 54.8906,10.0938 C53.7188,13.2656 51.2656,17.3438 46.125,19.4063 C46.0625,18.9844 45.9844,18.5469 45.9063,18.125 C44.3594,9.34375 42.4219,-1.65625 40.4688,-12.9063 M33.1406,-83.8594 C34.9219,-89.5938 37.6563,-92.8438 39.6563,-94.5781 C41.4063,-96.0938 43.0469,-96.8125 43.9688,-96.8125 C44.1094,-96.8125 44.2344,-96.7813 44.3281,-96.75 C44.7969,-96.6094 45.3281,-96.0469 45.7969,-95.1719 C48.1094,-90.8906 47.3594,-84.1719 46.0156,-79.7344 C44.3906,-74.3281 41.4688,-68.7188 32.6719,-59.1094 C32.5,-60.2188 32.3438,-61.2656 32.1875,-62.25 C30.9375,-70.5313 31.2656,-77.8125 33.1406,-83.8594" transform="matrix(0.992126,0,0,0.992126,232.441,1179.92)"></path>
<path class="TimeSig" d="M27.0156,-1.59375 L27.2188,-1.59375 C35.2188,-4.70313 35.7188,-9.90625 35.7188,-11.7031 L35.7188,-12.2031 C35.7188,-13.0938 35.4219,-24.4063 18.2188,-24.4063 C1.01563,-24.4063 1.51563,-12.2031 1.51563,-12.2031 L1.625,-12.2031 L1.51563,-12 C1.51563,-8.40625 4.42188,-5.59375 8.01563,-5.59375 C11.625,-5.59375 14.4219,-8.40625 14.4219,-12 C14.4219,-14.9063 12.2188,-17.7031 9.42188,-18.2969 L9.71875,-18.5938 C11.125,-19.5938 13.0156,-20.0938 14.9219,-20.0938 C19.125,-20.0938 23.625,-17.5938 23.625,-12.2031 C23.625,-5.90625 18.9219,-5 17.7188,-4.79688 C16.5156,-4.59375 10.9219,-4.20313 9.71875,-4.20313 C8.51563,-4.20313 8.42188,-2.79688 8.42188,-2.79688 L8.42188,-0.796875 C8.42188,-0.796875 8.625,0.296875 9.71875,0.40625 C11.4219,0.5 13.7188,0.5 16.9219,1 C21.3125,1.59375 23.625,4.59375 23.625,11.5938 C23.625,18.2969 19.125,20.0938 14.9219,20.0938 C12.125,20.0938 9.51563,19.2969 8.42188,18.5 C11.7188,18.2969 14.4219,15.4063 14.4219,12.0938 C14.4219,8.5 11.625,5.59375 8.01563,5.59375 C4.42188,5.59375 1.51563,8.5 1.51563,12.0938 C1.51563,12.0938 1.01563,16.5938 5.42188,20.7031 C9.3125,24.2969 14.2188,24.4063 16.4219,24.4063 C26.0156,24.4063 36.4219,21.0938 36.4219,10.2031 C36.4219,2.90625 31.4219,-0.203125 27.0156,-1.59375" transform="matrix(0.992126,0,0,0.992126,447.298,659.551)"></path>
<path class="TimeSig" d="M3.59375,12.625 L20.7656,12.625 L20.7656,20.0781 L12.5469,20.0781 C11.7656,20.0781 11.125,20.7031 11.125,21.4844 L11.125,23.3906 C11.125,24.1719 11.7656,24.7969 12.5469,24.7969 L42.7969,24.7969 C43.5781,24.7969 44.2031,24.1719 44.2031,23.3906 L44.2031,21.4844 C44.2031,20.7031 43.5781,20.0781 42.7969,20.0781 L33.8594,20.0781 L33.8594,12.625 L42.7969,12.625 C43.5781,12.625 44.2031,12 44.2031,11.2188 L44.2031,9.3125 C44.2031,8.53125 43.5781,7.90625 42.7969,7.90625 L33.8594,7.90625 L33.8594,-8.0625 C33.8594,-8.59375 33.5469,-9.07813 33.0781,-9.3125 L31.8594,-9.92188 C31.3281,-10.1719 30.7031,-10.0781 30.2656,-9.6875 L21.2188,-1.375 C20.9375,-1.09375 20.7656,-0.734375 20.7656,-0.328125 L20.7656,7.90625 L9.25,7.90625 C9.25,7.90625 20.375,-4.125 32.2188,-19.8906 C33.0781,-21.0469 32.5781,-22.0938 32.3906,-22.2813 L30.2188,-24.4844 C29.9531,-24.75 29.5938,-24.9063 29.2188,-24.9063 C28.625,-24.9063 15.0625,-24.875 14.3438,-24.9063 C13.625,-24.9219 13.0938,-24.2969 13.0156,-23.6875 C13.0156,-23.6875 12.4844,-16.3281 9.875,-8.1875 C7.28125,-0.078125 4.34375,4.90625 1.6875,8.53125 C1.6875,8.53125 1.14063,9.51563 1.5,10.2656 C1.84375,11.0156 2.48438,12.0938 2.48438,12.0938 C2.48438,12.0938 2.73438,12.625 3.59375,12.625" transform="matrix(0.992126,0,0,0.992126,443.376,708.53)"></path>
<path class="NoteDot" d="M0,0 C0,2.76563 2.23438,5 5,5 C7.76563,5 10,2.76563 10,0 C10,-2.76563 7.76563,-5 5,-5 C2.23438,-5 0,-2.76563 0,0" transform="matrix(0.992126,0,0,0.992126,2693.28,646.654)"></path>
</svg>
