<?xml version="1.0" encoding="UTF-8" standalone="no"?>
<svg baseprofile="tiny" height="4209.45px" version="1.2" viewbox="0 0 2976.38 4209.45" width="2976.38px" xmlns="http://www.w3.org/2000/svg" xmlns:xlink="http://www.w3.org/1999/xlink">
<title>hymn18</title>
<desc>Generated by MuseScore 3.6.2</desc>
<polyline class="StaffLines" fill="none" points="336.614,634.252 2763.78,634.252" stroke="#000000" stroke-linejoin="bevel" stroke-width="2.73"></polyline>
<polyline class="StaffLines" fill="none" points="336.614,659.055 2763.78,659.055" stroke="#000000" stroke-linejoin="bevel" stroke-width="2.73"></polyline>
<polyline class="StaffLines" fill="none" points="336.614,683.858 2763.78,683.858" stroke="#000000" stroke-linejoin="bevel" stroke-width="2.73"></polyline>
<polyline class="StaffLines" fill="none" points="336.614,708.661 2763.78,708.661" stroke="#000000" stroke-linejoin="bevel" stroke-width="2.73"></polyline>
<polyline class="StaffLines" fill="none" points="336.614,733.465 2763.78,733.465" stroke="#000000" stroke-linejoin="bevel" stroke-width="2.73"></polyline>
<polyline class="StaffLines" fill="none" points="212.598,1105.51 2763.78,1105.51" stroke="#000000" stroke-linejoin="bevel" stroke-width="2.73"></polyline>
<polyline class="StaffLines" fill="none" points="212.598,1130.31 2763.78,1130.31" stroke="#000000" stroke-linejoin="bevel" stroke-width="2.73"></polyline>
<polyline class="StaffLines" fill="none" points="212.598,1155.12 2763.78,1155.12" stroke="#000000" stroke-linejoin="bevel" stroke-width="2.73"></polyline>
<polyline class="StaffLines" fill="none" points="212.598,1179.92 2763.78,1179.92" stroke="#000000" stroke-linejoin="bevel" stroke-width="2.73"></polyline>
<polyline class="StaffLines" fill="none" points="212.598,1204.72 2763.78,1204.72" stroke="#000000" stroke-linejoin="bevel" stroke-width="2.73"></polyline>
<polyline class="StaffLines" fill="none" points="212.598,1576.77 1418.46,1576.77" stroke="#000000" stroke-linejoin="bevel" stroke-width="2.73"></polyline>
<polyline class="StaffLines" fill="none" points="212.598,1601.57 1418.46,1601.57" stroke="#000000" stroke-linejoin="bevel" stroke-width="2.73"></polyline>
<polyline class="StaffLines" fill="none" points="212.598,1626.38 1418.46,1626.38" stroke="#000000" stroke-linejoin="bevel" stroke-width="2.73"></polyline>
<polyline class="StaffLines" fill="none" points="212.598,1651.18 1418.46,1651.18" stroke="#000000" stroke-linejoin="bevel" stroke-width="2.73"></polyline>
<polyline class="StaffLines" fill="none" points="212.598,1675.98 1418.46,1675.98" stroke="#000000" stroke-linejoin="bevel" stroke-width="2.73"></polyline>
<path class="MeasureNumber" d="M228.317,1042.23 C227.63,1045.39 226.911,1047.31 225.755,1049.55 C223.802,1053.19 221.723,1054.83 218.911,1054.83 C217.755,1054.83 217.005,1054.34 217.005,1053.62 C217.005,1053.34 217.083,1053.23 217.395,1052.75 C217.802,1052.23 218.005,1051.75 218.005,1051.19 C218.005,1049.87 216.958,1048.87 215.598,1048.87 C214.005,1048.87 212.88,1050.06 212.88,1051.83 C212.88,1054.55 215.442,1056.5 219.005,1056.5 C222.192,1056.5 225.161,1055.11 227.598,1052.31 C231.083,1048.42 233.348,1042.62 233.348,1037.7 C233.348,1031.47 230.348,1027.75 225.395,1027.75 C222.442,1027.75 219.677,1029.08 217.833,1031.34 C216.036,1033.55 215.005,1036.34 215.005,1038.95 C215.005,1042.75 217.911,1045.62 221.802,1045.62 C224.442,1045.62 226.473,1044.55 228.317,1042.23 M225.364,1029.44 C227.911,1029.44 229.552,1031.47 229.552,1034.67 C229.552,1039.62 226.833,1043.26 223.161,1043.26 C220.63,1043.26 219.239,1041.55 219.239,1038.55 C219.239,1036.19 219.802,1034.06 220.88,1032.26 C222.083,1030.34 223.52,1029.44 225.364,1029.44"></path>
<path class="MeasureNumber" d="M229.958,1498.85 L228.802,1498.85 C226.598,1500.49 222.364,1501.88 219.473,1501.88 L219.005,1503.65 L221.755,1503.65 C224.192,1503.65 224.473,1503.73 224.473,1504.45 C224.473,1504.81 224.473,1504.81 224.083,1506.24 L219.802,1522.24 C219.27,1524.24 219.239,1524.37 218.88,1524.73 C218.473,1525.12 217.63,1525.24 215.52,1525.29 L213.802,1525.29 L213.598,1527.17 L228.395,1527.17 L228.63,1525.29 L226.473,1525.29 C223.88,1525.29 223.317,1525.09 223.317,1524.21 C223.317,1523.93 223.473,1523.01 223.677,1522.24 L229.958,1498.85 M249.317,1513.49 C248.63,1516.65 247.911,1518.57 246.755,1520.81 C244.802,1524.45 242.723,1526.09 239.911,1526.09 C238.755,1526.09 238.005,1525.6 238.005,1524.88 C238.005,1524.6 238.083,1524.49 238.395,1524.01 C238.802,1523.49 239.005,1523.01 239.005,1522.45 C239.005,1521.13 237.958,1520.13 236.598,1520.13 C235.005,1520.13 233.88,1521.32 233.88,1523.09 C233.88,1525.81 236.442,1527.76 240.005,1527.76 C243.192,1527.76 246.161,1526.37 248.598,1523.57 C252.083,1519.68 254.348,1513.88 254.348,1508.96 C254.348,1502.73 251.348,1499.01 246.395,1499.01 C243.442,1499.01 240.677,1500.34 238.833,1502.6 C237.036,1504.81 236.005,1507.6 236.005,1510.21 C236.005,1514.01 238.911,1516.88 242.802,1516.88 C245.442,1516.88 247.473,1515.81 249.317,1513.49 M246.364,1500.7 C248.911,1500.7 250.552,1502.73 250.552,1505.93 C250.552,1510.88 247.833,1514.52 244.161,1514.52 C241.63,1514.52 240.239,1512.81 240.239,1509.81 C240.239,1507.45 240.802,1505.32 241.88,1503.52 C243.083,1501.6 244.52,1500.7 246.364,1500.7"></path>
<polyline class="BarLine" fill="none" points="712.369,632.888 712.369,734.829" stroke="#000000" stroke-linejoin="bevel" stroke-width="4.46"></polyline>
<polyline class="BarLine" fill="none" points="1089.46,632.888 1089.46,734.829" stroke="#000000" stroke-linejoin="bevel" stroke-width="4.46"></polyline>
<polyline class="BarLine" fill="none" points="1411.5,632.888 1411.5,734.829" stroke="#000000" stroke-linejoin="bevel" stroke-width="4.46"></polyline>
<polyline class="BarLine" fill="none" points="1706.76,632.888 1706.76,734.829" stroke="#000000" stroke-linejoin="bevel" stroke-width="4.46"></polyline>
<polyline class="BarLine" fill="none" points="2062.41,632.888 2062.41,734.829" stroke="#000000" stroke-linejoin="bevel" stroke-width="4.46"></polyline>
<polyline class="BarLine" fill="none" points="2439.51,632.888 2439.51,734.829" stroke="#000000" stroke-linejoin="bevel" stroke-width="4.46"></polyline>
<polyline class="BarLine" fill="none" points="2761.55,632.888 2761.55,734.829" stroke="#000000" stroke-linejoin="bevel" stroke-width="4.46"></polyline>
<polyline class="BarLine" fill="none" points="746.157,1104.15 746.157,1206.09" stroke="#000000" stroke-linejoin="bevel" stroke-width="4.46"></polyline>
<polyline class="BarLine" fill="none" points="1069.38,1104.15 1069.38,1206.09" stroke="#000000" stroke-linejoin="bevel" stroke-width="4.46"></polyline>
<polyline class="BarLine" fill="none" points="1323.53,1104.15 1323.53,1206.09" stroke="#000000" stroke-linejoin="bevel" stroke-width="4.46"></polyline>
<polyline class="BarLine" fill="none" points="1533.04,1104.15 1533.04,1206.09" stroke="#000000" stroke-linejoin="bevel" stroke-width="4.46"></polyline>
<polyline class="BarLine" fill="none" points="1903.25,1104.15 1903.25,1206.09" stroke="#000000" stroke-linejoin="bevel" stroke-width="4.46"></polyline>
<polyline class="BarLine" fill="none" points="2226.47,1104.15 2226.47,1206.09" stroke="#000000" stroke-linejoin="bevel" stroke-width="4.46"></polyline>
<polyline class="BarLine" fill="none" points="2480.62,1104.15 2480.62,1206.09" stroke="#000000" stroke-linejoin="bevel" stroke-width="4.46"></polyline>
<polyline class="BarLine" fill="none" points="2761.55,1104.15 2761.55,1206.09" stroke="#000000" stroke-linejoin="bevel" stroke-width="4.46"></polyline>
<polyline class="BarLine" fill="none" points="993.65,1575.41 993.65,1677.35" stroke="#000000" stroke-linejoin="bevel" stroke-width="4.46"></polyline>
<polyline class="BarLine" fill="none" points="1394.28,1575.41 1394.28,1677.35" stroke="#000000" stroke-linejoin="bevel" stroke-width="4.46"></polyline>
<polyline class="BarLine" fill="none" points="1411.64,1575.41 1411.64,1677.35" stroke="#000000" stroke-linejoin="bevel" stroke-width="13.64"></polyline>
<path class="Accidental" d="M16.5938,-18.2969 C16.4063,-18.5 16.0938,-18.5938 15.7969,-18.5938 C15.7031,-18.5938 15.5,-18.5 15.4063,-18.5 L2.79688,-15 L2.79688,-32.5 L0,-32.5 L0,17 C0,17.7969 0.59375,18.2969 1.40625,18.2969 L1.79688,18.2969 L14.4063,14.7969 L14.4063,32.2969 L17.0938,32.2969 L17.0938,-17.2031 C17.0938,-17.5938 16.9063,-18.0938 16.5938,-18.2969 M14.4063,6.5 L2.79688,9.70313 L2.79688,-6.70313 L14.4063,-10 L14.4063,6.5 " transform="matrix(0.992126,0,0,0.992126,519.897,1155.12)"></path>
<polyline class="LedgerLine" fill="none" points="807.873,758.268 857.472,758.268" stroke="#000000" stroke-linejoin="bevel" stroke-width="3.97"></polyline>
<polyline class="LedgerLine" fill="none" points="2157.92,758.268 2207.52,758.268" stroke="#000000" stroke-linejoin="bevel" stroke-width="3.97"></polyline>
<polyline class="LedgerLine" fill="none" points="780.633,1229.53 830.231,1229.53" stroke="#000000" stroke-linejoin="bevel" stroke-width="3.97"></polyline>
<polyline class="LedgerLine" fill="none" points="1937.72,1229.53 1987.32,1229.53" stroke="#000000" stroke-linejoin="bevel" stroke-width="3.97"></polyline>
<polyline class="Stem" fill="none" points="565.772,699.593 565.772,776.87" stroke="#000000" stroke-linejoin="bevel" stroke-width="2.73"></polyline>
<polyline class="Stem" fill="none" points="642.06,711.995 642.06,783.071" stroke="#000000" stroke-linejoin="bevel" stroke-width="2.73"></polyline>
<polyline class="Stem" fill="none" points="748.21,724.397 748.21,789.272" stroke="#000000" stroke-linejoin="bevel" stroke-width="2.73"></polyline>
<polyline class="Stem" fill="none" points="847.426,755.093 847.426,671.457" stroke="#000000" stroke-linejoin="bevel" stroke-width="2.73"></polyline>
<polyline class="Stem" fill="none" points="887.627,724.397 887.627,789.272" stroke="#000000" stroke-linejoin="bevel" stroke-width="2.73"></polyline>
<polyline class="Stem" fill="none" points="957.335,711.995 957.335,801.673" stroke="#000000" stroke-linejoin="bevel" stroke-width="2.73"></polyline>
<polyline class="Stem" fill="none" points="1019.15,724.397 1019.15,807.874" stroke="#000000" stroke-linejoin="bevel" stroke-width="2.73"></polyline>
<polyline class="Stem" fill="none" points="1125.3,736.798 1125.3,798.573" stroke="#000000" stroke-linejoin="bevel" stroke-width="2.73"></polyline>
<polyline class="Stem" fill="none" points="1193.63,749.2 1193.63,807.874" stroke="#000000" stroke-linejoin="bevel" stroke-width="2.73"></polyline>
<polyline class="Stem" fill="none" points="1280.6,724.397 1280.6,807.874" stroke="#000000" stroke-linejoin="bevel" stroke-width="2.73"></polyline>
<polyline class="Stem" fill="none" points="1341.19,711.995 1341.19,801.673" stroke="#000000" stroke-linejoin="bevel" stroke-width="2.73"></polyline>
<polyline class="Stem" fill="none" points="1447.34,699.593 1447.34,770.669" stroke="#000000" stroke-linejoin="bevel" stroke-width="2.73"></polyline>
<polyline class="Stem" fill="none" points="1510.38,699.593 1510.38,770.669" stroke="#000000" stroke-linejoin="bevel" stroke-width="2.73"></polyline>
<polyline class="Stem" fill="none" points="1573.42,674.79 1573.42,752.067" stroke="#000000" stroke-linejoin="bevel" stroke-width="2.73"></polyline>
<polyline class="Stem" fill="none" points="1665.96,717.888 1665.96,634.252" stroke="#000000" stroke-linejoin="bevel" stroke-width="2.73"></polyline>
<polyline class="Stem" fill="none" points="1742.6,711.995 1742.6,779.97" stroke="#000000" stroke-linejoin="bevel" stroke-width="2.73"></polyline>
<polyline class="Stem" fill="none" points="1915.82,699.593 1915.82,776.87" stroke="#000000" stroke-linejoin="bevel" stroke-width="2.73"></polyline>
<polyline class="Stem" fill="none" points="1992.11,711.995 1992.11,783.071" stroke="#000000" stroke-linejoin="bevel" stroke-width="2.73"></polyline>
<polyline class="Stem" fill="none" points="2098.26,724.397 2098.26,789.272" stroke="#000000" stroke-linejoin="bevel" stroke-width="2.73"></polyline>
<polyline class="Stem" fill="none" points="2197.47,755.093 2197.47,671.457" stroke="#000000" stroke-linejoin="bevel" stroke-width="2.73"></polyline>
<polyline class="Stem" fill="none" points="2237.67,724.397 2237.67,789.272" stroke="#000000" stroke-linejoin="bevel" stroke-width="2.73"></polyline>
<polyline class="Stem" fill="none" points="2336.89,705.487 2336.89,634.252" stroke="#000000" stroke-linejoin="bevel" stroke-width="2.73"></polyline>
<polyline class="Stem" fill="none" points="2398.71,717.888 2398.71,640.453" stroke="#000000" stroke-linejoin="bevel" stroke-width="2.73"></polyline>
<polyline class="Stem" fill="none" points="2475.35,736.798 2475.35,798.573" stroke="#000000" stroke-linejoin="bevel" stroke-width="2.73"></polyline>
<polyline class="Stem" fill="none" points="2543.68,749.2 2543.68,807.874" stroke="#000000" stroke-linejoin="bevel" stroke-width="2.73"></polyline>
<polyline class="Stem" fill="none" points="2660.15,705.487 2660.15,634.252" stroke="#000000" stroke-linejoin="bevel" stroke-width="2.73"></polyline>
<polyline class="Stem" fill="none" points="2720.75,717.888 2720.75,640.453" stroke="#000000" stroke-linejoin="bevel" stroke-width="2.73"></polyline>
<polyline class="Stem" fill="none" points="404.234,1208.06 404.234,1269.83" stroke="#000000" stroke-linejoin="bevel" stroke-width="2.73"></polyline>
<polyline class="Stem" fill="none" points="474.328,1146.05 474.328,1223.33" stroke="#000000" stroke-linejoin="bevel" stroke-width="2.73"></polyline>
<polyline class="Stem" fill="none" points="573.929,1151.94 573.929,1080.71" stroke="#000000" stroke-linejoin="bevel" stroke-width="2.73"></polyline>
<polyline class="Stem" fill="none" points="617.738,1164.34 617.738,1086.91" stroke="#000000" stroke-linejoin="bevel" stroke-width="2.73"></polyline>
<polyline class="Stem" fill="none" points="661.547,1189.15 661.547,1124.11" stroke="#000000" stroke-linejoin="bevel" stroke-width="2.73"></polyline>
<polyline class="Stem" fill="none" points="705.355,1213.95 705.355,1136.52" stroke="#000000" stroke-linejoin="bevel" stroke-width="2.73"></polyline>
<polyline class="Stem" fill="none" points="820.186,1226.35 820.186,1142.72" stroke="#000000" stroke-linejoin="bevel" stroke-width="2.73"></polyline>
<polyline class="Stem" fill="none" points="933.059,1146.05 933.059,1223.33" stroke="#000000" stroke-linejoin="bevel" stroke-width="2.73"></polyline>
<polyline class="Stem" fill="none" points="999.07,1158.45 999.07,1229.53" stroke="#000000" stroke-linejoin="bevel" stroke-width="2.73"></polyline>
<polyline class="Stem" fill="none" points="1105.22,1170.85 1105.22,1241.93" stroke="#000000" stroke-linejoin="bevel" stroke-width="2.73"></polyline>
<polyline class="Stem" fill="none" points="1154.55,1170.85 1154.55,1241.93" stroke="#000000" stroke-linejoin="bevel" stroke-width="2.73"></polyline>
<polyline class="Stem" fill="none" points="1203.89,1195.66 1203.89,1260.53" stroke="#000000" stroke-linejoin="bevel" stroke-width="2.73"></polyline>
<polyline class="Stem" fill="none" points="1253.22,1195.66 1253.22,1260.53" stroke="#000000" stroke-linejoin="bevel" stroke-width="2.73"></polyline>
<polyline class="Stem" fill="none" points="1359.37,1220.46 1359.37,1279.13" stroke="#000000" stroke-linejoin="bevel" stroke-width="2.73"></polyline>
<polyline class="Stem" fill="none" points="1422.98,1158.45 1422.98,1232.63" stroke="#000000" stroke-linejoin="bevel" stroke-width="2.73"></polyline>
<polyline class="Stem" fill="none" points="1462.73,1170.85 1462.73,1241.93" stroke="#000000" stroke-linejoin="bevel" stroke-width="2.73"></polyline>
<polyline class="Stem" fill="none" points="1568.88,1183.25 1568.88,1251.23" stroke="#000000" stroke-linejoin="bevel" stroke-width="2.73"></polyline>
<polyline class="Stem" fill="none" points="1655.45,1170.85 1655.45,1254.33" stroke="#000000" stroke-linejoin="bevel" stroke-width="2.73"></polyline>
<polyline class="Stem" fill="none" points="1699.82,1183.25 1699.82,1272.93" stroke="#000000" stroke-linejoin="bevel" stroke-width="2.73"></polyline>
<polyline class="Stem" fill="none" points="1744.19,1195.66 1744.19,1281.2" stroke="#000000" stroke-linejoin="bevel" stroke-width="2.73"></polyline>
<polyline class="Stem" fill="none" points="1788.57,1208.06 1788.57,1289.47" stroke="#000000" stroke-linejoin="bevel" stroke-width="2.73"></polyline>
<polyline class="Stem" fill="none" points="1832.94,1220.46 1832.94,1297.74" stroke="#000000" stroke-linejoin="bevel" stroke-width="2.73"></polyline>
<polyline class="Stem" fill="none" points="1977.28,1226.35 1977.28,1142.72" stroke="#000000" stroke-linejoin="bevel" stroke-width="2.73"></polyline>
<polyline class="Stem" fill="none" points="2119.66,1189.15 2119.66,1111.71" stroke="#000000" stroke-linejoin="bevel" stroke-width="2.73"></polyline>
<polyline class="Stem" fill="none" points="2185.67,1176.75 2185.67,1105.51" stroke="#000000" stroke-linejoin="bevel" stroke-width="2.73"></polyline>
<polyline class="Stem" fill="none" points="2262.31,1170.85 2262.31,1241.93" stroke="#000000" stroke-linejoin="bevel" stroke-width="2.73"></polyline>
<polyline class="Stem" fill="none" points="2311.64,1170.85 2311.64,1241.93" stroke="#000000" stroke-linejoin="bevel" stroke-width="2.73"></polyline>
<polyline class="Stem" fill="none" points="2360.98,1158.45 2360.98,1232.63" stroke="#000000" stroke-linejoin="bevel" stroke-width="2.73"></polyline>
<polyline class="Stem" fill="none" points="2410.31,1146.05 2410.31,1223.33" stroke="#000000" stroke-linejoin="bevel" stroke-width="2.73"></polyline>
<polyline class="Stem" fill="none" points="2516.46,1133.65 2516.46,1214.03" stroke="#000000" stroke-linejoin="bevel" stroke-width="2.73"></polyline>
<polyline class="Stem" fill="none" points="2581.01,1158.45 2581.01,1232.63" stroke="#000000" stroke-linejoin="bevel" stroke-width="2.73"></polyline>
<polyline class="Stem" fill="none" points="2661.23,1189.15 2661.23,1111.71" stroke="#000000" stroke-linejoin="bevel" stroke-width="2.73"></polyline>
<polyline class="Stem" fill="none" points="2720.75,1176.75 2720.75,1105.51" stroke="#000000" stroke-linejoin="bevel" stroke-width="2.73"></polyline>
<polyline class="Stem" fill="none" points="404.234,1642.11 404.234,1713.19" stroke="#000000" stroke-linejoin="bevel" stroke-width="2.73"></polyline>
<polyline class="Stem" fill="none" points="590.911,1654.51 590.911,1737.99" stroke="#000000" stroke-linejoin="bevel" stroke-width="2.73"></polyline>
<polyline class="Stem" fill="none" points="686.594,1691.72 686.594,1750.39" stroke="#000000" stroke-linejoin="bevel" stroke-width="2.73"></polyline>
<polyline class="Stem" fill="none" points="839.688,1679.32 839.688,1741.09" stroke="#000000" stroke-linejoin="bevel" stroke-width="2.73"></polyline>
<polyline class="Stem" fill="none" points="1029.49,1666.92 1029.49,1731.79" stroke="#000000" stroke-linejoin="bevel" stroke-width="2.73"></polyline>
<path class="Note" d="M31.5,-8.09375 C29.7031,-11.4063 25.9063,-13.2031 21.2969,-13.2031 C17.9063,-13.2031 14.2031,-12.2031 10.5938,-10.2969 C4,-6.79688 0,-0.90625 0,4.20313 C0,5.59375 0.296875,7 1,8.29688 C2.79688,11.5938 6.59375,13.2969 11.2031,13.2969 C14.5938,13.2969 18.2969,12.4063 21.9063,10.5 C28.5,7 32.5,1.09375 32.5,-4 C32.5,-5.40625 32.2031,-6.79688 31.5,-8.09375" transform="matrix(0.992126,0,0,0.992126,564.408,696.26)"></path>
<path class="Note" d="M31.5,-8.09375 C29.7031,-11.4063 25.9063,-13.2031 21.2969,-13.2031 C17.9063,-13.2031 14.2031,-12.2031 10.5938,-10.2969 C4,-6.79688 0,-0.90625 0,4.20313 C0,5.59375 0.296875,7 1,8.29688 C2.79688,11.5938 6.59375,13.2969 11.2031,13.2969 C14.5938,13.2969 18.2969,12.4063 21.9063,10.5 C28.5,7 32.5,1.09375 32.5,-4 C32.5,-5.40625 32.2031,-6.79688 31.5,-8.09375" transform="matrix(0.992126,0,0,0.992126,640.696,708.661)"></path>
<path class="Note" d="M31.5,-8.09375 C29.7031,-11.4063 25.9063,-13.2031 21.2969,-13.2031 C17.9063,-13.2031 14.2031,-12.2031 10.5938,-10.2969 C4,-6.79688 0,-0.90625 0,4.20313 C0,5.59375 0.296875,7 1,8.29688 C2.79688,11.5938 6.59375,13.2969 11.2031,13.2969 C14.5938,13.2969 18.2969,12.4063 21.9063,10.5 C28.5,7 32.5,1.09375 32.5,-4 C32.5,-5.40625 32.2031,-6.79688 31.5,-8.09375" transform="matrix(0.992126,0,0,0.992126,746.846,721.063)"></path>
<path class="Note" d="M31.5,-8.09375 C29.7031,-11.4063 25.9063,-13.2031 21.2969,-13.2031 C17.9063,-13.2031 14.2031,-12.2031 10.5938,-10.2969 C4,-6.79688 0,-0.90625 0,4.20313 C0,5.59375 0.296875,7 1,8.29688 C2.79688,11.5938 6.59375,13.2969 11.2031,13.2969 C14.5938,13.2969 18.2969,12.4063 21.9063,10.5 C28.5,7 32.5,1.09375 32.5,-4 C32.5,-5.40625 32.2031,-6.79688 31.5,-8.09375" transform="matrix(0.992126,0,0,0.992126,816.554,758.268)"></path>
<path class="Note" d="M31.5,-8.09375 C29.7031,-11.4063 25.9063,-13.2031 21.2969,-13.2031 C17.9063,-13.2031 14.2031,-12.2031 10.5938,-10.2969 C4,-6.79688 0,-0.90625 0,4.20313 C0,5.59375 0.296875,7 1,8.29688 C2.79688,11.5938 6.59375,13.2969 11.2031,13.2969 C14.5938,13.2969 18.2969,12.4063 21.9063,10.5 C28.5,7 32.5,1.09375 32.5,-4 C32.5,-5.40625 32.2031,-6.79688 31.5,-8.09375" transform="matrix(0.992126,0,0,0.992126,886.263,721.063)"></path>
<path class="Note" d="M31.5,-8.09375 C29.7031,-11.4063 25.9063,-13.2031 21.2969,-13.2031 C17.9063,-13.2031 14.2031,-12.2031 10.5938,-10.2969 C4,-6.79688 0,-0.90625 0,4.20313 C0,5.59375 0.296875,7 1,8.29688 C2.79688,11.5938 6.59375,13.2969 11.2031,13.2969 C14.5938,13.2969 18.2969,12.4063 21.9063,10.5 C28.5,7 32.5,1.09375 32.5,-4 C32.5,-5.40625 32.2031,-6.79688 31.5,-8.09375" transform="matrix(0.992126,0,0,0.992126,955.971,708.661)"></path>
<path class="Note" d="M31.5,-8.09375 C29.7031,-11.4063 25.9063,-13.2031 21.2969,-13.2031 C17.9063,-13.2031 14.2031,-12.2031 10.5938,-10.2969 C4,-6.79688 0,-0.90625 0,4.20313 C0,5.59375 0.296875,7 1,8.29688 C2.79688,11.5938 6.59375,13.2969 11.2031,13.2969 C14.5938,13.2969 18.2969,12.4063 21.9063,10.5 C28.5,7 32.5,1.09375 32.5,-4 C32.5,-5.40625 32.2031,-6.79688 31.5,-8.09375" transform="matrix(0.992126,0,0,0.992126,1017.79,721.063)"></path>
<path class="Note" d="M31.5,-8.09375 C29.7031,-11.4063 25.9063,-13.2031 21.2969,-13.2031 C17.9063,-13.2031 14.2031,-12.2031 10.5938,-10.2969 C4,-6.79688 0,-0.90625 0,4.20313 C0,5.59375 0.296875,7 1,8.29688 C2.79688,11.5938 6.59375,13.2969 11.2031,13.2969 C14.5938,13.2969 18.2969,12.4063 21.9063,10.5 C28.5,7 32.5,1.09375 32.5,-4 C32.5,-5.40625 32.2031,-6.79688 31.5,-8.09375" transform="matrix(0.992126,0,0,0.992126,1123.94,733.465)"></path>
<path class="Note" d="M31.5,-8.14063 C29.7031,-11.4375 25.9063,-13.2344 21.2969,-13.2344 C17.9063,-13.2344 14.2031,-12.2344 10.5938,-10.3438 C4,-6.84375 0,-0.9375 0,4.15625 C0,5.5625 0.296875,6.96875 1,8.26563 C2.79688,11.5781 6.59375,13.2813 11.2031,13.2813 C14.5938,13.2813 18.2969,12.375 21.9063,10.4844 C28.5,6.96875 32.5,1.0625 32.5,-4.04688 C32.5,-5.4375 32.2031,-6.84375 31.5,-8.14063 M27.2031,-1.34375 C25.5,0.359375 22.0938,2.45313 18.5,4.46875 C14.9063,6.46875 11.2969,7.96875 8.90625,8.46875 C8.40625,8.57813 7.90625,8.67188 7.40625,8.67188 C5.79688,8.67188 4.59375,8.07813 3.90625,6.76563 C3.59375,6.26563 3.40625,5.67188 3.40625,5.0625 C3.40625,3.96875 4.09375,2.65625 5.20313,1.5625 C6.90625,-0.140625 10.2031,-2.23438 13.7969,-4.23438 C17.4063,-6.23438 21,-7.73438 23.4063,-8.23438 C23.9063,-8.34375 24.4063,-8.4375 24.9063,-8.4375 C26.5,-8.4375 27.7969,-7.84375 28.5,-6.54688 C28.7969,-6.04688 28.9063,-5.4375 28.9063,-4.84375 C28.9063,-3.73438 28.2969,-2.54688 27.2031,-1.34375" transform="matrix(0.992126,0,0,0.992126,1192.27,745.866)"></path>
<path class="Note" d="M31.5,-8.09375 C29.7031,-11.4063 25.9063,-13.2031 21.2969,-13.2031 C17.9063,-13.2031 14.2031,-12.2031 10.5938,-10.2969 C4,-6.79688 0,-0.90625 0,4.20313 C0,5.59375 0.296875,7 1,8.29688 C2.79688,11.5938 6.59375,13.2969 11.2031,13.2969 C14.5938,13.2969 18.2969,12.4063 21.9063,10.5 C28.5,7 32.5,1.09375 32.5,-4 C32.5,-5.40625 32.2031,-6.79688 31.5,-8.09375" transform="matrix(0.992126,0,0,0.992126,1279.23,721.063)"></path>
<path class="Note" d="M31.5,-8.09375 C29.7031,-11.4063 25.9063,-13.2031 21.2969,-13.2031 C17.9063,-13.2031 14.2031,-12.2031 10.5938,-10.2969 C4,-6.79688 0,-0.90625 0,4.20313 C0,5.59375 0.296875,7 1,8.29688 C2.79688,11.5938 6.59375,13.2969 11.2031,13.2969 C14.5938,13.2969 18.2969,12.4063 21.9063,10.5 C28.5,7 32.5,1.09375 32.5,-4 C32.5,-5.40625 32.2031,-6.79688 31.5,-8.09375" transform="matrix(0.992126,0,0,0.992126,1339.83,708.661)"></path>
<path class="Note" d="M31.5,-8.09375 C29.7031,-11.4063 25.9063,-13.2031 21.2969,-13.2031 C17.9063,-13.2031 14.2031,-12.2031 10.5938,-10.2969 C4,-6.79688 0,-0.90625 0,4.20313 C0,5.59375 0.296875,7 1,8.29688 C2.79688,11.5938 6.59375,13.2969 11.2031,13.2969 C14.5938,13.2969 18.2969,12.4063 21.9063,10.5 C28.5,7 32.5,1.09375 32.5,-4 C32.5,-5.40625 32.2031,-6.79688 31.5,-8.09375" transform="matrix(0.992126,0,0,0.992126,1445.98,696.26)"></path>
<path class="Note" d="M31.5,-8.09375 C29.7031,-11.4063 25.9063,-13.2031 21.2969,-13.2031 C17.9063,-13.2031 14.2031,-12.2031 10.5938,-10.2969 C4,-6.79688 0,-0.90625 0,4.20313 C0,5.59375 0.296875,7 1,8.29688 C2.79688,11.5938 6.59375,13.2969 11.2031,13.2969 C14.5938,13.2969 18.2969,12.4063 21.9063,10.5 C28.5,7 32.5,1.09375 32.5,-4 C32.5,-5.40625 32.2031,-6.79688 31.5,-8.09375" transform="matrix(0.992126,0,0,0.992126,1509.02,696.26)"></path>
<path class="Note" d="M31.5,-8.09375 C29.7031,-11.4063 25.9063,-13.2031 21.2969,-13.2031 C17.9063,-13.2031 14.2031,-12.2031 10.5938,-10.2969 C4,-6.79688 0,-0.90625 0,4.20313 C0,5.59375 0.296875,7 1,8.29688 C2.79688,11.5938 6.59375,13.2969 11.2031,13.2969 C14.5938,13.2969 18.2969,12.4063 21.9063,10.5 C28.5,7 32.5,1.09375 32.5,-4 C32.5,-5.40625 32.2031,-6.79688 31.5,-8.09375" transform="matrix(0.992126,0,0,0.992126,1572.05,671.457)"></path>
<path class="Note" d="M31.5,-8.09375 C29.7031,-11.4063 25.9063,-13.2031 21.2969,-13.2031 C17.9063,-13.2031 14.2031,-12.2031 10.5938,-10.2969 C4,-6.79688 0,-0.90625 0,4.20313 C0,5.59375 0.296875,7 1,8.29688 C2.79688,11.5938 6.59375,13.2969 11.2031,13.2969 C14.5938,13.2969 18.2969,12.4063 21.9063,10.5 C28.5,7 32.5,1.09375 32.5,-4 C32.5,-5.40625 32.2031,-6.79688 31.5,-8.09375" transform="matrix(0.992126,0,0,0.992126,1635.09,721.063)"></path>
<path class="Note" d="M31.5,-8.14063 C29.7031,-11.4375 25.9063,-13.2344 21.2969,-13.2344 C17.9063,-13.2344 14.2031,-12.2344 10.5938,-10.3438 C4,-6.84375 0,-0.9375 0,4.15625 C0,5.5625 0.296875,6.96875 1,8.26563 C2.79688,11.5781 6.59375,13.2813 11.2031,13.2813 C14.5938,13.2813 18.2969,12.375 21.9063,10.4844 C28.5,6.96875 32.5,1.0625 32.5,-4.04688 C32.5,-5.4375 32.2031,-6.84375 31.5,-8.14063 M27.2031,-1.34375 C25.5,0.359375 22.0938,2.45313 18.5,4.46875 C14.9063,6.46875 11.2969,7.96875 8.90625,8.46875 C8.40625,8.57813 7.90625,8.67188 7.40625,8.67188 C5.79688,8.67188 4.59375,8.07813 3.90625,6.76563 C3.59375,6.26563 3.40625,5.67188 3.40625,5.0625 C3.40625,3.96875 4.09375,2.65625 5.20313,1.5625 C6.90625,-0.140625 10.2031,-2.23438 13.7969,-4.23438 C17.4063,-6.23438 21,-7.73438 23.4063,-8.23438 C23.9063,-8.34375 24.4063,-8.4375 24.9063,-8.4375 C26.5,-8.4375 27.7969,-7.84375 28.5,-6.54688 C28.7969,-6.04688 28.9063,-5.4375 28.9063,-4.84375 C28.9063,-3.73438 28.2969,-2.54688 27.2031,-1.34375" transform="matrix(0.992126,0,0,0.992126,1741.24,708.661)"></path>
<path class="Note" d="M31.5,-8.09375 C29.7031,-11.4063 25.9063,-13.2031 21.2969,-13.2031 C17.9063,-13.2031 14.2031,-12.2031 10.5938,-10.2969 C4,-6.79688 0,-0.90625 0,4.20313 C0,5.59375 0.296875,7 1,8.29688 C2.79688,11.5938 6.59375,13.2969 11.2031,13.2969 C14.5938,13.2969 18.2969,12.4063 21.9063,10.5 C28.5,7 32.5,1.09375 32.5,-4 C32.5,-5.40625 32.2031,-6.79688 31.5,-8.09375" transform="matrix(0.992126,0,0,0.992126,1914.45,696.26)"></path>
<path class="Note" d="M31.5,-8.09375 C29.7031,-11.4063 25.9063,-13.2031 21.2969,-13.2031 C17.9063,-13.2031 14.2031,-12.2031 10.5938,-10.2969 C4,-6.79688 0,-0.90625 0,4.20313 C0,5.59375 0.296875,7 1,8.29688 C2.79688,11.5938 6.59375,13.2969 11.2031,13.2969 C14.5938,13.2969 18.2969,12.4063 21.9063,10.5 C28.5,7 32.5,1.09375 32.5,-4 C32.5,-5.40625 32.2031,-6.79688 31.5,-8.09375" transform="matrix(0.992126,0,0,0.992126,1990.74,708.661)"></path>
<path class="Note" d="M31.5,-8.09375 C29.7031,-11.4063 25.9063,-13.2031 21.2969,-13.2031 C17.9063,-13.2031 14.2031,-12.2031 10.5938,-10.2969 C4,-6.79688 0,-0.90625 0,4.20313 C0,5.59375 0.296875,7 1,8.29688 C2.79688,11.5938 6.59375,13.2969 11.2031,13.2969 C14.5938,13.2969 18.2969,12.4063 21.9063,10.5 C28.5,7 32.5,1.09375 32.5,-4 C32.5,-5.40625 32.2031,-6.79688 31.5,-8.09375" transform="matrix(0.992126,0,0,0.992126,2096.89,721.063)"></path>
<path class="Note" d="M31.5,-8.09375 C29.7031,-11.4063 25.9063,-13.2031 21.2969,-13.2031 C17.9063,-13.2031 14.2031,-12.2031 10.5938,-10.2969 C4,-6.79688 0,-0.90625 0,4.20313 C0,5.59375 0.296875,7 1,8.29688 C2.79688,11.5938 6.59375,13.2969 11.2031,13.2969 C14.5938,13.2969 18.2969,12.4063 21.9063,10.5 C28.5,7 32.5,1.09375 32.5,-4 C32.5,-5.40625 32.2031,-6.79688 31.5,-8.09375" transform="matrix(0.992126,0,0,0.992126,2166.6,758.268)"></path>
<path class="Note" d="M31.5,-8.09375 C29.7031,-11.4063 25.9063,-13.2031 21.2969,-13.2031 C17.9063,-13.2031 14.2031,-12.2031 10.5938,-10.2969 C4,-6.79688 0,-0.90625 0,4.20313 C0,5.59375 0.296875,7 1,8.29688 C2.79688,11.5938 6.59375,13.2969 11.2031,13.2969 C14.5938,13.2969 18.2969,12.4063 21.9063,10.5 C28.5,7 32.5,1.09375 32.5,-4 C32.5,-5.40625 32.2031,-6.79688 31.5,-8.09375" transform="matrix(0.992126,0,0,0.992126,2236.31,721.063)"></path>
<path class="Note" d="M31.5,-8.09375 C29.7031,-11.4063 25.9063,-13.2031 21.2969,-13.2031 C17.9063,-13.2031 14.2031,-12.2031 10.5938,-10.2969 C4,-6.79688 0,-0.90625 0,4.20313 C0,5.59375 0.296875,7 1,8.29688 C2.79688,11.5938 6.59375,13.2969 11.2031,13.2969 C14.5938,13.2969 18.2969,12.4063 21.9063,10.5 C28.5,7 32.5,1.09375 32.5,-4 C32.5,-5.40625 32.2031,-6.79688 31.5,-8.09375" transform="matrix(0.992126,0,0,0.992126,2306.02,708.661)"></path>
<path class="Note" d="M31.5,-8.09375 C29.7031,-11.4063 25.9063,-13.2031 21.2969,-13.2031 C17.9063,-13.2031 14.2031,-12.2031 10.5938,-10.2969 C4,-6.79688 0,-0.90625 0,4.20313 C0,5.59375 0.296875,7 1,8.29688 C2.79688,11.5938 6.59375,13.2969 11.2031,13.2969 C14.5938,13.2969 18.2969,12.4063 21.9063,10.5 C28.5,7 32.5,1.09375 32.5,-4 C32.5,-5.40625 32.2031,-6.79688 31.5,-8.09375" transform="matrix(0.992126,0,0,0.992126,2367.83,721.063)"></path>
<path class="Note" d="M31.5,-8.09375 C29.7031,-11.4063 25.9063,-13.2031 21.2969,-13.2031 C17.9063,-13.2031 14.2031,-12.2031 10.5938,-10.2969 C4,-6.79688 0,-0.90625 0,4.20313 C0,5.59375 0.296875,7 1,8.29688 C2.79688,11.5938 6.59375,13.2969 11.2031,13.2969 C14.5938,13.2969 18.2969,12.4063 21.9063,10.5 C28.5,7 32.5,1.09375 32.5,-4 C32.5,-5.40625 32.2031,-6.79688 31.5,-8.09375" transform="matrix(0.992126,0,0,0.992126,2473.98,733.465)"></path>
<path class="Note" d="M31.5,-8.14063 C29.7031,-11.4375 25.9063,-13.2344 21.2969,-13.2344 C17.9063,-13.2344 14.2031,-12.2344 10.5938,-10.3438 C4,-6.84375 0,-0.9375 0,4.15625 C0,5.5625 0.296875,6.96875 1,8.26563 C2.79688,11.5781 6.59375,13.2813 11.2031,13.2813 C14.5938,13.2813 18.2969,12.375 21.9063,10.4844 C28.5,6.96875 32.5,1.0625 32.5,-4.04688 C32.5,-5.4375 32.2031,-6.84375 31.5,-8.14063 M27.2031,-1.34375 C25.5,0.359375 22.0938,2.45313 18.5,4.46875 C14.9063,6.46875 11.2969,7.96875 8.90625,8.46875 C8.40625,8.57813 7.90625,8.67188 7.40625,8.67188 C5.79688,8.67188 4.59375,8.07813 3.90625,6.76563 C3.59375,6.26563 3.40625,5.67188 3.40625,5.0625 C3.40625,3.96875 4.09375,2.65625 5.20313,1.5625 C6.90625,-0.140625 10.2031,-2.23438 13.7969,-4.23438 C17.4063,-6.23438 21,-7.73438 23.4063,-8.23438 C23.9063,-8.34375 24.4063,-8.4375 24.9063,-8.4375 C26.5,-8.4375 27.7969,-7.84375 28.5,-6.54688 C28.7969,-6.04688 28.9063,-5.4375 28.9063,-4.84375 C28.9063,-3.73438 28.2969,-2.54688 27.2031,-1.34375" transform="matrix(0.992126,0,0,0.992126,2542.31,745.866)"></path>
<path class="Note" d="M31.5,-8.09375 C29.7031,-11.4063 25.9063,-13.2031 21.2969,-13.2031 C17.9063,-13.2031 14.2031,-12.2031 10.5938,-10.2969 C4,-6.79688 0,-0.90625 0,4.20313 C0,5.59375 0.296875,7 1,8.29688 C2.79688,11.5938 6.59375,13.2969 11.2031,13.2969 C14.5938,13.2969 18.2969,12.4063 21.9063,10.5 C28.5,7 32.5,1.09375 32.5,-4 C32.5,-5.40625 32.2031,-6.79688 31.5,-8.09375" transform="matrix(0.992126,0,0,0.992126,2629.28,708.661)"></path>
<path class="Note" d="M31.5,-8.09375 C29.7031,-11.4063 25.9063,-13.2031 21.2969,-13.2031 C17.9063,-13.2031 14.2031,-12.2031 10.5938,-10.2969 C4,-6.79688 0,-0.90625 0,4.20313 C0,5.59375 0.296875,7 1,8.29688 C2.79688,11.5938 6.59375,13.2969 11.2031,13.2969 C14.5938,13.2969 18.2969,12.4063 21.9063,10.5 C28.5,7 32.5,1.09375 32.5,-4 C32.5,-5.40625 32.2031,-6.79688 31.5,-8.09375" transform="matrix(0.992126,0,0,0.992126,2689.87,721.063)"></path>
<path class="Note" d="M31.5,-8.09375 C29.7031,-11.4063 25.9063,-13.2031 21.2969,-13.2031 C17.9063,-13.2031 14.2031,-12.2031 10.5938,-10.2969 C4,-6.79688 0,-0.90625 0,4.20313 C0,5.59375 0.296875,7 1,8.29688 C2.79688,11.5938 6.59375,13.2969 11.2031,13.2969 C14.5938,13.2969 18.2969,12.4063 21.9063,10.5 C28.5,7 32.5,1.09375 32.5,-4 C32.5,-5.40625 32.2031,-6.79688 31.5,-8.09375" transform="matrix(0.992126,0,0,0.992126,402.87,1204.72)"></path>
<path class="Note" d="M31.5,-8.09375 C29.7031,-11.4063 25.9063,-13.2031 21.2969,-13.2031 C17.9063,-13.2031 14.2031,-12.2031 10.5938,-10.2969 C4,-6.79688 0,-0.90625 0,4.20313 C0,5.59375 0.296875,7 1,8.29688 C2.79688,11.5938 6.59375,13.2969 11.2031,13.2969 C14.5938,13.2969 18.2969,12.4063 21.9063,10.5 C28.5,7 32.5,1.09375 32.5,-4 C32.5,-5.40625 32.2031,-6.79688 31.5,-8.09375" transform="matrix(0.992126,0,0,0.992126,472.963,1142.72)"></path>
<path class="Note" d="M31.5,-8.09375 C29.7031,-11.4063 25.9063,-13.2031 21.2969,-13.2031 C17.9063,-13.2031 14.2031,-12.2031 10.5938,-10.2969 C4,-6.79688 0,-0.90625 0,4.20313 C0,5.59375 0.296875,7 1,8.29688 C2.79688,11.5938 6.59375,13.2969 11.2031,13.2969 C14.5938,13.2969 18.2969,12.4063 21.9063,10.5 C28.5,7 32.5,1.09375 32.5,-4 C32.5,-5.40625 32.2031,-6.79688 31.5,-8.09375" transform="matrix(0.992126,0,0,0.992126,543.057,1155.12)"></path>
<path class="Note" d="M31.5,-8.09375 C29.7031,-11.4063 25.9063,-13.2031 21.2969,-13.2031 C17.9063,-13.2031 14.2031,-12.2031 10.5938,-10.2969 C4,-6.79688 0,-0.90625 0,4.20313 C0,5.59375 0.296875,7 1,8.29688 C2.79688,11.5938 6.59375,13.2969 11.2031,13.2969 C14.5938,13.2969 18.2969,12.4063 21.9063,10.5 C28.5,7 32.5,1.09375 32.5,-4 C32.5,-5.40625 32.2031,-6.79688 31.5,-8.09375" transform="matrix(0.992126,0,0,0.992126,586.866,1167.52)"></path>
<path class="Note" d="M31.5,-8.09375 C29.7031,-11.4063 25.9063,-13.2031 21.2969,-13.2031 C17.9063,-13.2031 14.2031,-12.2031 10.5938,-10.2969 C4,-6.79688 0,-0.90625 0,4.20313 C0,5.59375 0.296875,7 1,8.29688 C2.79688,11.5938 6.59375,13.2969 11.2031,13.2969 C14.5938,13.2969 18.2969,12.4063 21.9063,10.5 C28.5,7 32.5,1.09375 32.5,-4 C32.5,-5.40625 32.2031,-6.79688 31.5,-8.09375" transform="matrix(0.992126,0,0,0.992126,630.675,1192.32)"></path>
<path class="Note" d="M31.5,-8.09375 C29.7031,-11.4063 25.9063,-13.2031 21.2969,-13.2031 C17.9063,-13.2031 14.2031,-12.2031 10.5938,-10.2969 C4,-6.79688 0,-0.90625 0,4.20313 C0,5.59375 0.296875,7 1,8.29688 C2.79688,11.5938 6.59375,13.2969 11.2031,13.2969 C14.5938,13.2969 18.2969,12.4063 21.9063,10.5 C28.5,7 32.5,1.09375 32.5,-4 C32.5,-5.40625 32.2031,-6.79688 31.5,-8.09375" transform="matrix(0.992126,0,0,0.992126,674.483,1217.13)"></path>
<path class="Note" d="M31.5,-8.14063 C29.7031,-11.4375 25.9063,-13.2344 21.2969,-13.2344 C17.9063,-13.2344 14.2031,-12.2344 10.5938,-10.3438 C4,-6.84375 0,-0.9375 0,4.15625 C0,5.5625 0.296875,6.96875 1,8.26563 C2.79688,11.5781 6.59375,13.2813 11.2031,13.2813 C14.5938,13.2813 18.2969,12.375 21.9063,10.4844 C28.5,6.96875 32.5,1.0625 32.5,-4.04688 C32.5,-5.4375 32.2031,-6.84375 31.5,-8.14063 M27.2031,-1.34375 C25.5,0.359375 22.0938,2.45313 18.5,4.46875 C14.9063,6.46875 11.2969,7.96875 8.90625,8.46875 C8.40625,8.57813 7.90625,8.67188 7.40625,8.67188 C5.79688,8.67188 4.59375,8.07813 3.90625,6.76563 C3.59375,6.26563 3.40625,5.67188 3.40625,5.0625 C3.40625,3.96875 4.09375,2.65625 5.20313,1.5625 C6.90625,-0.140625 10.2031,-2.23438 13.7969,-4.23438 C17.4063,-6.23438 21,-7.73438 23.4063,-8.23438 C23.9063,-8.34375 24.4063,-8.4375 24.9063,-8.4375 C26.5,-8.4375 27.7969,-7.84375 28.5,-6.54688 C28.7969,-6.04688 28.9063,-5.4375 28.9063,-4.84375 C28.9063,-3.73438 28.2969,-2.54688 27.2031,-1.34375" transform="matrix(0.992126,0,0,0.992126,789.314,1229.53)"></path>
<path class="Note" d="M31.5,-8.09375 C29.7031,-11.4063 25.9063,-13.2031 21.2969,-13.2031 C17.9063,-13.2031 14.2031,-12.2031 10.5938,-10.2969 C4,-6.79688 0,-0.90625 0,4.20313 C0,5.59375 0.296875,7 1,8.29688 C2.79688,11.5938 6.59375,13.2969 11.2031,13.2969 C14.5938,13.2969 18.2969,12.4063 21.9063,10.5 C28.5,7 32.5,1.09375 32.5,-4 C32.5,-5.40625 32.2031,-6.79688 31.5,-8.09375" transform="matrix(0.992126,0,0,0.992126,931.695,1142.72)"></path>
<path class="Note" d="M31.5,-8.09375 C29.7031,-11.4063 25.9063,-13.2031 21.2969,-13.2031 C17.9063,-13.2031 14.2031,-12.2031 10.5938,-10.2969 C4,-6.79688 0,-0.90625 0,4.20313 C0,5.59375 0.296875,7 1,8.29688 C2.79688,11.5938 6.59375,13.2969 11.2031,13.2969 C14.5938,13.2969 18.2969,12.4063 21.9063,10.5 C28.5,7 32.5,1.09375 32.5,-4 C32.5,-5.40625 32.2031,-6.79688 31.5,-8.09375" transform="matrix(0.992126,0,0,0.992126,997.706,1155.12)"></path>
<path class="Note" d="M31.5,-8.09375 C29.7031,-11.4063 25.9063,-13.2031 21.2969,-13.2031 C17.9063,-13.2031 14.2031,-12.2031 10.5938,-10.2969 C4,-6.79688 0,-0.90625 0,4.20313 C0,5.59375 0.296875,7 1,8.29688 C2.79688,11.5938 6.59375,13.2969 11.2031,13.2969 C14.5938,13.2969 18.2969,12.4063 21.9063,10.5 C28.5,7 32.5,1.09375 32.5,-4 C32.5,-5.40625 32.2031,-6.79688 31.5,-8.09375" transform="matrix(0.992126,0,0,0.992126,1103.86,1167.52)"></path>
<path class="Note" d="M31.5,-8.09375 C29.7031,-11.4063 25.9063,-13.2031 21.2969,-13.2031 C17.9063,-13.2031 14.2031,-12.2031 10.5938,-10.2969 C4,-6.79688 0,-0.90625 0,4.20313 C0,5.59375 0.296875,7 1,8.29688 C2.79688,11.5938 6.59375,13.2969 11.2031,13.2969 C14.5938,13.2969 18.2969,12.4063 21.9063,10.5 C28.5,7 32.5,1.09375 32.5,-4 C32.5,-5.40625 32.2031,-6.79688 31.5,-8.09375" transform="matrix(0.992126,0,0,0.992126,1153.19,1167.52)"></path>
<path class="Note" d="M31.5,-8.09375 C29.7031,-11.4063 25.9063,-13.2031 21.2969,-13.2031 C17.9063,-13.2031 14.2031,-12.2031 10.5938,-10.2969 C4,-6.79688 0,-0.90625 0,4.20313 C0,5.59375 0.296875,7 1,8.29688 C2.79688,11.5938 6.59375,13.2969 11.2031,13.2969 C14.5938,13.2969 18.2969,12.4063 21.9063,10.5 C28.5,7 32.5,1.09375 32.5,-4 C32.5,-5.40625 32.2031,-6.79688 31.5,-8.09375" transform="matrix(0.992126,0,0,0.992126,1202.52,1192.32)"></path>
<path class="Note" d="M31.5,-8.09375 C29.7031,-11.4063 25.9063,-13.2031 21.2969,-13.2031 C17.9063,-13.2031 14.2031,-12.2031 10.5938,-10.2969 C4,-6.79688 0,-0.90625 0,4.20313 C0,5.59375 0.296875,7 1,8.29688 C2.79688,11.5938 6.59375,13.2969 11.2031,13.2969 C14.5938,13.2969 18.2969,12.4063 21.9063,10.5 C28.5,7 32.5,1.09375 32.5,-4 C32.5,-5.40625 32.2031,-6.79688 31.5,-8.09375" transform="matrix(0.992126,0,0,0.992126,1251.86,1192.32)"></path>
<path class="Note" d="M31.5,-8.14063 C29.7031,-11.4375 25.9063,-13.2344 21.2969,-13.2344 C17.9063,-13.2344 14.2031,-12.2344 10.5938,-10.3438 C4,-6.84375 0,-0.9375 0,4.15625 C0,5.5625 0.296875,6.96875 1,8.26563 C2.79688,11.5781 6.59375,13.2813 11.2031,13.2813 C14.5938,13.2813 18.2969,12.375 21.9063,10.4844 C28.5,6.96875 32.5,1.0625 32.5,-4.04688 C32.5,-5.4375 32.2031,-6.84375 31.5,-8.14063 M27.2031,-1.34375 C25.5,0.359375 22.0938,2.45313 18.5,4.46875 C14.9063,6.46875 11.2969,7.96875 8.90625,8.46875 C8.40625,8.57813 7.90625,8.67188 7.40625,8.67188 C5.79688,8.67188 4.59375,8.07813 3.90625,6.76563 C3.59375,6.26563 3.40625,5.67188 3.40625,5.0625 C3.40625,3.96875 4.09375,2.65625 5.20313,1.5625 C6.90625,-0.140625 10.2031,-2.23438 13.7969,-4.23438 C17.4063,-6.23438 21,-7.73438 23.4063,-8.23438 C23.9063,-8.34375 24.4063,-8.4375 24.9063,-8.4375 C26.5,-8.4375 27.7969,-7.84375 28.5,-6.54688 C28.7969,-6.04688 28.9063,-5.4375 28.9063,-4.84375 C28.9063,-3.73438 28.2969,-2.54688 27.2031,-1.34375" transform="matrix(0.992126,0,0,0.992126,1358.01,1217.13)"></path>
<path class="Note" d="M31.5,-8.09375 C29.7031,-11.4063 25.9063,-13.2031 21.2969,-13.2031 C17.9063,-13.2031 14.2031,-12.2031 10.5938,-10.2969 C4,-6.79688 0,-0.90625 0,4.20313 C0,5.59375 0.296875,7 1,8.29688 C2.79688,11.5938 6.59375,13.2969 11.2031,13.2969 C14.5938,13.2969 18.2969,12.4063 21.9063,10.5 C28.5,7 32.5,1.09375 32.5,-4 C32.5,-5.40625 32.2031,-6.79688 31.5,-8.09375" transform="matrix(0.992126,0,0,0.992126,1421.61,1155.12)"></path>
<path class="Note" d="M31.5,-8.09375 C29.7031,-11.4063 25.9063,-13.2031 21.2969,-13.2031 C17.9063,-13.2031 14.2031,-12.2031 10.5938,-10.2969 C4,-6.79688 0,-0.90625 0,4.20313 C0,5.59375 0.296875,7 1,8.29688 C2.79688,11.5938 6.59375,13.2969 11.2031,13.2969 C14.5938,13.2969 18.2969,12.4063 21.9063,10.5 C28.5,7 32.5,1.09375 32.5,-4 C32.5,-5.40625 32.2031,-6.79688 31.5,-8.09375" transform="matrix(0.992126,0,0,0.992126,1461.37,1167.52)"></path>
<path class="Note" d="M31.5,-8.09375 C29.7031,-11.4063 25.9063,-13.2031 21.2969,-13.2031 C17.9063,-13.2031 14.2031,-12.2031 10.5938,-10.2969 C4,-6.79688 0,-0.90625 0,4.20313 C0,5.59375 0.296875,7 1,8.29688 C2.79688,11.5938 6.59375,13.2969 11.2031,13.2969 C14.5938,13.2969 18.2969,12.4063 21.9063,10.5 C28.5,7 32.5,1.09375 32.5,-4 C32.5,-5.40625 32.2031,-6.79688 31.5,-8.09375" transform="matrix(0.992126,0,0,0.992126,1567.52,1179.92)"></path>
<path class="Note" d="M31.5,-8.09375 C29.7031,-11.4063 25.9063,-13.2031 21.2969,-13.2031 C17.9063,-13.2031 14.2031,-12.2031 10.5938,-10.2969 C4,-6.79688 0,-0.90625 0,4.20313 C0,5.59375 0.296875,7 1,8.29688 C2.79688,11.5938 6.59375,13.2969 11.2031,13.2969 C14.5938,13.2969 18.2969,12.4063 21.9063,10.5 C28.5,7 32.5,1.09375 32.5,-4 C32.5,-5.40625 32.2031,-6.79688 31.5,-8.09375" transform="matrix(0.992126,0,0,0.992126,1654.09,1167.52)"></path>
<path class="Note" d="M31.5,-8.09375 C29.7031,-11.4063 25.9063,-13.2031 21.2969,-13.2031 C17.9063,-13.2031 14.2031,-12.2031 10.5938,-10.2969 C4,-6.79688 0,-0.90625 0,4.20313 C0,5.59375 0.296875,7 1,8.29688 C2.79688,11.5938 6.59375,13.2969 11.2031,13.2969 C14.5938,13.2969 18.2969,12.4063 21.9063,10.5 C28.5,7 32.5,1.09375 32.5,-4 C32.5,-5.40625 32.2031,-6.79688 31.5,-8.09375" transform="matrix(0.992126,0,0,0.992126,1698.46,1179.92)"></path>
<path class="Note" d="M31.5,-8.09375 C29.7031,-11.4063 25.9063,-13.2031 21.2969,-13.2031 C17.9063,-13.2031 14.2031,-12.2031 10.5938,-10.2969 C4,-6.79688 0,-0.90625 0,4.20313 C0,5.59375 0.296875,7 1,8.29688 C2.79688,11.5938 6.59375,13.2969 11.2031,13.2969 C14.5938,13.2969 18.2969,12.4063 21.9063,10.5 C28.5,7 32.5,1.09375 32.5,-4 C32.5,-5.40625 32.2031,-6.79688 31.5,-8.09375" transform="matrix(0.992126,0,0,0.992126,1742.83,1192.32)"></path>
<path class="Note" d="M31.5,-8.09375 C29.7031,-11.4063 25.9063,-13.2031 21.2969,-13.2031 C17.9063,-13.2031 14.2031,-12.2031 10.5938,-10.2969 C4,-6.79688 0,-0.90625 0,4.20313 C0,5.59375 0.296875,7 1,8.29688 C2.79688,11.5938 6.59375,13.2969 11.2031,13.2969 C14.5938,13.2969 18.2969,12.4063 21.9063,10.5 C28.5,7 32.5,1.09375 32.5,-4 C32.5,-5.40625 32.2031,-6.79688 31.5,-8.09375" transform="matrix(0.992126,0,0,0.992126,1787.2,1204.72)"></path>
<path class="Note" d="M31.5,-8.09375 C29.7031,-11.4063 25.9063,-13.2031 21.2969,-13.2031 C17.9063,-13.2031 14.2031,-12.2031 10.5938,-10.2969 C4,-6.79688 0,-0.90625 0,4.20313 C0,5.59375 0.296875,7 1,8.29688 C2.79688,11.5938 6.59375,13.2969 11.2031,13.2969 C14.5938,13.2969 18.2969,12.4063 21.9063,10.5 C28.5,7 32.5,1.09375 32.5,-4 C32.5,-5.40625 32.2031,-6.79688 31.5,-8.09375" transform="matrix(0.992126,0,0,0.992126,1831.57,1217.13)"></path>
<path class="Note" d="M31.5,-8.14063 C29.7031,-11.4375 25.9063,-13.2344 21.2969,-13.2344 C17.9063,-13.2344 14.2031,-12.2344 10.5938,-10.3438 C4,-6.84375 0,-0.9375 0,4.15625 C0,5.5625 0.296875,6.96875 1,8.26563 C2.79688,11.5781 6.59375,13.2813 11.2031,13.2813 C14.5938,13.2813 18.2969,12.375 21.9063,10.4844 C28.5,6.96875 32.5,1.0625 32.5,-4.04688 C32.5,-5.4375 32.2031,-6.84375 31.5,-8.14063 M27.2031,-1.34375 C25.5,0.359375 22.0938,2.45313 18.5,4.46875 C14.9063,6.46875 11.2969,7.96875 8.90625,8.46875 C8.40625,8.57813 7.90625,8.67188 7.40625,8.67188 C5.79688,8.67188 4.59375,8.07813 3.90625,6.76563 C3.59375,6.26563 3.40625,5.67188 3.40625,5.0625 C3.40625,3.96875 4.09375,2.65625 5.20313,1.5625 C6.90625,-0.140625 10.2031,-2.23438 13.7969,-4.23438 C17.4063,-6.23438 21,-7.73438 23.4063,-8.23438 C23.9063,-8.34375 24.4063,-8.4375 24.9063,-8.4375 C26.5,-8.4375 27.7969,-7.84375 28.5,-6.54688 C28.7969,-6.04688 28.9063,-5.4375 28.9063,-4.84375 C28.9063,-3.73438 28.2969,-2.54688 27.2031,-1.34375" transform="matrix(0.992126,0,0,0.992126,1946.4,1229.53)"></path>
<path class="Note" d="M31.5,-8.09375 C29.7031,-11.4063 25.9063,-13.2031 21.2969,-13.2031 C17.9063,-13.2031 14.2031,-12.2031 10.5938,-10.2969 C4,-6.79688 0,-0.90625 0,4.20313 C0,5.59375 0.296875,7 1,8.29688 C2.79688,11.5938 6.59375,13.2969 11.2031,13.2969 C14.5938,13.2969 18.2969,12.4063 21.9063,10.5 C28.5,7 32.5,1.09375 32.5,-4 C32.5,-5.40625 32.2031,-6.79688 31.5,-8.09375" transform="matrix(0.992126,0,0,0.992126,2088.78,1192.32)"></path>
<path class="Note" d="M31.5,-8.09375 C29.7031,-11.4063 25.9063,-13.2031 21.2969,-13.2031 C17.9063,-13.2031 14.2031,-12.2031 10.5938,-10.2969 C4,-6.79688 0,-0.90625 0,4.20313 C0,5.59375 0.296875,7 1,8.29688 C2.79688,11.5938 6.59375,13.2969 11.2031,13.2969 C14.5938,13.2969 18.2969,12.4063 21.9063,10.5 C28.5,7 32.5,1.09375 32.5,-4 C32.5,-5.40625 32.2031,-6.79688 31.5,-8.09375" transform="matrix(0.992126,0,0,0.992126,2154.79,1179.92)"></path>
<path class="Note" d="M31.5,-8.09375 C29.7031,-11.4063 25.9063,-13.2031 21.2969,-13.2031 C17.9063,-13.2031 14.2031,-12.2031 10.5938,-10.2969 C4,-6.79688 0,-0.90625 0,4.20313 C0,5.59375 0.296875,7 1,8.29688 C2.79688,11.5938 6.59375,13.2969 11.2031,13.2969 C14.5938,13.2969 18.2969,12.4063 21.9063,10.5 C28.5,7 32.5,1.09375 32.5,-4 C32.5,-5.40625 32.2031,-6.79688 31.5,-8.09375" transform="matrix(0.992126,0,0,0.992126,2260.94,1167.52)"></path>
<path class="Note" d="M31.5,-8.09375 C29.7031,-11.4063 25.9063,-13.2031 21.2969,-13.2031 C17.9063,-13.2031 14.2031,-12.2031 10.5938,-10.2969 C4,-6.79688 0,-0.90625 0,4.20313 C0,5.59375 0.296875,7 1,8.29688 C2.79688,11.5938 6.59375,13.2969 11.2031,13.2969 C14.5938,13.2969 18.2969,12.4063 21.9063,10.5 C28.5,7 32.5,1.09375 32.5,-4 C32.5,-5.40625 32.2031,-6.79688 31.5,-8.09375" transform="matrix(0.992126,0,0,0.992126,2310.28,1167.52)"></path>
<path class="Note" d="M31.5,-8.09375 C29.7031,-11.4063 25.9063,-13.2031 21.2969,-13.2031 C17.9063,-13.2031 14.2031,-12.2031 10.5938,-10.2969 C4,-6.79688 0,-0.90625 0,4.20313 C0,5.59375 0.296875,7 1,8.29688 C2.79688,11.5938 6.59375,13.2969 11.2031,13.2969 C14.5938,13.2969 18.2969,12.4063 21.9063,10.5 C28.5,7 32.5,1.09375 32.5,-4 C32.5,-5.40625 32.2031,-6.79688 31.5,-8.09375" transform="matrix(0.992126,0,0,0.992126,2359.61,1155.12)"></path>
<path class="Note" d="M31.5,-8.09375 C29.7031,-11.4063 25.9063,-13.2031 21.2969,-13.2031 C17.9063,-13.2031 14.2031,-12.2031 10.5938,-10.2969 C4,-6.79688 0,-0.90625 0,4.20313 C0,5.59375 0.296875,7 1,8.29688 C2.79688,11.5938 6.59375,13.2969 11.2031,13.2969 C14.5938,13.2969 18.2969,12.4063 21.9063,10.5 C28.5,7 32.5,1.09375 32.5,-4 C32.5,-5.40625 32.2031,-6.79688 31.5,-8.09375" transform="matrix(0.992126,0,0,0.992126,2408.95,1142.72)"></path>
<path class="Note" d="M31.5,-8.14063 C29.7031,-11.4375 25.9063,-13.2344 21.2969,-13.2344 C17.9063,-13.2344 14.2031,-12.2344 10.5938,-10.3438 C4,-6.84375 0,-0.9375 0,4.15625 C0,5.5625 0.296875,6.96875 1,8.26563 C2.79688,11.5781 6.59375,13.2813 11.2031,13.2813 C14.5938,13.2813 18.2969,12.375 21.9063,10.4844 C28.5,6.96875 32.5,1.0625 32.5,-4.04688 C32.5,-5.4375 32.2031,-6.84375 31.5,-8.14063 M27.2031,-1.34375 C25.5,0.359375 22.0938,2.45313 18.5,4.46875 C14.9063,6.46875 11.2969,7.96875 8.90625,8.46875 C8.40625,8.57813 7.90625,8.67188 7.40625,8.67188 C5.79688,8.67188 4.59375,8.07813 3.90625,6.76563 C3.59375,6.26563 3.40625,5.67188 3.40625,5.0625 C3.40625,3.96875 4.09375,2.65625 5.20313,1.5625 C6.90625,-0.140625 10.2031,-2.23438 13.7969,-4.23438 C17.4063,-6.23438 21,-7.73438 23.4063,-8.23438 C23.9063,-8.34375 24.4063,-8.4375 24.9063,-8.4375 C26.5,-8.4375 27.7969,-7.84375 28.5,-6.54688 C28.7969,-6.04688 28.9063,-5.4375 28.9063,-4.84375 C28.9063,-3.73438 28.2969,-2.54688 27.2031,-1.34375" transform="matrix(0.992126,0,0,0.992126,2515.09,1130.31)"></path>
<path class="Note" d="M31.5,-8.09375 C29.7031,-11.4063 25.9063,-13.2031 21.2969,-13.2031 C17.9063,-13.2031 14.2031,-12.2031 10.5938,-10.2969 C4,-6.79688 0,-0.90625 0,4.20313 C0,5.59375 0.296875,7 1,8.29688 C2.79688,11.5938 6.59375,13.2969 11.2031,13.2969 C14.5938,13.2969 18.2969,12.4063 21.9063,10.5 C28.5,7 32.5,1.09375 32.5,-4 C32.5,-5.40625 32.2031,-6.79688 31.5,-8.09375" transform="matrix(0.992126,0,0,0.992126,2579.64,1155.12)"></path>
<path class="Note" d="M31.5,-8.09375 C29.7031,-11.4063 25.9063,-13.2031 21.2969,-13.2031 C17.9063,-13.2031 14.2031,-12.2031 10.5938,-10.2969 C4,-6.79688 0,-0.90625 0,4.20313 C0,5.59375 0.296875,7 1,8.29688 C2.79688,11.5938 6.59375,13.2969 11.2031,13.2969 C14.5938,13.2969 18.2969,12.4063 21.9063,10.5 C28.5,7 32.5,1.09375 32.5,-4 C32.5,-5.40625 32.2031,-6.79688 31.5,-8.09375" transform="matrix(0.992126,0,0,0.992126,2630.36,1192.32)"></path>
<path class="Note" d="M31.5,-8.09375 C29.7031,-11.4063 25.9063,-13.2031 21.2969,-13.2031 C17.9063,-13.2031 14.2031,-12.2031 10.5938,-10.2969 C4,-6.79688 0,-0.90625 0,4.20313 C0,5.59375 0.296875,7 1,8.29688 C2.79688,11.5938 6.59375,13.2969 11.2031,13.2969 C14.5938,13.2969 18.2969,12.4063 21.9063,10.5 C28.5,7 32.5,1.09375 32.5,-4 C32.5,-5.40625 32.2031,-6.79688 31.5,-8.09375" transform="matrix(0.992126,0,0,0.992126,2689.87,1179.92)"></path>
<path class="Note" d="M31.5,-8.09375 C29.7031,-11.4063 25.9063,-13.2031 21.2969,-13.2031 C17.9063,-13.2031 14.2031,-12.2031 10.5938,-10.2969 C4,-6.79688 0,-0.90625 0,4.20313 C0,5.59375 0.296875,7 1,8.29688 C2.79688,11.5938 6.59375,13.2969 11.2031,13.2969 C14.5938,13.2969 18.2969,12.4063 21.9063,10.5 C28.5,7 32.5,1.09375 32.5,-4 C32.5,-5.40625 32.2031,-6.79688 31.5,-8.09375" transform="matrix(0.992126,0,0,0.992126,402.87,1638.78)"></path>
<path class="Note" d="M31.5,-8.09375 C29.7031,-11.4063 25.9063,-13.2031 21.2969,-13.2031 C17.9063,-13.2031 14.2031,-12.2031 10.5938,-10.2969 C4,-6.79688 0,-0.90625 0,4.20313 C0,5.59375 0.296875,7 1,8.29688 C2.79688,11.5938 6.59375,13.2969 11.2031,13.2969 C14.5938,13.2969 18.2969,12.4063 21.9063,10.5 C28.5,7 32.5,1.09375 32.5,-4 C32.5,-5.40625 32.2031,-6.79688 31.5,-8.09375" transform="matrix(0.992126,0,0,0.992126,589.546,1651.18)"></path>
<path class="Note" d="M31.5,-8.09375 C29.7031,-11.4063 25.9063,-13.2031 21.2969,-13.2031 C17.9063,-13.2031 14.2031,-12.2031 10.5938,-10.2969 C4,-6.79688 0,-0.90625 0,4.20313 C0,5.59375 0.296875,7 1,8.29688 C2.79688,11.5938 6.59375,13.2969 11.2031,13.2969 C14.5938,13.2969 18.2969,12.4063 21.9063,10.5 C28.5,7 32.5,1.09375 32.5,-4 C32.5,-5.40625 32.2031,-6.79688 31.5,-8.09375" transform="matrix(0.992126,0,0,0.992126,685.23,1688.39)"></path>
<path class="Note" d="M31.5,-8.09375 C29.7031,-11.4063 25.9063,-13.2031 21.2969,-13.2031 C17.9063,-13.2031 14.2031,-12.2031 10.5938,-10.2969 C4,-6.79688 0,-0.90625 0,4.20313 C0,5.59375 0.296875,7 1,8.29688 C2.79688,11.5938 6.59375,13.2969 11.2031,13.2969 C14.5938,13.2969 18.2969,12.4063 21.9063,10.5 C28.5,7 32.5,1.09375 32.5,-4 C32.5,-5.40625 32.2031,-6.79688 31.5,-8.09375" transform="matrix(0.992126,0,0,0.992126,838.324,1675.98)"></path>
<path class="Note" d="M31.5,-8.14063 C29.7031,-11.4375 25.9063,-13.2344 21.2969,-13.2344 C17.9063,-13.2344 14.2031,-12.2344 10.5938,-10.3438 C4,-6.84375 0,-0.9375 0,4.15625 C0,5.5625 0.296875,6.96875 1,8.26563 C2.79688,11.5781 6.59375,13.2813 11.2031,13.2813 C14.5938,13.2813 18.2969,12.375 21.9063,10.4844 C28.5,6.96875 32.5,1.0625 32.5,-4.04688 C32.5,-5.4375 32.2031,-6.84375 31.5,-8.14063 M27.2031,-1.34375 C25.5,0.359375 22.0938,2.45313 18.5,4.46875 C14.9063,6.46875 11.2969,7.96875 8.90625,8.46875 C8.40625,8.57813 7.90625,8.67188 7.40625,8.67188 C5.79688,8.67188 4.59375,8.07813 3.90625,6.76563 C3.59375,6.26563 3.40625,5.67188 3.40625,5.0625 C3.40625,3.96875 4.09375,2.65625 5.20313,1.5625 C6.90625,-0.140625 10.2031,-2.23438 13.7969,-4.23438 C17.4063,-6.23438 21,-7.73438 23.4063,-8.23438 C23.9063,-8.34375 24.4063,-8.4375 24.9063,-8.4375 C26.5,-8.4375 27.7969,-7.84375 28.5,-6.54688 C28.7969,-6.04688 28.9063,-5.4375 28.9063,-4.84375 C28.9063,-3.73438 28.2969,-2.54688 27.2031,-1.34375" transform="matrix(0.992126,0,0,0.992126,1028.13,1663.58)"></path>
<path class="Clef" d="M63.3594,-5.92188 C62.125,-11.3438 59.4844,-15.1719 58.7031,-16.2031 C55.5156,-20.4844 51.5,-23.3281 46.8125,-24.6875 C43.7031,-25.5625 40.7031,-25.6875 38.2813,-25.5 C37.2344,-31.5156 36.2344,-37.3906 35.3281,-42.8438 C40.7813,-49.0156 44.4063,-54.8125 46.6875,-59.1094 C50.1563,-65.6875 51.2969,-70.2656 51.3594,-70.4688 C53.0781,-75.6875 53.4375,-83.3906 52.3281,-91.5938 C51.3281,-99.1406 49.2344,-105.859 46.875,-109.109 C45.8594,-110.531 44.7969,-111.266 43.7656,-111.266 C42.5469,-111.266 40.0313,-110.031 37.1406,-107.25 C34.8438,-105.063 31.5781,-101.172 29.0156,-95.1563 C26.0156,-88.0938 25.7969,-78.6094 26.1563,-71.8906 C26.5313,-64.6094 27.6406,-58.9219 27.6563,-58.875 C27.6719,-58.7813 27.9375,-57.2813 28.375,-54.7188 C28.1563,-54.4844 27.9063,-54.2656 27.6563,-54.0156 C26.625,-53.0156 25.4375,-51.8906 24.0469,-50.5 C23.1875,-49.6406 22.2344,-48.7344 21.2344,-47.7656 C12.7969,-39.625 0,-27.2969 0,-8.14063 C0,-3.4375 0.90625,0.984375 2.6875,5 C4.26563,8.59375 6.5625,11.875 9.5,14.75 C17.2344,22.3125 27.8281,25.5156 34.875,25.3594 C37.8281,25.2813 40.4688,25.0469 42.8594,24.5938 C44.6875,34.2031 45.8281,41.2344 45.8594,46.5781 C45.9063,53.0938 44.25,57.0781 40.3594,59.8438 C37.9219,61.5781 35.1094,62.5313 32.0156,62.6719 C29.4219,62.7969 27.1563,62.3281 25.7344,61.9219 L25.7188,61.9219 C25.7188,61.9219 25.4375,61.8281 25.4219,61.6406 C25.4063,61.4531 25.7656,61.4063 25.7656,61.4063 L25.7969,61.4063 C27.7188,60.9688 31.2813,59.7344 33.6406,56.4375 C35.4375,53.9063 36.3125,49.2813 34.4688,45.3438 C33.3594,42.9531 30.8594,40 25.2344,39.5469 C22.7344,39.3438 20.4688,39.8594 18.4688,41.0625 C16.6563,42.1406 15.1563,43.7813 14.1094,45.7813 C11.6563,50.4844 12.1094,56.2188 15.2344,60.0625 C18.2031,63.6875 22.8125,66 28.25,66.5781 C29.1094,66.6719 29.9531,66.7031 30.7969,66.7031 C35.2344,66.7031 39.625,65.5 43.2031,63.2969 C46.8594,60.7188 48.9844,56.7344 49.6563,51.1094 C50.2188,46.4688 49.8281,40.5469 48.4375,32.4688 C48.0781,30.375 47.5313,27.3438 46.875,23.5938 C52.625,21.6719 56.7813,18.0938 60.5469,12.2344 C63.8438,6.5 64.7813,0.390625 63.3594,-5.92188 M29.1406,20.2969 C24.5,19.0781 20.0625,16.5781 16.3125,13.0625 C15,11.8438 13.125,9.67188 11.6563,6.28125 C10.2969,3.10938 9.625,-0.328125 9.6875,-3.90625 C9.75,-8.60938 11.0625,-13.4375 13.5625,-18.2188 C16.4844,-23.7969 21.0469,-29.3281 27.1094,-34.6563 C28.5625,-35.9375 29.9375,-37.2188 31.2188,-38.5 C31.9844,-34.2344 32.8125,-29.5469 33.6875,-24.6719 C29.8438,-23.4063 25.0938,-20.25 21.9844,-14.5938 C18.4375,-8.03125 18.5781,-2.5 19.3125,0.984375 C20.25,5.4375 22.7813,9.20313 26.2344,11.2969 C27.1719,11.8594 31.2969,13.9844 33.1406,13.4063 C33.5156,13.2969 33.7813,13.0625 33.9219,12.7344 C34.4375,11.5625 33.4063,10.9219 31.8594,9.96875 C31.25,9.59375 30.5781,9.17188 29.8594,8.64063 C26.5313,6.15625 25.0781,1.70313 26.1563,-2.6875 C26.7344,-5.07813 28.0156,-7.25 29.8594,-8.95313 C31.5156,-10.5 33.5625,-11.5938 35.9375,-12.2344 C37.9844,-0.984375 40.0469,10.1719 41.6875,18.5313 C41.8125,19.2188 41.9531,19.8906 42.0781,20.5625 C37.7031,21.5 33.3594,21.4063 29.1406,20.2969 M40.4688,-12.9063 C50.8125,-13.375 55.0781,-5.9375 55.9688,-1.10938 C56.4375,1.4375 56.4375,5.875 54.8906,10.0938 C53.7188,13.2656 51.2656,17.3438 46.125,19.4063 C46.0625,18.9844 45.9844,18.5469 45.9063,18.125 C44.3594,9.34375 42.4219,-1.65625 40.4688,-12.9063 M33.1406,-83.8594 C34.9219,-89.5938 37.6563,-92.8438 39.6563,-94.5781 C41.4063,-96.0938 43.0469,-96.8125 43.9688,-96.8125 C44.1094,-96.8125 44.2344,-96.7813 44.3281,-96.75 C44.7969,-96.6094 45.3281,-96.0469 45.7969,-95.1719 C48.1094,-90.8906 47.3594,-84.1719 46.0156,-79.7344 C44.3906,-74.3281 41.4688,-68.7188 32.6719,-59.1094 C32.5,-60.2188 32.3438,-61.2656 32.1875,-62.25 C30.9375,-70.5313 31.2656,-77.8125 33.1406,-83.8594" transform="matrix(0.992126,0,0,0.992126,356.457,708.661)"></path>
<path class="Clef" d="M63.3594,-5.92188 C62.125,-11.3438 59.4844,-15.1719 58.7031,-16.2031 C55.5156,-20.4844 51.5,-23.3281 46.8125,-24.6875 C43.7031,-25.5625 40.7031,-25.6875 38.2813,-25.5 C37.2344,-31.5156 36.2344,-37.3906 35.3281,-42.8438 C40.7813,-49.0156 44.4063,-54.8125 46.6875,-59.1094 C50.1563,-65.6875 51.2969,-70.2656 51.3594,-70.4688 C53.0781,-75.6875 53.4375,-83.3906 52.3281,-91.5938 C51.3281,-99.1406 49.2344,-105.859 46.875,-109.109 C45.8594,-110.531 44.7969,-111.266 43.7656,-111.266 C42.5469,-111.266 40.0313,-110.031 37.1406,-107.25 C34.8438,-105.063 31.5781,-101.172 29.0156,-95.1563 C26.0156,-88.0938 25.7969,-78.6094 26.1563,-71.8906 C26.5313,-64.6094 27.6406,-58.9219 27.6563,-58.875 C27.6719,-58.7813 27.9375,-57.2813 28.375,-54.7188 C28.1563,-54.4844 27.9063,-54.2656 27.6563,-54.0156 C26.625,-53.0156 25.4375,-51.8906 24.0469,-50.5 C23.1875,-49.6406 22.2344,-48.7344 21.2344,-47.7656 C12.7969,-39.625 0,-27.2969 0,-8.14063 C0,-3.4375 0.90625,0.984375 2.6875,5 C4.26563,8.59375 6.5625,11.875 9.5,14.75 C17.2344,22.3125 27.8281,25.5156 34.875,25.3594 C37.8281,25.2813 40.4688,25.0469 42.8594,24.5938 C44.6875,34.2031 45.8281,41.2344 45.8594,46.5781 C45.9063,53.0938 44.25,57.0781 40.3594,59.8438 C37.9219,61.5781 35.1094,62.5313 32.0156,62.6719 C29.4219,62.7969 27.1563,62.3281 25.7344,61.9219 L25.7188,61.9219 C25.7188,61.9219 25.4375,61.8281 25.4219,61.6406 C25.4063,61.4531 25.7656,61.4063 25.7656,61.4063 L25.7969,61.4063 C27.7188,60.9688 31.2813,59.7344 33.6406,56.4375 C35.4375,53.9063 36.3125,49.2813 34.4688,45.3438 C33.3594,42.9531 30.8594,40 25.2344,39.5469 C22.7344,39.3438 20.4688,39.8594 18.4688,41.0625 C16.6563,42.1406 15.1563,43.7813 14.1094,45.7813 C11.6563,50.4844 12.1094,56.2188 15.2344,60.0625 C18.2031,63.6875 22.8125,66 28.25,66.5781 C29.1094,66.6719 29.9531,66.7031 30.7969,66.7031 C35.2344,66.7031 39.625,65.5 43.2031,63.2969 C46.8594,60.7188 48.9844,56.7344 49.6563,51.1094 C50.2188,46.4688 49.8281,40.5469 48.4375,32.4688 C48.0781,30.375 47.5313,27.3438 46.875,23.5938 C52.625,21.6719 56.7813,18.0938 60.5469,12.2344 C63.8438,6.5 64.7813,0.390625 63.3594,-5.92188 M29.1406,20.2969 C24.5,19.0781 20.0625,16.5781 16.3125,13.0625 C15,11.8438 13.125,9.67188 11.6563,6.28125 C10.2969,3.10938 9.625,-0.328125 9.6875,-3.90625 C9.75,-8.60938 11.0625,-13.4375 13.5625,-18.2188 C16.4844,-23.7969 21.0469,-29.3281 27.1094,-34.6563 C28.5625,-35.9375 29.9375,-37.2188 31.2188,-38.5 C31.9844,-34.2344 32.8125,-29.5469 33.6875,-24.6719 C29.8438,-23.4063 25.0938,-20.25 21.9844,-14.5938 C18.4375,-8.03125 18.5781,-2.5 19.3125,0.984375 C20.25,5.4375 22.7813,9.20313 26.2344,11.2969 C27.1719,11.8594 31.2969,13.9844 33.1406,13.4063 C33.5156,13.2969 33.7813,13.0625 33.9219,12.7344 C34.4375,11.5625 33.4063,10.9219 31.8594,9.96875 C31.25,9.59375 30.5781,9.17188 29.8594,8.64063 C26.5313,6.15625 25.0781,1.70313 26.1563,-2.6875 C26.7344,-5.07813 28.0156,-7.25 29.8594,-8.95313 C31.5156,-10.5 33.5625,-11.5938 35.9375,-12.2344 C37.9844,-0.984375 40.0469,10.1719 41.6875,18.5313 C41.8125,19.2188 41.9531,19.8906 42.0781,20.5625 C37.7031,21.5 33.3594,21.4063 29.1406,20.2969 M40.4688,-12.9063 C50.8125,-13.375 55.0781,-5.9375 55.9688,-1.10938 C56.4375,1.4375 56.4375,5.875 54.8906,10.0938 C53.7188,13.2656 51.2656,17.3438 46.125,19.4063 C46.0625,18.9844 45.9844,18.5469 45.9063,18.125 C44.3594,9.34375 42.4219,-1.65625 40.4688,-12.9063 M33.1406,-83.8594 C34.9219,-89.5938 37.6563,-92.8438 39.6563,-94.5781 C41.4063,-96.0938 43.0469,-96.8125 43.9688,-96.8125 C44.1094,-96.8125 44.2344,-96.7813 44.3281,-96.75 C44.7969,-96.6094 45.3281,-96.0469 45.7969,-95.1719 C48.1094,-90.8906 47.3594,-84.1719 46.0156,-79.7344 C44.3906,-74.3281 41.4688,-68.7188 32.6719,-59.1094 C32.5,-60.2188 32.3438,-61.2656 32.1875,-62.25 C30.9375,-70.5313 31.2656,-77.8125 33.1406,-83.8594" transform="matrix(0.992126,0,0,0.992126,232.441,1179.92)"></path>
<path class="Clef" d="M63.3594,-5.92188 C62.125,-11.3438 59.4844,-15.1719 58.7031,-16.2031 C55.5156,-20.4844 51.5,-23.3281 46.8125,-24.6875 C43.7031,-25.5625 40.7031,-25.6875 38.2813,-25.5 C37.2344,-31.5156 36.2344,-37.3906 35.3281,-42.8438 C40.7813,-49.0156 44.4063,-54.8125 46.6875,-59.1094 C50.1563,-65.6875 51.2969,-70.2656 51.3594,-70.4688 C53.0781,-75.6875 53.4375,-83.3906 52.3281,-91.5938 C51.3281,-99.1406 49.2344,-105.859 46.875,-109.109 C45.8594,-110.531 44.7969,-111.266 43.7656,-111.266 C42.5469,-111.266 40.0313,-110.031 37.1406,-107.25 C34.8438,-105.063 31.5781,-101.172 29.0156,-95.1563 C26.0156,-88.0938 25.7969,-78.6094 26.1563,-71.8906 C26.5313,-64.6094 27.6406,-58.9219 27.6563,-58.875 C27.6719,-58.7813 27.9375,-57.2813 28.375,-54.7188 C28.1563,-54.4844 27.9063,-54.2656 27.6563,-54.0156 C26.625,-53.0156 25.4375,-51.8906 24.0469,-50.5 C23.1875,-49.6406 22.2344,-48.7344 21.2344,-47.7656 C12.7969,-39.625 0,-27.2969 0,-8.14063 C0,-3.4375 0.90625,0.984375 2.6875,5 C4.26563,8.59375 6.5625,11.875 9.5,14.75 C17.2344,22.3125 27.8281,25.5156 34.875,25.3594 C37.8281,25.2813 40.4688,25.0469 42.8594,24.5938 C44.6875,34.2031 45.8281,41.2344 45.8594,46.5781 C45.9063,53.0938 44.25,57.0781 40.3594,59.8438 C37.9219,61.5781 35.1094,62.5313 32.0156,62.6719 C29.4219,62.7969 27.1563,62.3281 25.7344,61.9219 L25.7188,61.9219 C25.7188,61.9219 25.4375,61.8281 25.4219,61.6406 C25.4063,61.4531 25.7656,61.4063 25.7656,61.4063 L25.7969,61.4063 C27.7188,60.9688 31.2813,59.7344 33.6406,56.4375 C35.4375,53.9063 36.3125,49.2813 34.4688,45.3438 C33.3594,42.9531 30.8594,40 25.2344,39.5469 C22.7344,39.3438 20.4688,39.8594 18.4688,41.0625 C16.6563,42.1406 15.1563,43.7813 14.1094,45.7813 C11.6563,50.4844 12.1094,56.2188 15.2344,60.0625 C18.2031,63.6875 22.8125,66 28.25,66.5781 C29.1094,66.6719 29.9531,66.7031 30.7969,66.7031 C35.2344,66.7031 39.625,65.5 43.2031,63.2969 C46.8594,60.7188 48.9844,56.7344 49.6563,51.1094 C50.2188,46.4688 49.8281,40.5469 48.4375,32.4688 C48.0781,30.375 47.5313,27.3438 46.875,23.5938 C52.625,21.6719 56.7813,18.0938 60.5469,12.2344 C63.8438,6.5 64.7813,0.390625 63.3594,-5.92188 M29.1406,20.2969 C24.5,19.0781 20.0625,16.5781 16.3125,13.0625 C15,11.8438 13.125,9.67188 11.6563,6.28125 C10.2969,3.10938 9.625,-0.328125 9.6875,-3.90625 C9.75,-8.60938 11.0625,-13.4375 13.5625,-18.2188 C16.4844,-23.7969 21.0469,-29.3281 27.1094,-34.6563 C28.5625,-35.9375 29.9375,-37.2188 31.2188,-38.5 C31.9844,-34.2344 32.8125,-29.5469 33.6875,-24.6719 C29.8438,-23.4063 25.0938,-20.25 21.9844,-14.5938 C18.4375,-8.03125 18.5781,-2.5 19.3125,0.984375 C20.25,5.4375 22.7813,9.20313 26.2344,11.2969 C27.1719,11.8594 31.2969,13.9844 33.1406,13.4063 C33.5156,13.2969 33.7813,13.0625 33.9219,12.7344 C34.4375,11.5625 33.4063,10.9219 31.8594,9.96875 C31.25,9.59375 30.5781,9.17188 29.8594,8.64063 C26.5313,6.15625 25.0781,1.70313 26.1563,-2.6875 C26.7344,-5.07813 28.0156,-7.25 29.8594,-8.95313 C31.5156,-10.5 33.5625,-11.5938 35.9375,-12.2344 C37.9844,-0.984375 40.0469,10.1719 41.6875,18.5313 C41.8125,19.2188 41.9531,19.8906 42.0781,20.5625 C37.7031,21.5 33.3594,21.4063 29.1406,20.2969 M40.4688,-12.9063 C50.8125,-13.375 55.0781,-5.9375 55.9688,-1.10938 C56.4375,1.4375 56.4375,5.875 54.8906,10.0938 C53.7188,13.2656 51.2656,17.3438 46.125,19.4063 C46.0625,18.9844 45.9844,18.5469 45.9063,18.125 C44.3594,9.34375 42.4219,-1.65625 40.4688,-12.9063 M33.1406,-83.8594 C34.9219,-89.5938 37.6563,-92.8438 39.6563,-94.5781 C41.4063,-96.0938 43.0469,-96.8125 43.9688,-96.8125 C44.1094,-96.8125 44.2344,-96.7813 44.3281,-96.75 C44.7969,-96.6094 45.3281,-96.0469 45.7969,-95.1719 C48.1094,-90.8906 47.3594,-84.1719 46.0156,-79.7344 C44.3906,-74.3281 41.4688,-68.7188 32.6719,-59.1094 C32.5,-60.2188 32.3438,-61.2656 32.1875,-62.25 C30.9375,-70.5313 31.2656,-77.8125 33.1406,-83.8594" transform="matrix(0.992126,0,0,0.992126,232.441,1651.18)"></path>
<path class="KeySig" d="M20.0938,-7.90625 C19.5,-11.7969 17.0938,-15.5 12,-15.5 C7,-15.5 4.09375,-12.4063 3.59375,-11.7969 L4,-43.9063 C4,-44.7031 3.40625,-45.2969 2.59375,-45.2969 L1.40625,-45.2969 C0.59375,-45.2969 0,-44.7031 0,-43.9063 L0.5,16.2031 C0.5,17 1.09375,17.5938 1.90625,17.5938 C2.09375,17.5938 2.5,17.5 2.70313,17.4063 C3.09375,17.2031 9.59375,14 15,7.90625 C18.7969,3.59375 20.2969,-1.29688 20.2969,-5.40625 C20.2969,-6.29688 20.2031,-7.09375 20.0938,-7.90625 M13.2031,-4 C13.2031,-2.5 12.7969,2.09375 10.2969,5.90625 C8.59375,8.5 5.20313,11.2031 3.29688,12.7031 L3.59375,-6.79688 C3.79688,-7.70313 5.29688,-10.5938 9.29688,-10.5938 C12.9063,-10.5938 13.2031,-7.20313 13.2031,-5.09375 L13.2031,-4 " transform="matrix(0.992126,0,0,0.992126,444.74,683.858)"></path>
<path class="KeySig" d="M20.0938,-7.90625 C19.5,-11.7969 17.0938,-15.5 12,-15.5 C7,-15.5 4.09375,-12.4063 3.59375,-11.7969 L4,-43.9063 C4,-44.7031 3.40625,-45.2969 2.59375,-45.2969 L1.40625,-45.2969 C0.59375,-45.2969 0,-44.7031 0,-43.9063 L0.5,16.2031 C0.5,17 1.09375,17.5938 1.90625,17.5938 C2.09375,17.5938 2.5,17.5 2.70313,17.4063 C3.09375,17.2031 9.59375,14 15,7.90625 C18.7969,3.59375 20.2969,-1.29688 20.2969,-5.40625 C20.2969,-6.29688 20.2031,-7.09375 20.0938,-7.90625 M13.2031,-4 C13.2031,-2.5 12.7969,2.09375 10.2969,5.90625 C8.59375,8.5 5.20313,11.2031 3.29688,12.7031 L3.59375,-6.79688 C3.79688,-7.70313 5.29688,-10.5938 9.29688,-10.5938 C12.9063,-10.5938 13.2031,-7.20313 13.2031,-5.09375 L13.2031,-4 " transform="matrix(0.992126,0,0,0.992126,320.725,1155.12)"></path>
<path class="KeySig" d="M20.0938,-7.90625 C19.5,-11.7969 17.0938,-15.5 12,-15.5 C7,-15.5 4.09375,-12.4063 3.59375,-11.7969 L4,-43.9063 C4,-44.7031 3.40625,-45.2969 2.59375,-45.2969 L1.40625,-45.2969 C0.59375,-45.2969 0,-44.7031 0,-43.9063 L0.5,16.2031 C0.5,17 1.09375,17.5938 1.90625,17.5938 C2.09375,17.5938 2.5,17.5 2.70313,17.4063 C3.09375,17.2031 9.59375,14 15,7.90625 C18.7969,3.59375 20.2969,-1.29688 20.2969,-5.40625 C20.2969,-6.29688 20.2031,-7.09375 20.0938,-7.90625 M13.2031,-4 C13.2031,-2.5 12.7969,2.09375 10.2969,5.90625 C8.59375,8.5 5.20313,11.2031 3.29688,12.7031 L3.59375,-6.79688 C3.79688,-7.70313 5.29688,-10.5938 9.29688,-10.5938 C12.9063,-10.5938 13.2031,-7.20313 13.2031,-5.09375 L13.2031,-4 " transform="matrix(0.992126,0,0,0.992126,320.725,1626.38)"></path>
<path class="TimeSig" d="M3.59375,12.625 L20.7656,12.625 L20.7656,20.0781 L12.5469,20.0781 C11.7656,20.0781 11.125,20.7031 11.125,21.4844 L11.125,23.3906 C11.125,24.1719 11.7656,24.7969 12.5469,24.7969 L42.7969,24.7969 C43.5781,24.7969 44.2031,24.1719 44.2031,23.3906 L44.2031,21.4844 C44.2031,20.7031 43.5781,20.0781 42.7969,20.0781 L33.8594,20.0781 L33.8594,12.625 L42.7969,12.625 C43.5781,12.625 44.2031,12 44.2031,11.2188 L44.2031,9.3125 C44.2031,8.53125 43.5781,7.90625 42.7969,7.90625 L33.8594,7.90625 L33.8594,-8.0625 C33.8594,-8.59375 33.5469,-9.07813 33.0781,-9.3125 L31.8594,-9.92188 C31.3281,-10.1719 30.7031,-10.0781 30.2656,-9.6875 L21.2188,-1.375 C20.9375,-1.09375 20.7656,-0.734375 20.7656,-0.328125 L20.7656,7.90625 L9.25,7.90625 C9.25,7.90625 20.375,-4.125 32.2188,-19.8906 C33.0781,-21.0469 32.5781,-22.0938 32.3906,-22.2813 L30.2188,-24.4844 C29.9531,-24.75 29.5938,-24.9063 29.2188,-24.9063 C28.625,-24.9063 15.0625,-24.875 14.3438,-24.9063 C13.625,-24.9219 13.0938,-24.2969 13.0156,-23.6875 C13.0156,-23.6875 12.4844,-16.3281 9.875,-8.1875 C7.28125,-0.078125 4.34375,4.90625 1.6875,8.53125 C1.6875,8.53125 1.14063,9.51563 1.5,10.2656 C1.84375,11.0156 2.48438,12.0938 2.48438,12.0938 C2.48438,12.0938 2.73438,12.625 3.59375,12.625" transform="matrix(0.992126,0,0,0.992126,488.316,659.187)"></path>
<path class="TimeSig" d="M3.59375,12.625 L20.7656,12.625 L20.7656,20.0781 L12.5469,20.0781 C11.7656,20.0781 11.125,20.7031 11.125,21.4844 L11.125,23.3906 C11.125,24.1719 11.7656,24.7969 12.5469,24.7969 L42.7969,24.7969 C43.5781,24.7969 44.2031,24.1719 44.2031,23.3906 L44.2031,21.4844 C44.2031,20.7031 43.5781,20.0781 42.7969,20.0781 L33.8594,20.0781 L33.8594,12.625 L42.7969,12.625 C43.5781,12.625 44.2031,12 44.2031,11.2188 L44.2031,9.3125 C44.2031,8.53125 43.5781,7.90625 42.7969,7.90625 L33.8594,7.90625 L33.8594,-8.0625 C33.8594,-8.59375 33.5469,-9.07813 33.0781,-9.3125 L31.8594,-9.92188 C31.3281,-10.1719 30.7031,-10.0781 30.2656,-9.6875 L21.2188,-1.375 C20.9375,-1.09375 20.7656,-0.734375 20.7656,-0.328125 L20.7656,7.90625 L9.25,7.90625 C9.25,7.90625 20.375,-4.125 32.2188,-19.8906 C33.0781,-21.0469 32.5781,-22.0938 32.3906,-22.2813 L30.2188,-24.4844 C29.9531,-24.75 29.5938,-24.9063 29.2188,-24.9063 C28.625,-24.9063 15.0625,-24.875 14.3438,-24.9063 C13.625,-24.9219 13.0938,-24.2969 13.0156,-23.6875 C13.0156,-23.6875 12.4844,-16.3281 9.875,-8.1875 C7.28125,-0.078125 4.34375,4.90625 1.6875,8.53125 C1.6875,8.53125 1.14063,9.51563 1.5,10.2656 C1.84375,11.0156 2.48438,12.0938 2.48438,12.0938 C2.48438,12.0938 2.73438,12.625 3.59375,12.625" transform="matrix(0.992126,0,0,0.992126,488.316,708.53)"></path>
<path class="Beam" d="M564.408,770.649 L643.424,777.071 L643.424,789.514 L564.408,783.091 L564.408,770.649 " fill-rule="evenodd"></path>
<path class="Beam" d="M643.424,758.469 L611.18,755.848 L611.18,768.291 L643.424,770.912 L643.424,758.469 " fill-rule="evenodd"></path>
<path class="Beam" d="M955.971,795.441 L1020.52,801.916 L1020.52,814.38 L955.971,807.905 L955.971,795.441 " fill-rule="evenodd"></path>
<path class="Beam" d="M1020.52,783.313 L988.273,780.079 L988.273,792.543 L1020.52,795.777 L1020.52,783.313 " fill-rule="evenodd"></path>
<path class="Beam" d="M1279.23,801.641 L1342.56,795.161 L1342.56,807.627 L1279.23,814.107 L1279.23,801.641 " fill-rule="evenodd"></path>
<path class="Beam" d="M1342.56,776.559 L1310.31,779.858 L1310.31,792.324 L1342.56,789.025 L1342.56,776.559 " fill-rule="evenodd"></path>
<path class="Beam" d="M1914.45,770.649 L1993.47,777.071 L1993.47,789.514 L1914.45,783.091 L1914.45,770.649 " fill-rule="evenodd"></path>
<path class="Beam" d="M1993.47,758.469 L1961.23,755.848 L1961.23,768.291 L1993.47,770.912 L1993.47,758.469 " fill-rule="evenodd"></path>
<path class="Beam" d="M2335.52,627.746 L2400.07,634.221 L2400.07,646.685 L2335.52,640.21 L2335.52,627.746 " fill-rule="evenodd"></path>
<path class="Beam" d="M2400.07,652.823 L2367.83,649.589 L2367.83,662.053 L2400.07,665.287 L2400.07,652.823 " fill-rule="evenodd"></path>
<path class="Beam" d="M2658.79,627.74 L2722.11,634.22 L2722.11,646.686 L2658.79,640.206 L2658.79,627.74 " fill-rule="evenodd"></path>
<path class="Beam" d="M2722.11,652.822 L2689.87,649.522 L2689.87,661.989 L2722.11,665.288 L2722.11,652.822 " fill-rule="evenodd"></path>
<path class="Beam" d="M572.565,1074.06 L619.102,1080.65 L619.102,1093.17 L572.565,1086.59 L572.565,1074.06 " fill-rule="evenodd"></path>
<path class="Beam" d="M660.183,1116.9 L706.72,1130.07 L706.72,1142.96 L660.183,1129.79 L660.183,1116.9 " fill-rule="evenodd"></path>
<path class="Beam" d="M931.695,1217.1 L1000.43,1223.56 L1000.43,1236.01 L931.695,1229.55 L931.695,1217.1 " fill-rule="evenodd"></path>
<path class="Beam" d="M1000.43,1204.95 L968.19,1201.92 L968.19,1214.38 L1000.43,1217.41 L1000.43,1204.95 " fill-rule="evenodd"></path>
<path class="Beam" d="M1698.46,1266.63 L1834.3,1291.94 L1834.3,1304.55 L1698.46,1279.24 L1698.46,1266.63 " fill-rule="evenodd"></path>
<path class="Beam" d="M2118.29,1105.74 L2187.03,1099.28 L2187.03,1111.74 L2118.29,1118.2 L2118.29,1105.74 " fill-rule="evenodd"></path>
<path class="Beam" d="M2187.03,1117.89 L2154.79,1120.91 L2154.79,1133.37 L2187.03,1130.34 L2187.03,1117.89 " fill-rule="evenodd"></path>
<path class="Beam" d="M2659.87,1105.76 L2722.11,1099.28 L2722.11,1111.75 L2659.87,1118.23 L2659.87,1105.76 " fill-rule="evenodd"></path>
<path class="Beam" d="M2722.11,1117.88 L2689.87,1121.24 L2689.87,1133.71 L2722.11,1130.35 L2722.11,1117.88 " fill-rule="evenodd"></path>
<path class="Hook" d="M2.5,0.40625 C2.5,0.203125 3.40625,-3.20313 3.5,-3.5 C3.59375,-3.90625 5.40625,-9.59375 9.09375,-15.2969 C11.7969,-19.5 21.2969,-31.7969 21,-31.7969 C21,-31.7969 28.4063,-41.2969 28.9063,-54.2031 L28.9063,-56.5 C28.9063,-62.6094 28.1094,-71.2031 24.5938,-79.9063 C24.2031,-80.9063 23.7969,-81.9063 22.7031,-81.5 C21.5938,-81.1094 21.9063,-79.9063 22.2031,-78.8125 C24,-71.7969 25,-64.6094 25,-57.4063 C25,-49 22,-44.7969 20.2031,-41.7031 C13.5938,-30.6094 5,-25.2031 0.796875,-23.7969 C0.296875,-23.5938 0,-23.2031 0,-22.7031 L0,-16.5 L0,-0.09375 C0,0.59375 0.59375,1.20313 1.29688,1.20313 C1.79688,1.20313 2.40625,0.796875 2.5,0.40625" transform="matrix(0.992126,0,0,0.992126,1654.09,1254.33)"></path>
<path class="Hook" d="M2.5,0.40625 C2.5,0.203125 3.40625,-3.20313 3.5,-3.5 C3.59375,-3.90625 5.40625,-9.59375 9.09375,-15.2969 C11.7969,-19.5 21.2969,-31.7969 21,-31.7969 C21,-31.7969 28.4063,-41.2969 28.9063,-54.2031 L28.9063,-56.5 C28.9063,-62.6094 28.1094,-71.2031 24.5938,-79.9063 C24.2031,-80.9063 23.7969,-81.9063 22.7031,-81.5 C21.5938,-81.1094 21.9063,-79.9063 22.2031,-78.8125 C24,-71.7969 25,-64.6094 25,-57.4063 C25,-49 22,-44.7969 20.2031,-41.7031 C13.5938,-30.6094 5,-25.2031 0.796875,-23.7969 C0.296875,-23.5938 0,-23.2031 0,-22.7031 L0,-16.5 L0,-0.09375 C0,0.59375 0.59375,1.20313 1.29688,1.20313 C1.79688,1.20313 2.40625,0.796875 2.5,0.40625" transform="matrix(0.992126,0,0,0.992126,589.546,1737.99)"></path>
<path class="NoteDot" d="M0,0 C0,2.76563 2.23438,5 5,5 C7.76563,5 10,2.76563 10,0 C10,-2.76563 7.76563,-5 5,-5 C2.23438,-5 0,-2.76563 0,0" transform="matrix(0.992126,0,0,0.992126,609.046,696.26)"></path>
<path class="NoteDot" d="M0,0 C0,2.76563 2.23438,5 5,5 C7.76563,5 10,2.76563 10,0 C10,-2.76563 7.76563,-5 5,-5 C2.23438,-5 0,-2.76563 0,0" transform="matrix(0.992126,0,0,0.992126,1000.61,696.26)"></path>
<path class="NoteDot" d="M0,0 C0,2.76563 2.23438,5 5,5 C7.76563,5 10,2.76563 10,0 C10,-2.76563 7.76563,-5 5,-5 C2.23438,-5 0,-2.76563 0,0" transform="matrix(0.992126,0,0,0.992126,1323.87,721.063)"></path>
<path class="NoteDot" d="M0,0 C0,2.76563 2.23438,5 5,5 C7.76563,5 10,2.76563 10,0 C10,-2.76563 7.76563,-5 5,-5 C2.23438,-5 0,-2.76563 0,0" transform="matrix(0.992126,0,0,0.992126,1785.88,696.26)"></path>
<path class="NoteDot" d="M0,0 C0,2.76563 2.23438,5 5,5 C7.76563,5 10,2.76563 10,0 C10,-2.76563 7.76563,-5 5,-5 C2.23438,-5 0,-2.76563 0,0" transform="matrix(0.992126,0,0,0.992126,1959.09,696.26)"></path>
<path class="NoteDot" d="M0,0 C0,2.76563 2.23438,5 5,5 C7.76563,5 10,2.76563 10,0 C10,-2.76563 7.76563,-5 5,-5 C2.23438,-5 0,-2.76563 0,0" transform="matrix(0.992126,0,0,0.992126,2350.65,696.26)"></path>
<path class="NoteDot" d="M0,0 C0,2.76563 2.23438,5 5,5 C7.76563,5 10,2.76563 10,0 C10,-2.76563 7.76563,-5 5,-5 C2.23438,-5 0,-2.76563 0,0" transform="matrix(0.992126,0,0,0.992126,2673.92,696.26)"></path>
<path class="NoteDot" d="M0,0 C0,2.76563 2.23438,5 5,5 C7.76563,5 10,2.76563 10,0 C10,-2.76563 7.76563,-5 5,-5 C2.23438,-5 0,-2.76563 0,0" transform="matrix(0.992126,0,0,0.992126,833.952,1217.13)"></path>
<path class="NoteDot" d="M0,0 C0,2.76563 2.23438,5 5,5 C7.76563,5 10,2.76563 10,0 C10,-2.76563 7.76563,-5 5,-5 C2.23438,-5 0,-2.76563 0,0" transform="matrix(0.992126,0,0,0.992126,976.333,1142.72)"></path>
<path class="NoteDot" d="M0,0 C0,2.76563 2.23438,5 5,5 C7.76563,5 10,2.76563 10,0 C10,-2.76563 7.76563,-5 5,-5 C2.23438,-5 0,-2.76563 0,0" transform="matrix(0.992126,0,0,0.992126,1612.16,1167.52)"></path>
<path class="NoteDot" d="M0,0 C0,2.76563 2.23438,5 5,5 C7.76563,5 10,2.76563 10,0 C10,-2.76563 7.76563,-5 5,-5 C2.23438,-5 0,-2.76563 0,0" transform="matrix(0.992126,0,0,0.992126,1991.04,1217.13)"></path>
<path class="NoteDot" d="M0,0 C0,2.76563 2.23438,5 5,5 C7.76563,5 10,2.76563 10,0 C10,-2.76563 7.76563,-5 5,-5 C2.23438,-5 0,-2.76563 0,0" transform="matrix(0.992126,0,0,0.992126,2133.42,1192.32)"></path>
<path class="NoteDot" d="M0,0 C0,2.76563 2.23438,5 5,5 C7.76563,5 10,2.76563 10,0 C10,-2.76563 7.76563,-5 5,-5 C2.23438,-5 0,-2.76563 0,0" transform="matrix(0.992126,0,0,0.992126,2675,1192.32)"></path>
<path class="NoteDot" d="M0,0 C0,2.76563 2.23438,5 5,5 C7.76563,5 10,2.76563 10,0 C10,-2.76563 7.76563,-5 5,-5 C2.23438,-5 0,-2.76563 0,0" transform="matrix(0.992126,0,0,0.992126,447.508,1638.78)"></path>
<path class="NoteDot" d="M0,0 C0,2.76563 2.23438,5 5,5 C7.76563,5 10,2.76563 10,0 C10,-2.76563 7.76563,-5 5,-5 C2.23438,-5 0,-2.76563 0,0" transform="matrix(0.992126,0,0,0.992126,1072.76,1663.58)"></path>
</svg>
